M48
; DRILL file {KiCad 8.0.5} date 2025-06-10T09:40:07+0200
; FORMAT={-:-/ absolute / inch / decimal}
; #@! TF.CreationDate,2025-06-10T09:40:07+02:00
; #@! TF.GenerationSoftware,Kicad,Pcbnew,8.0.5
; #@! TF.FileFunction,Plated,1,2,PTH
FMAT,2
INCH
; #@! TA.AperFunction,Plated,PTH,ViaDrill
T1C0.0030
; #@! TA.AperFunction,Plated,PTH,ViaDrill
T2C0.0157
; #@! TA.AperFunction,Plated,PTH,ComponentDrill
T3C0.0335
; #@! TA.AperFunction,Plated,PTH,ComponentDrill
T4C0.0394
; #@! TA.AperFunction,Plated,PTH,ComponentDrill
T5C0.1260
%
G90
G05
T1
X3.6973Y-5.0645
X3.6973Y-5.0975
X3.7076Y-5.0645
X3.7077Y-5.0975
X3.718Y-5.0645
X3.7181Y-5.0975
X3.7284Y-5.0645
X3.7285Y-5.0975
X3.7388Y-5.0645
X3.7389Y-5.0975
X3.7492Y-5.0645
X3.7493Y-5.0975
X3.7563Y-5.1045
X3.7596Y-5.0648
X3.7596Y-5.0648
X3.7633Y-5.1115
X3.7682Y-5.0696
X3.7703Y-5.1185
X3.7753Y-5.0767
X3.7773Y-5.1255
X3.7824Y-5.0838
X3.7843Y-5.1324
X3.7895Y-5.0909
X3.7912Y-5.1394
X3.7966Y-5.098
X3.7982Y-5.1464
X3.8036Y-5.1051
X3.8052Y-5.1534
X3.8107Y-5.1122
X3.8122Y-5.1604
X3.8178Y-5.1192
X3.8192Y-5.1673
X3.8249Y-5.1263
X3.8261Y-5.1743
X3.832Y-5.1334
X3.8331Y-5.1813
X3.8391Y-5.1405
X3.8401Y-5.1883
X3.8462Y-5.1476
X3.8471Y-5.1953
X3.8533Y-5.1547
X3.8541Y-5.2023
X3.8604Y-5.1618
X3.861Y-5.2092
X3.8675Y-5.1689
X3.868Y-5.2162
X3.8745Y-5.176
X3.875Y-5.2232
X3.8816Y-5.1831
X3.882Y-5.2302
X3.8887Y-5.1901
X3.889Y-5.2372
X3.8958Y-5.1972
X3.896Y-5.2441
X3.9029Y-5.2043
X3.91Y-5.2114
X3.9171Y-5.2185
X3.9242Y-5.2256
X3.9537Y-5.2587
X3.9557Y-5.2256
X3.9638Y-5.2587
X3.9651Y-5.2256
X3.9739Y-5.2587
X3.9753Y-5.2256
X3.984Y-5.2587
X3.9843Y-5.2256
X4.0163Y-5.2256
X4.0174Y-5.2587
X4.0265Y-5.2256
X4.0274Y-5.2587
X4.0367Y-5.2256
X4.0375Y-5.2587
X4.047Y-5.2256
X4.0476Y-5.2587
X4.0572Y-5.2256
X4.0577Y-5.2587
X4.0674Y-5.2256
X4.0677Y-5.2587
X4.0777Y-5.2256
X4.0778Y-5.2587
X4.0879Y-5.2587
X4.0879Y-5.2256
X4.0955Y-5.2662
X4.0981Y-5.2259
X4.0981Y-5.2259
X4.103Y-5.2738
X4.1063Y-5.2303
X4.1093Y-5.2805
X4.113Y-5.237
X4.1162Y-5.287
X4.1202Y-5.2442
X4.1274Y-5.2514
X4.1332Y-5.2577
X4.1398Y-5.2638
X4.2227Y-5.216
X4.2227Y-5.2265
X4.2227Y-5.237
X4.2227Y-5.2475
X4.2227Y-5.258
X4.2557Y-5.216
X4.2557Y-5.2265
X4.2557Y-5.237
X4.2557Y-5.2475
X4.2557Y-5.258
X5.59Y-5.0652
X5.59Y-5.0848
X5.6002Y-5.0652
X5.6002Y-5.0848
X5.6104Y-5.0652
X5.6104Y-5.0848
X5.6206Y-5.0652
X5.6206Y-5.0848
X5.6308Y-5.0652
X5.6308Y-5.0848
X5.641Y-5.0652
X5.641Y-5.0848
X5.6513Y-5.0652
X5.6513Y-5.0848
X5.6615Y-5.0652
X5.6615Y-5.0848
X5.6717Y-5.0652
X5.6717Y-5.0848
X5.6819Y-5.0652
X5.6819Y-5.0848
X5.6921Y-5.0652
X5.6921Y-5.0848
X5.7023Y-5.0652
X5.7023Y-5.0848
X5.7125Y-5.0652
X5.7125Y-5.0848
X5.7227Y-5.0652
X5.7227Y-5.0848
T2
X0.0Y0.0
X0.0Y0.0
X0.0Y0.0
X0.0Y0.0
X0.0Y0.0
X3.8671Y-5.3051
X3.9724Y-5.0472
X4.1112Y-5.0817
X4.119Y-5.0
X4.1378Y-4.8307
X4.1781Y-5.2362
X4.202Y-4.897
X4.252Y-4.706
X4.2963Y-4.9783
X4.302Y-4.7441
X4.3091Y-5.2362
X4.404Y-5.35
X4.512Y-4.925
X4.513Y-4.975
X4.513Y-5.025
X4.52Y-5.175
X4.5669Y-5.128
X4.5679Y-4.9508
X4.568Y-4.999
X4.799Y-5.0
X4.8Y-4.8
X4.8Y-5.2
X4.8Y-5.399
X5.263Y-5.174
X5.31Y-5.35
X5.414Y-4.925
X5.415Y-4.975
X5.415Y-5.025
T3
X3.94Y-5.174
X3.94Y-5.3
X4.066Y-5.174
X4.066Y-5.3
X4.1526Y-5.174
X4.1526Y-5.3
X4.2392Y-5.174
X4.2392Y-5.3
T4
X3.6289Y-4.6841
X3.6289Y-4.7841
X4.5089Y-4.686
X4.5089Y-4.786
X5.4217Y-4.688
X5.5217Y-4.688
X5.6217Y-4.688
X5.7217Y-4.688
T5
X3.675Y-5.5
X5.75Y-5.5
M30
