G04 #@! TF.GenerationSoftware,KiCad,Pcbnew,8.0.5*
G04 #@! TF.CreationDate,2025-06-10T11:51:35+02:00*
G04 #@! TF.ProjectId,SDR_PreAmp_Filter,5344525f-5072-4654-916d-705f46696c74,rev?*
G04 #@! TF.SameCoordinates,Original*
G04 #@! TF.FileFunction,Copper,L2,Bot*
G04 #@! TF.FilePolarity,Positive*
%FSLAX46Y46*%
G04 Gerber Fmt 4.6, Leading zero omitted, Abs format (unit mm)*
G04 Created by KiCad (PCBNEW 8.0.5) date 2025-06-10 11:51:35*
%MOMM*%
%LPD*%
G01*
G04 APERTURE LIST*
G04 #@! TA.AperFunction,ComponentPad*
%ADD10C,5.600000*%
G04 #@! TD*
G04 #@! TA.AperFunction,ComponentPad*
%ADD11R,1.700000X1.700000*%
G04 #@! TD*
G04 #@! TA.AperFunction,ComponentPad*
%ADD12O,1.700000X1.700000*%
G04 #@! TD*
G04 #@! TA.AperFunction,ComponentPad*
%ADD13C,1.381000*%
G04 #@! TD*
G04 #@! TA.AperFunction,SMDPad,CuDef*
%ADD14R,4.200000X1.350000*%
G04 #@! TD*
G04 #@! TA.AperFunction,SMDPad,CuDef*
%ADD15R,3.600000X1.270000*%
G04 #@! TD*
G04 #@! TA.AperFunction,ViaPad*
%ADD16C,0.200000*%
G04 #@! TD*
G04 #@! TA.AperFunction,ViaPad*
%ADD17C,0.800000*%
G04 #@! TD*
G04 #@! TA.AperFunction,ViaPad*
%ADD18C,0.150000*%
G04 #@! TD*
G04 #@! TA.AperFunction,Conductor*
%ADD19C,0.250000*%
G04 #@! TD*
G04 APERTURE END LIST*
D10*
X146050000Y-139700000D03*
D11*
X145330000Y-119075000D03*
D12*
X142790000Y-119075000D03*
X140250000Y-119075000D03*
X137710000Y-119075000D03*
D13*
X100076000Y-134620000D03*
X103276000Y-134620000D03*
X105476000Y-134620000D03*
X107676000Y-134620000D03*
X107676000Y-131420000D03*
X105476000Y-131420000D03*
X103276000Y-131420000D03*
X100076000Y-131420000D03*
D10*
X93345000Y-139700000D03*
D11*
X92175000Y-118975000D03*
D12*
X92175000Y-121515000D03*
D14*
X147193000Y-131699000D03*
X147193000Y-126049000D03*
D11*
X114526000Y-119024400D03*
D12*
X114526000Y-121564400D03*
D15*
X91798800Y-129057400D03*
D14*
X91998800Y-131882400D03*
X91998800Y-126232400D03*
D16*
X0Y0D03*
X0Y0D03*
X0Y0D03*
X0Y0D03*
X0Y0D03*
D17*
X134874000Y-135890000D03*
X111861600Y-135890000D03*
X108000800Y-119532400D03*
D18*
X97006649Y-131250619D03*
X102532946Y-132730000D03*
X102273039Y-132730000D03*
D17*
X121920000Y-132080000D03*
D18*
X98779869Y-133023839D03*
X96474683Y-130718653D03*
X96120039Y-130364009D03*
X143062160Y-128455000D03*
X107256000Y-132753333D03*
X99313817Y-132369847D03*
X97332979Y-130389009D03*
D17*
X104425000Y-129075000D03*
D18*
X102296608Y-133570000D03*
X96252522Y-129308552D03*
X103320222Y-133570000D03*
X100973504Y-132730000D03*
X144098880Y-129355000D03*
X102792853Y-132730000D03*
X143839700Y-129355000D03*
X100713597Y-132730000D03*
X98953665Y-132009695D03*
X96072446Y-129128476D03*
X100936807Y-133570000D03*
D17*
X116000000Y-130250000D03*
D18*
X95765395Y-130009365D03*
X143321340Y-129355000D03*
D17*
X106125000Y-133000000D03*
D18*
X95229861Y-128637400D03*
X95892370Y-128948400D03*
X100680903Y-133570000D03*
D17*
X105100000Y-122700000D03*
D18*
X97893259Y-132137229D03*
X94705025Y-129477400D03*
X102808415Y-133570000D03*
X96792751Y-129848781D03*
X94440823Y-129477400D03*
D17*
X109450000Y-133000000D03*
D18*
X104653207Y-133203237D03*
X104216882Y-133954852D03*
X143062160Y-129355000D03*
X145135600Y-129355000D03*
X104551139Y-134289079D03*
X143839700Y-128455000D03*
X103064319Y-133570000D03*
X99493893Y-132549923D03*
X108096000Y-133020000D03*
X101200000Y-132730000D03*
D17*
X121894600Y-127000000D03*
D18*
X107256000Y-133020000D03*
X144098880Y-128455000D03*
X94702005Y-128637400D03*
X100475000Y-132730000D03*
X96432599Y-129488629D03*
X97513056Y-130569086D03*
D17*
X100900000Y-128200000D03*
D18*
X102552512Y-133570000D03*
X142802980Y-129355000D03*
X94438077Y-128637400D03*
X98233360Y-131289390D03*
X102040705Y-133570000D03*
X142284620Y-129355000D03*
D17*
X109125000Y-126450000D03*
D18*
X104300000Y-132850000D03*
X104091779Y-132738853D03*
X103832481Y-132730000D03*
X98053284Y-131109314D03*
X143580520Y-129355000D03*
X94969227Y-129477400D03*
X96652005Y-130895975D03*
X143580520Y-128455000D03*
X107256000Y-133553333D03*
X145135600Y-128455000D03*
D17*
X98225000Y-134750000D03*
D18*
X93912418Y-129477400D03*
X103052760Y-132730000D03*
D17*
X121920000Y-137134600D03*
D18*
X144876420Y-129355000D03*
X104983824Y-133545884D03*
X98773589Y-131829619D03*
X144876420Y-128455000D03*
X95233430Y-129477400D03*
X95942717Y-130186687D03*
X144617240Y-129355000D03*
X142543800Y-128455000D03*
X95410751Y-129654721D03*
X97361293Y-131605263D03*
X97152903Y-130208933D03*
X108096000Y-133553333D03*
X94174149Y-128637400D03*
D17*
X121920000Y-121920000D03*
D18*
X98425225Y-132669195D03*
X95588073Y-129832043D03*
X105150000Y-133700000D03*
X96972827Y-130028857D03*
X108096000Y-132753333D03*
X98957191Y-133201161D03*
X99133741Y-132189771D03*
X107256000Y-133286666D03*
X98070581Y-132314551D03*
X97183971Y-131427941D03*
X100425000Y-133570000D03*
X104024456Y-133762426D03*
X102013132Y-132730000D03*
X103832030Y-133570000D03*
X104835670Y-133385700D03*
X103312667Y-132730000D03*
X96297361Y-130541331D03*
X96612675Y-129668705D03*
X104375000Y-134125000D03*
X97715937Y-131959907D03*
X142284620Y-128455000D03*
X108096000Y-132486666D03*
X98602547Y-132846517D03*
X144617240Y-128455000D03*
X98247903Y-132491873D03*
X95493181Y-128646253D03*
X101192710Y-133570000D03*
D17*
X116027200Y-126974600D03*
D18*
X107256000Y-132486666D03*
X99673970Y-132730000D03*
X104470744Y-133020774D03*
D17*
X116025000Y-125750000D03*
D18*
X97693132Y-130749162D03*
X93910222Y-128637400D03*
X97538615Y-131782585D03*
X144358060Y-129355000D03*
X95712294Y-128768324D03*
X95493179Y-128646253D03*
X94965933Y-128637400D03*
X144358060Y-128455000D03*
X94176620Y-129477400D03*
X142802980Y-128455000D03*
X142543800Y-129355000D03*
X96829327Y-131073297D03*
X98593513Y-131649543D03*
X103576126Y-133570000D03*
X97873208Y-130929238D03*
X103572574Y-132730000D03*
X143321340Y-128455000D03*
X104091781Y-132738853D03*
X98413436Y-131469466D03*
X108096000Y-133286666D03*
D17*
X114604800Y-125095000D03*
X137515600Y-125095000D03*
X114630200Y-126365000D03*
X137541000Y-126365000D03*
X114630200Y-127635000D03*
X137541000Y-127635000D03*
X133680200Y-131419600D03*
X114808000Y-131445000D03*
X106730800Y-124383800D03*
X109270800Y-120500000D03*
X104622600Y-127000000D03*
D19*
X110769400Y-121564400D02*
X110744000Y-121589800D01*
X110744000Y-121589800D02*
X110744000Y-135636000D01*
X108000800Y-119532400D02*
X110439200Y-119532400D01*
X110744000Y-119837200D02*
X110744000Y-121589800D01*
X110439200Y-119532400D02*
X110744000Y-119837200D01*
X114526000Y-121564400D02*
X110769400Y-121564400D01*
X99898200Y-134797800D02*
X100076000Y-134620000D01*
X110998000Y-135890000D02*
X134874000Y-135890000D01*
X110744000Y-135636000D02*
X110998000Y-135890000D01*
X116230400Y-127000000D02*
X116205000Y-126974600D01*
X121894600Y-127000000D02*
X116230400Y-127000000D01*
X137725000Y-124885600D02*
X137515600Y-125095000D01*
X137725000Y-118600000D02*
X137725000Y-124885600D01*
X114604800Y-125095000D02*
X137515600Y-125095000D01*
X137541000Y-126365000D02*
X137451000Y-126275000D01*
X140265000Y-125800000D02*
X140265000Y-118600000D01*
X137451000Y-126365000D02*
X114720200Y-126365000D01*
X137541000Y-126365000D02*
X139700000Y-126365000D01*
X114720200Y-126275000D02*
X114630200Y-126365000D01*
X139700000Y-126365000D02*
X140265000Y-125800000D01*
X114720200Y-127635000D02*
X137451000Y-127635000D01*
X142805000Y-127070000D02*
X142805000Y-118600000D01*
X114630200Y-127635000D02*
X114720200Y-127725000D01*
X137451000Y-127725000D02*
X137541000Y-127635000D01*
X137541000Y-127635000D02*
X142240000Y-127635000D01*
X142240000Y-127635000D02*
X142805000Y-127070000D01*
X114898000Y-131445000D02*
X133615600Y-131445000D01*
X133615600Y-131355000D02*
X133680200Y-131419600D01*
X114808000Y-131445000D02*
X114898000Y-131355000D01*
X95407400Y-129057400D02*
X91798800Y-129057400D01*
X105476000Y-134620000D02*
X104006000Y-133150000D01*
X99500000Y-133150000D02*
X95407400Y-129057400D01*
X104006000Y-133150000D02*
X99500000Y-133150000D01*
X106705400Y-120878600D02*
X106705400Y-126695200D01*
X109270800Y-120500000D02*
X107084000Y-120500000D01*
X106705400Y-126695200D02*
X106400600Y-127000000D01*
X106400600Y-127000000D02*
X104622600Y-127000000D01*
X107084000Y-120500000D02*
X106705400Y-120878600D01*
X92964000Y-121539000D02*
X99745800Y-121539000D01*
X100050200Y-131394200D02*
X100076000Y-131420000D01*
X100076000Y-121869200D02*
X100076000Y-131420000D01*
X99745800Y-121539000D02*
X100076000Y-121869200D01*
G04 #@! TA.AperFunction,Conductor*
G36*
X137043221Y-126709407D02*
G01*
X137063570Y-126729231D01*
X137112718Y-126793282D01*
X137112722Y-126793285D01*
X137112723Y-126793286D01*
X137124383Y-126802233D01*
X137238159Y-126889536D01*
X137251498Y-126895061D01*
X137284028Y-126908536D01*
X137330554Y-126948273D01*
X137344837Y-127007768D01*
X137321422Y-127064296D01*
X137284028Y-127091464D01*
X137238160Y-127110463D01*
X137112723Y-127206713D01*
X137112714Y-127206722D01*
X137074794Y-127256141D01*
X137064269Y-127269859D01*
X137063572Y-127270767D01*
X137013148Y-127305423D01*
X136985030Y-127309500D01*
X115186170Y-127309500D01*
X115127979Y-127290593D01*
X115107628Y-127270767D01*
X115106931Y-127269859D01*
X115058482Y-127206718D01*
X115058477Y-127206714D01*
X115058476Y-127206713D01*
X114933038Y-127110462D01*
X114887172Y-127091464D01*
X114840646Y-127051728D01*
X114826362Y-126992233D01*
X114849777Y-126935705D01*
X114887172Y-126908536D01*
X114919702Y-126895061D01*
X114933041Y-126889536D01*
X115058482Y-126793282D01*
X115107628Y-126729232D01*
X115158052Y-126694577D01*
X115186170Y-126690500D01*
X136985030Y-126690500D01*
X137043221Y-126709407D01*
G37*
G04 #@! TD.AperFunction*
G04 #@! TA.AperFunction,Conductor*
G36*
X137017821Y-125439407D02*
G01*
X137038170Y-125459231D01*
X137087318Y-125523282D01*
X137087322Y-125523285D01*
X137087323Y-125523286D01*
X137116682Y-125545813D01*
X137212759Y-125619536D01*
X137212760Y-125619536D01*
X137212761Y-125619537D01*
X137271327Y-125643796D01*
X137317853Y-125683532D01*
X137332137Y-125743027D01*
X137308722Y-125799555D01*
X137271329Y-125826723D01*
X137238163Y-125840461D01*
X137238160Y-125840462D01*
X137112723Y-125936713D01*
X137112714Y-125936722D01*
X137074794Y-125986141D01*
X137064269Y-125999859D01*
X137063572Y-126000767D01*
X137013148Y-126035423D01*
X136985030Y-126039500D01*
X115186170Y-126039500D01*
X115127979Y-126020593D01*
X115107628Y-126000767D01*
X115106931Y-125999859D01*
X115058482Y-125936718D01*
X115058477Y-125936714D01*
X115058476Y-125936713D01*
X115005097Y-125895754D01*
X114933041Y-125840464D01*
X114933039Y-125840463D01*
X114874471Y-125816203D01*
X114827945Y-125776466D01*
X114813662Y-125716971D01*
X114837077Y-125660443D01*
X114874470Y-125633275D01*
X114907641Y-125619536D01*
X115033082Y-125523282D01*
X115082228Y-125459232D01*
X115132652Y-125424577D01*
X115160770Y-125420500D01*
X136959630Y-125420500D01*
X137017821Y-125439407D01*
G37*
G04 #@! TD.AperFunction*
G04 #@! TA.AperFunction,Conductor*
G36*
X149311191Y-115715907D02*
G01*
X149347155Y-115765407D01*
X149352000Y-115796000D01*
X149352000Y-125074500D01*
X149333093Y-125132691D01*
X149283593Y-125168655D01*
X149253000Y-125173500D01*
X145073252Y-125173500D01*
X145073251Y-125173500D01*
X145073241Y-125173501D01*
X145014772Y-125185132D01*
X145014766Y-125185134D01*
X144948451Y-125229445D01*
X144948445Y-125229451D01*
X144904134Y-125295766D01*
X144904132Y-125295772D01*
X144892501Y-125354241D01*
X144892500Y-125354253D01*
X144892500Y-126743746D01*
X144892501Y-126743758D01*
X144904132Y-126802227D01*
X144904134Y-126802233D01*
X144931530Y-126843233D01*
X144948448Y-126868552D01*
X145014769Y-126912867D01*
X145059231Y-126921711D01*
X145073241Y-126924498D01*
X145073246Y-126924498D01*
X145073252Y-126924500D01*
X145073253Y-126924500D01*
X149253000Y-126924500D01*
X149311191Y-126943407D01*
X149347155Y-126992907D01*
X149352000Y-127023500D01*
X149352000Y-130724500D01*
X149333093Y-130782691D01*
X149283593Y-130818655D01*
X149253000Y-130823500D01*
X145073252Y-130823500D01*
X145073251Y-130823500D01*
X145073241Y-130823501D01*
X145014772Y-130835132D01*
X145014766Y-130835134D01*
X144948451Y-130879445D01*
X144948445Y-130879451D01*
X144904134Y-130945766D01*
X144904132Y-130945772D01*
X144892501Y-131004241D01*
X144892500Y-131004253D01*
X144892500Y-132393746D01*
X144892501Y-132393758D01*
X144904132Y-132452227D01*
X144904133Y-132452231D01*
X144948448Y-132518552D01*
X145014769Y-132562867D01*
X145059231Y-132571711D01*
X145073241Y-132574498D01*
X145073246Y-132574498D01*
X145073252Y-132574500D01*
X145073253Y-132574500D01*
X149253000Y-132574500D01*
X149311191Y-132593407D01*
X149347155Y-132642907D01*
X149352000Y-132673500D01*
X149352000Y-143018000D01*
X149333093Y-143076191D01*
X149283593Y-143112155D01*
X149253000Y-143117000D01*
X90065800Y-143117000D01*
X90007609Y-143098093D01*
X89971645Y-143048593D01*
X89966800Y-143018000D01*
X89966800Y-139700000D01*
X90339916Y-139700000D01*
X90360235Y-140048871D01*
X90420917Y-140393015D01*
X90521144Y-140727798D01*
X90521145Y-140727800D01*
X90659556Y-141048672D01*
X90659559Y-141048679D01*
X90834288Y-141351319D01*
X90834290Y-141351322D01*
X91042974Y-141631634D01*
X91154127Y-141749448D01*
X92142916Y-140760658D01*
X92284339Y-140902081D01*
X91292473Y-141893948D01*
X91550493Y-142110451D01*
X91842452Y-142302476D01*
X92154744Y-142459315D01*
X92154748Y-142459316D01*
X92483136Y-142578840D01*
X92823162Y-142659428D01*
X93170273Y-142700000D01*
X93519727Y-142700000D01*
X93866837Y-142659428D01*
X94206863Y-142578840D01*
X94535251Y-142459316D01*
X94535255Y-142459315D01*
X94847547Y-142302476D01*
X95139509Y-142110449D01*
X95139514Y-142110445D01*
X95397525Y-141893948D01*
X94405659Y-140902082D01*
X94547082Y-140760659D01*
X95535871Y-141749448D01*
X95647026Y-141631632D01*
X95647030Y-141631626D01*
X95855709Y-141351322D01*
X95855711Y-141351319D01*
X96030440Y-141048679D01*
X96030443Y-141048672D01*
X96168854Y-140727800D01*
X96168855Y-140727798D01*
X96269082Y-140393015D01*
X96329764Y-140048871D01*
X96350083Y-139700000D01*
X143044916Y-139700000D01*
X143065235Y-140048871D01*
X143125917Y-140393015D01*
X143226144Y-140727798D01*
X143226145Y-140727800D01*
X143364556Y-141048672D01*
X143364559Y-141048679D01*
X143539288Y-141351319D01*
X143539290Y-141351322D01*
X143747974Y-141631634D01*
X143859127Y-141749448D01*
X144847916Y-140760658D01*
X144989339Y-140902081D01*
X143997473Y-141893948D01*
X144255493Y-142110451D01*
X144547452Y-142302476D01*
X144859744Y-142459315D01*
X144859748Y-142459316D01*
X145188136Y-142578840D01*
X145528162Y-142659428D01*
X145875273Y-142700000D01*
X146224727Y-142700000D01*
X146571837Y-142659428D01*
X146911863Y-142578840D01*
X147240251Y-142459316D01*
X147240255Y-142459315D01*
X147552547Y-142302476D01*
X147844509Y-142110449D01*
X147844514Y-142110445D01*
X148102525Y-141893948D01*
X147110659Y-140902082D01*
X147252082Y-140760659D01*
X148240871Y-141749448D01*
X148352026Y-141631632D01*
X148352030Y-141631626D01*
X148560709Y-141351322D01*
X148560711Y-141351319D01*
X148735440Y-141048679D01*
X148735443Y-141048672D01*
X148873854Y-140727800D01*
X148873855Y-140727798D01*
X148974082Y-140393015D01*
X149034764Y-140048871D01*
X149055083Y-139700000D01*
X149034764Y-139351128D01*
X148974082Y-139006984D01*
X148873855Y-138672201D01*
X148873854Y-138672199D01*
X148735443Y-138351327D01*
X148735440Y-138351320D01*
X148560711Y-138048680D01*
X148560709Y-138048677D01*
X148352025Y-137768365D01*
X148240871Y-137650550D01*
X147252081Y-138639339D01*
X147110658Y-138497916D01*
X148102525Y-137506050D01*
X147844506Y-137289548D01*
X147552547Y-137097523D01*
X147240255Y-136940684D01*
X147240251Y-136940683D01*
X146911863Y-136821159D01*
X146571837Y-136740571D01*
X146224727Y-136700000D01*
X145875273Y-136700000D01*
X145528162Y-136740571D01*
X145188136Y-136821159D01*
X144859748Y-136940683D01*
X144859744Y-136940684D01*
X144547452Y-137097523D01*
X144255493Y-137289548D01*
X143997473Y-137506050D01*
X144989340Y-138497917D01*
X144847917Y-138639340D01*
X143859127Y-137650550D01*
X143747975Y-137768365D01*
X143539290Y-138048677D01*
X143539288Y-138048680D01*
X143364559Y-138351320D01*
X143364556Y-138351327D01*
X143226145Y-138672199D01*
X143226144Y-138672201D01*
X143125917Y-139006984D01*
X143065235Y-139351128D01*
X143044916Y-139700000D01*
X96350083Y-139700000D01*
X96329764Y-139351128D01*
X96269082Y-139006984D01*
X96168855Y-138672201D01*
X96168854Y-138672199D01*
X96030443Y-138351327D01*
X96030440Y-138351320D01*
X95855711Y-138048680D01*
X95855709Y-138048677D01*
X95647025Y-137768365D01*
X95535871Y-137650550D01*
X94547081Y-138639339D01*
X94405658Y-138497916D01*
X95397525Y-137506050D01*
X95139506Y-137289548D01*
X94847547Y-137097523D01*
X94535255Y-136940684D01*
X94535251Y-136940683D01*
X94206863Y-136821159D01*
X93866837Y-136740571D01*
X93519727Y-136700000D01*
X93170273Y-136700000D01*
X92823162Y-136740571D01*
X92483136Y-136821159D01*
X92154748Y-136940683D01*
X92154744Y-136940684D01*
X91842452Y-137097523D01*
X91550493Y-137289548D01*
X91292473Y-137506050D01*
X92284340Y-138497917D01*
X92142917Y-138639340D01*
X91154127Y-137650550D01*
X91042975Y-137768365D01*
X90834290Y-138048677D01*
X90834288Y-138048680D01*
X90659559Y-138351320D01*
X90659556Y-138351327D01*
X90521145Y-138672199D01*
X90521144Y-138672201D01*
X90420917Y-139006984D01*
X90360235Y-139351128D01*
X90339916Y-139700000D01*
X89966800Y-139700000D01*
X89966800Y-134620000D01*
X99180092Y-134620000D01*
X99199670Y-134806270D01*
X99257547Y-134984399D01*
X99257548Y-134984401D01*
X99257549Y-134984403D01*
X99257551Y-134984408D01*
X99351194Y-135146601D01*
X99351195Y-135146602D01*
X99476521Y-135285789D01*
X99628046Y-135395879D01*
X99628050Y-135395881D01*
X99628052Y-135395882D01*
X99684677Y-135421093D01*
X99799149Y-135472059D01*
X99982352Y-135511000D01*
X99982355Y-135511000D01*
X100169645Y-135511000D01*
X100169648Y-135511000D01*
X100352851Y-135472059D01*
X100523954Y-135395879D01*
X100675479Y-135285789D01*
X100800805Y-135146602D01*
X100894453Y-134984399D01*
X100952330Y-134806270D01*
X100971908Y-134620000D01*
X102380092Y-134620000D01*
X102399670Y-134806270D01*
X102457547Y-134984399D01*
X102457548Y-134984401D01*
X102457549Y-134984403D01*
X102457551Y-134984408D01*
X102551194Y-135146601D01*
X102551195Y-135146602D01*
X102676521Y-135285789D01*
X102828046Y-135395879D01*
X102828050Y-135395881D01*
X102828052Y-135395882D01*
X102884677Y-135421093D01*
X102999149Y-135472059D01*
X103182352Y-135511000D01*
X103182355Y-135511000D01*
X103369645Y-135511000D01*
X103369648Y-135511000D01*
X103552851Y-135472059D01*
X103723954Y-135395879D01*
X103875479Y-135285789D01*
X104000805Y-135146602D01*
X104094453Y-134984399D01*
X104152330Y-134806270D01*
X104171908Y-134620000D01*
X104152330Y-134433730D01*
X104094453Y-134255601D01*
X104094449Y-134255595D01*
X104094448Y-134255591D01*
X104000805Y-134093398D01*
X103875479Y-133954211D01*
X103723954Y-133844121D01*
X103723950Y-133844119D01*
X103723947Y-133844117D01*
X103552853Y-133767942D01*
X103552851Y-133767941D01*
X103552848Y-133767940D01*
X103552847Y-133767940D01*
X103493003Y-133755220D01*
X103369648Y-133729000D01*
X103182352Y-133729000D01*
X103065532Y-133753830D01*
X102999152Y-133767940D01*
X102999146Y-133767942D01*
X102828052Y-133844117D01*
X102828049Y-133844119D01*
X102676521Y-133954211D01*
X102551194Y-134093398D01*
X102457551Y-134255591D01*
X102457549Y-134255596D01*
X102399670Y-134433728D01*
X102399670Y-134433730D01*
X102380092Y-134620000D01*
X100971908Y-134620000D01*
X100952330Y-134433730D01*
X100894453Y-134255601D01*
X100894449Y-134255595D01*
X100894448Y-134255591D01*
X100800805Y-134093398D01*
X100675479Y-133954211D01*
X100523954Y-133844121D01*
X100523950Y-133844119D01*
X100523947Y-133844117D01*
X100352853Y-133767942D01*
X100352851Y-133767941D01*
X100352848Y-133767940D01*
X100352847Y-133767940D01*
X100293003Y-133755220D01*
X100169648Y-133729000D01*
X99982352Y-133729000D01*
X99865532Y-133753830D01*
X99799152Y-133767940D01*
X99799146Y-133767942D01*
X99628052Y-133844117D01*
X99628049Y-133844119D01*
X99476521Y-133954211D01*
X99351194Y-134093398D01*
X99257551Y-134255591D01*
X99257549Y-134255596D01*
X99199670Y-134433728D01*
X99199670Y-134433730D01*
X99180092Y-134620000D01*
X89966800Y-134620000D01*
X89966800Y-132856400D01*
X89985707Y-132798209D01*
X90035207Y-132762245D01*
X90065800Y-132757400D01*
X91898799Y-132757400D01*
X91898800Y-132757399D01*
X91898800Y-131982401D01*
X92098800Y-131982401D01*
X92098800Y-132757399D01*
X92098801Y-132757400D01*
X94118497Y-132757400D01*
X94118500Y-132757399D01*
X94176836Y-132745796D01*
X94242989Y-132701593D01*
X94242993Y-132701589D01*
X94287196Y-132635436D01*
X94298799Y-132577100D01*
X94298800Y-132577097D01*
X94298800Y-131982401D01*
X94298799Y-131982400D01*
X92098801Y-131982400D01*
X92098800Y-131982401D01*
X91898800Y-131982401D01*
X91898800Y-131007401D01*
X92098800Y-131007401D01*
X92098800Y-131782399D01*
X92098801Y-131782400D01*
X94298799Y-131782400D01*
X94298800Y-131782399D01*
X94298800Y-131187702D01*
X94298799Y-131187699D01*
X94287196Y-131129363D01*
X94242993Y-131063210D01*
X94242989Y-131063206D01*
X94176836Y-131019003D01*
X94118500Y-131007400D01*
X92098801Y-131007400D01*
X92098800Y-131007401D01*
X91898800Y-131007401D01*
X91898799Y-131007400D01*
X90065800Y-131007400D01*
X90007609Y-130988493D01*
X89971645Y-130938993D01*
X89966800Y-130908400D01*
X89966800Y-129991900D01*
X89985707Y-129933709D01*
X90035207Y-129897745D01*
X90065800Y-129892900D01*
X93618547Y-129892900D01*
X93618548Y-129892900D01*
X93677031Y-129881267D01*
X93743352Y-129836952D01*
X93787667Y-129770631D01*
X93799300Y-129712148D01*
X93799300Y-129481900D01*
X93818207Y-129423709D01*
X93867707Y-129387745D01*
X93898300Y-129382900D01*
X95231565Y-129382900D01*
X95289756Y-129401807D01*
X95301569Y-129411896D01*
X99239535Y-133349862D01*
X99239534Y-133349862D01*
X99300135Y-133410462D01*
X99300138Y-133410465D01*
X99374362Y-133453318D01*
X99457147Y-133475500D01*
X103830165Y-133475500D01*
X103888356Y-133494407D01*
X103900169Y-133504496D01*
X104613110Y-134217437D01*
X104640887Y-134271954D01*
X104637261Y-134318033D01*
X104599670Y-134433730D01*
X104580092Y-134620000D01*
X104599670Y-134806270D01*
X104657547Y-134984399D01*
X104657548Y-134984401D01*
X104657549Y-134984403D01*
X104657551Y-134984408D01*
X104751194Y-135146601D01*
X104751195Y-135146602D01*
X104876521Y-135285789D01*
X105028046Y-135395879D01*
X105028050Y-135395881D01*
X105028052Y-135395882D01*
X105084677Y-135421093D01*
X105199149Y-135472059D01*
X105382352Y-135511000D01*
X105382355Y-135511000D01*
X105569645Y-135511000D01*
X105569648Y-135511000D01*
X105752851Y-135472059D01*
X105923954Y-135395879D01*
X106075479Y-135285789D01*
X106200805Y-135146602D01*
X106294453Y-134984399D01*
X106352330Y-134806270D01*
X106371908Y-134620000D01*
X106780092Y-134620000D01*
X106799670Y-134806270D01*
X106857547Y-134984399D01*
X106857548Y-134984401D01*
X106857549Y-134984403D01*
X106857551Y-134984408D01*
X106951194Y-135146601D01*
X106951195Y-135146602D01*
X107076521Y-135285789D01*
X107228046Y-135395879D01*
X107228050Y-135395881D01*
X107228052Y-135395882D01*
X107284677Y-135421093D01*
X107399149Y-135472059D01*
X107582352Y-135511000D01*
X107582355Y-135511000D01*
X107769645Y-135511000D01*
X107769648Y-135511000D01*
X107952851Y-135472059D01*
X108123954Y-135395879D01*
X108275479Y-135285789D01*
X108400805Y-135146602D01*
X108494453Y-134984399D01*
X108552330Y-134806270D01*
X108571908Y-134620000D01*
X108552330Y-134433730D01*
X108494453Y-134255601D01*
X108494449Y-134255595D01*
X108494448Y-134255591D01*
X108400805Y-134093398D01*
X108275479Y-133954211D01*
X108123954Y-133844121D01*
X108123950Y-133844119D01*
X108123947Y-133844117D01*
X107952853Y-133767942D01*
X107952851Y-133767941D01*
X107952848Y-133767940D01*
X107952847Y-133767940D01*
X107893003Y-133755220D01*
X107769648Y-133729000D01*
X107582352Y-133729000D01*
X107465532Y-133753830D01*
X107399152Y-133767940D01*
X107399146Y-133767942D01*
X107228052Y-133844117D01*
X107228049Y-133844119D01*
X107076521Y-133954211D01*
X106951194Y-134093398D01*
X106857551Y-134255591D01*
X106857549Y-134255596D01*
X106799670Y-134433728D01*
X106799670Y-134433730D01*
X106780092Y-134620000D01*
X106371908Y-134620000D01*
X106352330Y-134433730D01*
X106294453Y-134255601D01*
X106294449Y-134255595D01*
X106294448Y-134255591D01*
X106200805Y-134093398D01*
X106075479Y-133954211D01*
X105923954Y-133844121D01*
X105923950Y-133844119D01*
X105923947Y-133844117D01*
X105752853Y-133767942D01*
X105752851Y-133767941D01*
X105752848Y-133767940D01*
X105752847Y-133767940D01*
X105693003Y-133755220D01*
X105569648Y-133729000D01*
X105382352Y-133729000D01*
X105265532Y-133753830D01*
X105199152Y-133767940D01*
X105199146Y-133767942D01*
X105181816Y-133775658D01*
X105120965Y-133782052D01*
X105071547Y-133755220D01*
X104666188Y-133349861D01*
X104205862Y-132889535D01*
X104205859Y-132889533D01*
X104205858Y-132889532D01*
X104205857Y-132889531D01*
X104131642Y-132846683D01*
X104131644Y-132846683D01*
X104099521Y-132838076D01*
X104048853Y-132824500D01*
X104048851Y-132824500D01*
X99675835Y-132824500D01*
X99617644Y-132805593D01*
X99605831Y-132795504D01*
X97624245Y-130813918D01*
X95607262Y-128796935D01*
X95607259Y-128796933D01*
X95607258Y-128796932D01*
X95607257Y-128796931D01*
X95533042Y-128754083D01*
X95533044Y-128754083D01*
X95500921Y-128745476D01*
X95450253Y-128731900D01*
X95450251Y-128731900D01*
X93898300Y-128731900D01*
X93840109Y-128712993D01*
X93804145Y-128663493D01*
X93799300Y-128632900D01*
X93799300Y-128402653D01*
X93799298Y-128402641D01*
X93796511Y-128388631D01*
X93787667Y-128344169D01*
X93743352Y-128277848D01*
X93743348Y-128277845D01*
X93677033Y-128233534D01*
X93677031Y-128233533D01*
X93677028Y-128233532D01*
X93677027Y-128233532D01*
X93618558Y-128221901D01*
X93618548Y-128221900D01*
X90065800Y-128221900D01*
X90007609Y-128202993D01*
X89971645Y-128153493D01*
X89966800Y-128122900D01*
X89966800Y-127206400D01*
X89985707Y-127148209D01*
X90035207Y-127112245D01*
X90065800Y-127107400D01*
X91898799Y-127107400D01*
X91898800Y-127107399D01*
X91898800Y-126332401D01*
X92098800Y-126332401D01*
X92098800Y-127107399D01*
X92098801Y-127107400D01*
X94118497Y-127107400D01*
X94118500Y-127107399D01*
X94176836Y-127095796D01*
X94242989Y-127051593D01*
X94242993Y-127051589D01*
X94287196Y-126985436D01*
X94298799Y-126927100D01*
X94298800Y-126927097D01*
X94298800Y-126332401D01*
X94298799Y-126332400D01*
X92098801Y-126332400D01*
X92098800Y-126332401D01*
X91898800Y-126332401D01*
X91898800Y-125357401D01*
X92098800Y-125357401D01*
X92098800Y-126132399D01*
X92098801Y-126132400D01*
X94298799Y-126132400D01*
X94298800Y-126132399D01*
X94298800Y-125537702D01*
X94298799Y-125537699D01*
X94287196Y-125479363D01*
X94242993Y-125413210D01*
X94242989Y-125413206D01*
X94176836Y-125369003D01*
X94118500Y-125357400D01*
X92098801Y-125357400D01*
X92098800Y-125357401D01*
X91898800Y-125357401D01*
X91898799Y-125357400D01*
X90065800Y-125357400D01*
X90007609Y-125338493D01*
X89971645Y-125288993D01*
X89966800Y-125258400D01*
X89966800Y-121514996D01*
X91119417Y-121514996D01*
X91119417Y-121515003D01*
X91139698Y-121720929D01*
X91139699Y-121720934D01*
X91199768Y-121918954D01*
X91297316Y-122101452D01*
X91428585Y-122261404D01*
X91428590Y-122261410D01*
X91428595Y-122261414D01*
X91588547Y-122392683D01*
X91588548Y-122392683D01*
X91588550Y-122392685D01*
X91771046Y-122490232D01*
X91908997Y-122532078D01*
X91969065Y-122550300D01*
X91969070Y-122550301D01*
X92174997Y-122570583D01*
X92175000Y-122570583D01*
X92175003Y-122570583D01*
X92380929Y-122550301D01*
X92380934Y-122550300D01*
X92416105Y-122539631D01*
X92578954Y-122490232D01*
X92761450Y-122392685D01*
X92921410Y-122261410D01*
X93052685Y-122101450D01*
X93150232Y-121918954D01*
X93150231Y-121918954D01*
X93151367Y-121916831D01*
X93195473Y-121874425D01*
X93238677Y-121864500D01*
X99569965Y-121864500D01*
X99628156Y-121883407D01*
X99639969Y-121893496D01*
X99721504Y-121975031D01*
X99749281Y-122029548D01*
X99750500Y-122045035D01*
X99750500Y-130525309D01*
X99731593Y-130583500D01*
X99691768Y-130615749D01*
X99628044Y-130644121D01*
X99628042Y-130644122D01*
X99476524Y-130754208D01*
X99351194Y-130893398D01*
X99257551Y-131055591D01*
X99257549Y-131055596D01*
X99199670Y-131233728D01*
X99180092Y-131420000D01*
X99196526Y-131576362D01*
X99199670Y-131606270D01*
X99257547Y-131784399D01*
X99257548Y-131784401D01*
X99257549Y-131784403D01*
X99257551Y-131784408D01*
X99351194Y-131946601D01*
X99351195Y-131946602D01*
X99476521Y-132085789D01*
X99628046Y-132195879D01*
X99628050Y-132195881D01*
X99628052Y-132195882D01*
X99684677Y-132221093D01*
X99799149Y-132272059D01*
X99982352Y-132311000D01*
X99982355Y-132311000D01*
X100169645Y-132311000D01*
X100169648Y-132311000D01*
X100352851Y-132272059D01*
X100523954Y-132195879D01*
X100675479Y-132085789D01*
X100800805Y-131946602D01*
X100894453Y-131784399D01*
X100952330Y-131606270D01*
X100971908Y-131420000D01*
X102380092Y-131420000D01*
X102396526Y-131576362D01*
X102399670Y-131606270D01*
X102457547Y-131784399D01*
X102457548Y-131784401D01*
X102457549Y-131784403D01*
X102457551Y-131784408D01*
X102551194Y-131946601D01*
X102551195Y-131946602D01*
X102676521Y-132085789D01*
X102828046Y-132195879D01*
X102828050Y-132195881D01*
X102828052Y-132195882D01*
X102884677Y-132221093D01*
X102999149Y-132272059D01*
X103182352Y-132311000D01*
X103182355Y-132311000D01*
X103369645Y-132311000D01*
X103369648Y-132311000D01*
X103552851Y-132272059D01*
X103723954Y-132195879D01*
X103875479Y-132085789D01*
X104000805Y-131946602D01*
X104094453Y-131784399D01*
X104152330Y-131606270D01*
X104171908Y-131420000D01*
X104580092Y-131420000D01*
X104596526Y-131576362D01*
X104599670Y-131606270D01*
X104657547Y-131784399D01*
X104657548Y-131784401D01*
X104657549Y-131784403D01*
X104657551Y-131784408D01*
X104751194Y-131946601D01*
X104751195Y-131946602D01*
X104876521Y-132085789D01*
X105028046Y-132195879D01*
X105028050Y-132195881D01*
X105028052Y-132195882D01*
X105084677Y-132221093D01*
X105199149Y-132272059D01*
X105382352Y-132311000D01*
X105382355Y-132311000D01*
X105569645Y-132311000D01*
X105569648Y-132311000D01*
X105752851Y-132272059D01*
X105923954Y-132195879D01*
X106075479Y-132085789D01*
X106200805Y-131946602D01*
X106294453Y-131784399D01*
X106352330Y-131606270D01*
X106371908Y-131420000D01*
X106780092Y-131420000D01*
X106796526Y-131576362D01*
X106799670Y-131606270D01*
X106857547Y-131784399D01*
X106857548Y-131784401D01*
X106857549Y-131784403D01*
X106857551Y-131784408D01*
X106951194Y-131946601D01*
X106951195Y-131946602D01*
X107076521Y-132085789D01*
X107228046Y-132195879D01*
X107228050Y-132195881D01*
X107228052Y-132195882D01*
X107284677Y-132221093D01*
X107399149Y-132272059D01*
X107582352Y-132311000D01*
X107582355Y-132311000D01*
X107769645Y-132311000D01*
X107769648Y-132311000D01*
X107952851Y-132272059D01*
X108123954Y-132195879D01*
X108275479Y-132085789D01*
X108400805Y-131946602D01*
X108494453Y-131784399D01*
X108552330Y-131606270D01*
X108571908Y-131420000D01*
X108552330Y-131233730D01*
X108494453Y-131055601D01*
X108494449Y-131055595D01*
X108494448Y-131055591D01*
X108400805Y-130893398D01*
X108388244Y-130879448D01*
X108275479Y-130754211D01*
X108123954Y-130644121D01*
X108123950Y-130644119D01*
X108123947Y-130644117D01*
X107971728Y-130576345D01*
X107952851Y-130567941D01*
X107952848Y-130567940D01*
X107952847Y-130567940D01*
X107918001Y-130560533D01*
X107769648Y-130529000D01*
X107582352Y-130529000D01*
X107465532Y-130553830D01*
X107399152Y-130567940D01*
X107399146Y-130567942D01*
X107228052Y-130644117D01*
X107228049Y-130644119D01*
X107228046Y-130644120D01*
X107228046Y-130644121D01*
X107076525Y-130754208D01*
X107076521Y-130754211D01*
X106951194Y-130893398D01*
X106857551Y-131055591D01*
X106857549Y-131055596D01*
X106799670Y-131233728D01*
X106780092Y-131420000D01*
X106371908Y-131420000D01*
X106352330Y-131233730D01*
X106294453Y-131055601D01*
X106294449Y-131055595D01*
X106294448Y-131055591D01*
X106200805Y-130893398D01*
X106188244Y-130879448D01*
X106075479Y-130754211D01*
X105923954Y-130644121D01*
X105923950Y-130644119D01*
X105923947Y-130644117D01*
X105771728Y-130576345D01*
X105752851Y-130567941D01*
X105752848Y-130567940D01*
X105752847Y-130567940D01*
X105718001Y-130560533D01*
X105569648Y-130529000D01*
X105382352Y-130529000D01*
X105265532Y-130553830D01*
X105199152Y-130567940D01*
X105199146Y-130567942D01*
X105028052Y-130644117D01*
X105028049Y-130644119D01*
X105028046Y-130644120D01*
X105028046Y-130644121D01*
X104876525Y-130754208D01*
X104876521Y-130754211D01*
X104751194Y-130893398D01*
X104657551Y-131055591D01*
X104657549Y-131055596D01*
X104599670Y-131233728D01*
X104580092Y-131420000D01*
X104171908Y-131420000D01*
X104152330Y-131233730D01*
X104094453Y-131055601D01*
X104094449Y-131055595D01*
X104094448Y-131055591D01*
X104000805Y-130893398D01*
X103988244Y-130879448D01*
X103875479Y-130754211D01*
X103723954Y-130644121D01*
X103723950Y-130644119D01*
X103723947Y-130644117D01*
X103571728Y-130576345D01*
X103552851Y-130567941D01*
X103552848Y-130567940D01*
X103552847Y-130567940D01*
X103518001Y-130560533D01*
X103369648Y-130529000D01*
X103182352Y-130529000D01*
X103065532Y-130553830D01*
X102999152Y-130567940D01*
X102999146Y-130567942D01*
X102828052Y-130644117D01*
X102828049Y-130644119D01*
X102828046Y-130644120D01*
X102828046Y-130644121D01*
X102676525Y-130754208D01*
X102676521Y-130754211D01*
X102551194Y-130893398D01*
X102457551Y-131055591D01*
X102457549Y-131055596D01*
X102399670Y-131233728D01*
X102380092Y-131420000D01*
X100971908Y-131420000D01*
X100952330Y-131233730D01*
X100894453Y-131055601D01*
X100894449Y-131055595D01*
X100894448Y-131055591D01*
X100800805Y-130893398D01*
X100788244Y-130879448D01*
X100675479Y-130754211D01*
X100634586Y-130724500D01*
X100523957Y-130644122D01*
X100523955Y-130644121D01*
X100460232Y-130615749D01*
X100414763Y-130574808D01*
X100401500Y-130525309D01*
X100401500Y-126999999D01*
X104016918Y-126999999D01*
X104016918Y-127000000D01*
X104037555Y-127156758D01*
X104037557Y-127156766D01*
X104098062Y-127302838D01*
X104098062Y-127302839D01*
X104194313Y-127428276D01*
X104194318Y-127428282D01*
X104319759Y-127524536D01*
X104465838Y-127585044D01*
X104583409Y-127600522D01*
X104622599Y-127605682D01*
X104622600Y-127605682D01*
X104622601Y-127605682D01*
X104653952Y-127601554D01*
X104779362Y-127585044D01*
X104925441Y-127524536D01*
X105050882Y-127428282D01*
X105100028Y-127364232D01*
X105150452Y-127329577D01*
X105178570Y-127325500D01*
X106443451Y-127325500D01*
X106443453Y-127325500D01*
X106526239Y-127303318D01*
X106526241Y-127303316D01*
X106526243Y-127303316D01*
X106600457Y-127260468D01*
X106600457Y-127260467D01*
X106600462Y-127260465D01*
X106965865Y-126895062D01*
X107008717Y-126820839D01*
X107008718Y-126820838D01*
X107030900Y-126738053D01*
X107030900Y-124959260D01*
X107049807Y-124901069D01*
X107069631Y-124880719D01*
X107159082Y-124812082D01*
X107255336Y-124686641D01*
X107315844Y-124540562D01*
X107336482Y-124383800D01*
X107315844Y-124227038D01*
X107255337Y-124080961D01*
X107255337Y-124080960D01*
X107159086Y-123955523D01*
X107159085Y-123955522D01*
X107159082Y-123955518D01*
X107159077Y-123955514D01*
X107159076Y-123955513D01*
X107069633Y-123886881D01*
X107034977Y-123836456D01*
X107030900Y-123808339D01*
X107030900Y-121054435D01*
X107049807Y-120996244D01*
X107059896Y-120984431D01*
X107189831Y-120854496D01*
X107244348Y-120826719D01*
X107259835Y-120825500D01*
X108714830Y-120825500D01*
X108773021Y-120844407D01*
X108793370Y-120864231D01*
X108842518Y-120928282D01*
X108967959Y-121024536D01*
X109114038Y-121085044D01*
X109231609Y-121100522D01*
X109270799Y-121105682D01*
X109270800Y-121105682D01*
X109270801Y-121105682D01*
X109302152Y-121101554D01*
X109427562Y-121085044D01*
X109573641Y-121024536D01*
X109699082Y-120928282D01*
X109795336Y-120802841D01*
X109855844Y-120656762D01*
X109876482Y-120500000D01*
X109873809Y-120479700D01*
X109855844Y-120343241D01*
X109855844Y-120343238D01*
X109795337Y-120197161D01*
X109795337Y-120197160D01*
X109699086Y-120071723D01*
X109699085Y-120071722D01*
X109699082Y-120071718D01*
X109699077Y-120071714D01*
X109699076Y-120071713D01*
X109651806Y-120035442D01*
X109617150Y-119985018D01*
X109618751Y-119923854D01*
X109655998Y-119875312D01*
X109712073Y-119857900D01*
X110263365Y-119857900D01*
X110321556Y-119876807D01*
X110333369Y-119886896D01*
X110389504Y-119943031D01*
X110417281Y-119997548D01*
X110418500Y-120013035D01*
X110418500Y-121546947D01*
X110418500Y-135593147D01*
X110418500Y-135678853D01*
X110433071Y-135733233D01*
X110440683Y-135761643D01*
X110483531Y-135835857D01*
X110483533Y-135835859D01*
X110483535Y-135835862D01*
X110798138Y-136150465D01*
X110798140Y-136150466D01*
X110798142Y-136150468D01*
X110872357Y-136193316D01*
X110872355Y-136193316D01*
X110872359Y-136193317D01*
X110872361Y-136193318D01*
X110955147Y-136215500D01*
X111040853Y-136215500D01*
X111305630Y-136215500D01*
X111363821Y-136234407D01*
X111384170Y-136254231D01*
X111433318Y-136318282D01*
X111558759Y-136414536D01*
X111704838Y-136475044D01*
X111822409Y-136490522D01*
X111861599Y-136495682D01*
X111861600Y-136495682D01*
X111861601Y-136495682D01*
X111892952Y-136491554D01*
X112018362Y-136475044D01*
X112164441Y-136414536D01*
X112289882Y-136318282D01*
X112339028Y-136254232D01*
X112389452Y-136219577D01*
X112417570Y-136215500D01*
X134318030Y-136215500D01*
X134376221Y-136234407D01*
X134396570Y-136254231D01*
X134445718Y-136318282D01*
X134571159Y-136414536D01*
X134717238Y-136475044D01*
X134834809Y-136490522D01*
X134873999Y-136495682D01*
X134874000Y-136495682D01*
X134874001Y-136495682D01*
X134905352Y-136491554D01*
X135030762Y-136475044D01*
X135176841Y-136414536D01*
X135302282Y-136318282D01*
X135398536Y-136192841D01*
X135459044Y-136046762D01*
X135479682Y-135890000D01*
X135459044Y-135733238D01*
X135398537Y-135587161D01*
X135398537Y-135587160D01*
X135302286Y-135461723D01*
X135302285Y-135461722D01*
X135302282Y-135461718D01*
X135302277Y-135461714D01*
X135302276Y-135461713D01*
X135176838Y-135365462D01*
X135030766Y-135304957D01*
X135030758Y-135304955D01*
X134874001Y-135284318D01*
X134873999Y-135284318D01*
X134717241Y-135304955D01*
X134717233Y-135304957D01*
X134571161Y-135365462D01*
X134571160Y-135365462D01*
X134445723Y-135461713D01*
X134445714Y-135461722D01*
X134396572Y-135525767D01*
X134346148Y-135560423D01*
X134318030Y-135564500D01*
X112417570Y-135564500D01*
X112359379Y-135545593D01*
X112339028Y-135525767D01*
X112289885Y-135461722D01*
X112289882Y-135461718D01*
X112289877Y-135461714D01*
X112289876Y-135461713D01*
X112164438Y-135365462D01*
X112018366Y-135304957D01*
X112018358Y-135304955D01*
X111861601Y-135284318D01*
X111861599Y-135284318D01*
X111704841Y-135304955D01*
X111704833Y-135304957D01*
X111558761Y-135365462D01*
X111558760Y-135365462D01*
X111433323Y-135461713D01*
X111433314Y-135461722D01*
X111384172Y-135525767D01*
X111333748Y-135560423D01*
X111305630Y-135564500D01*
X111173835Y-135564500D01*
X111115644Y-135545593D01*
X111103831Y-135535504D01*
X111098496Y-135530169D01*
X111070719Y-135475652D01*
X111069500Y-135460165D01*
X111069500Y-131444999D01*
X114202318Y-131444999D01*
X114202318Y-131445000D01*
X114222955Y-131601758D01*
X114222957Y-131601766D01*
X114283462Y-131747838D01*
X114283462Y-131747839D01*
X114360223Y-131847876D01*
X114379718Y-131873282D01*
X114505159Y-131969536D01*
X114505160Y-131969536D01*
X114505161Y-131969537D01*
X114651233Y-132030042D01*
X114651238Y-132030044D01*
X114768809Y-132045522D01*
X114807999Y-132050682D01*
X114808000Y-132050682D01*
X114808001Y-132050682D01*
X114839352Y-132046554D01*
X114964762Y-132030044D01*
X115110841Y-131969536D01*
X115236282Y-131873282D01*
X115285428Y-131809232D01*
X115335852Y-131774577D01*
X115363970Y-131770500D01*
X133143720Y-131770500D01*
X133201911Y-131789407D01*
X133222257Y-131809228D01*
X133251918Y-131847882D01*
X133377359Y-131944136D01*
X133377360Y-131944136D01*
X133377361Y-131944137D01*
X133523433Y-132004642D01*
X133523438Y-132004644D01*
X133641009Y-132020122D01*
X133680199Y-132025282D01*
X133680200Y-132025282D01*
X133680201Y-132025282D01*
X133711552Y-132021154D01*
X133836962Y-132004644D01*
X133983041Y-131944136D01*
X134108482Y-131847882D01*
X134204736Y-131722441D01*
X134265244Y-131576362D01*
X134285882Y-131419600D01*
X134265244Y-131262838D01*
X134215258Y-131142161D01*
X134204737Y-131116761D01*
X134204737Y-131116760D01*
X134108486Y-130991323D01*
X134108485Y-130991322D01*
X134108482Y-130991318D01*
X134108477Y-130991314D01*
X134108476Y-130991313D01*
X133983038Y-130895062D01*
X133836966Y-130834557D01*
X133836958Y-130834555D01*
X133680201Y-130813918D01*
X133680199Y-130813918D01*
X133523441Y-130834555D01*
X133523433Y-130834557D01*
X133377361Y-130895062D01*
X133377360Y-130895062D01*
X133251923Y-130991313D01*
X133251913Y-130991323D01*
X133183281Y-131080767D01*
X133132856Y-131115423D01*
X133104739Y-131119500D01*
X115363970Y-131119500D01*
X115305779Y-131100593D01*
X115285428Y-131080767D01*
X115236285Y-131016722D01*
X115236282Y-131016718D01*
X115236277Y-131016714D01*
X115236276Y-131016713D01*
X115143815Y-130945766D01*
X115110841Y-130920464D01*
X115110840Y-130920463D01*
X115110838Y-130920462D01*
X114964766Y-130859957D01*
X114964758Y-130859955D01*
X114808001Y-130839318D01*
X114807999Y-130839318D01*
X114651241Y-130859955D01*
X114651233Y-130859957D01*
X114505161Y-130920462D01*
X114505160Y-130920462D01*
X114379723Y-131016713D01*
X114379713Y-131016723D01*
X114283462Y-131142160D01*
X114283462Y-131142161D01*
X114222957Y-131288233D01*
X114222955Y-131288241D01*
X114202318Y-131444999D01*
X111069500Y-131444999D01*
X111069500Y-125094999D01*
X113999118Y-125094999D01*
X113999118Y-125095000D01*
X114019755Y-125251758D01*
X114019757Y-125251766D01*
X114080262Y-125397838D01*
X114080262Y-125397839D01*
X114176513Y-125523276D01*
X114176518Y-125523282D01*
X114176522Y-125523285D01*
X114176523Y-125523286D01*
X114205882Y-125545813D01*
X114301959Y-125619536D01*
X114301960Y-125619536D01*
X114301961Y-125619537D01*
X114360527Y-125643796D01*
X114407053Y-125683532D01*
X114421337Y-125743027D01*
X114397922Y-125799555D01*
X114360529Y-125826723D01*
X114327363Y-125840461D01*
X114327360Y-125840462D01*
X114201923Y-125936713D01*
X114201913Y-125936723D01*
X114105662Y-126062160D01*
X114105662Y-126062161D01*
X114045157Y-126208233D01*
X114045155Y-126208241D01*
X114024518Y-126364999D01*
X114024518Y-126365000D01*
X114045155Y-126521758D01*
X114045157Y-126521766D01*
X114105662Y-126667838D01*
X114105662Y-126667839D01*
X114163909Y-126743748D01*
X114201918Y-126793282D01*
X114201922Y-126793285D01*
X114201923Y-126793286D01*
X114213583Y-126802233D01*
X114327359Y-126889536D01*
X114340698Y-126895061D01*
X114373228Y-126908536D01*
X114419754Y-126948273D01*
X114434037Y-127007768D01*
X114410622Y-127064296D01*
X114373228Y-127091464D01*
X114327360Y-127110463D01*
X114201923Y-127206713D01*
X114201913Y-127206723D01*
X114105662Y-127332160D01*
X114105662Y-127332161D01*
X114045157Y-127478233D01*
X114045155Y-127478241D01*
X114024518Y-127634999D01*
X114024518Y-127635000D01*
X114045155Y-127791758D01*
X114045157Y-127791766D01*
X114105662Y-127937838D01*
X114105662Y-127937839D01*
X114201913Y-128063276D01*
X114201918Y-128063282D01*
X114327359Y-128159536D01*
X114473438Y-128220044D01*
X114591009Y-128235522D01*
X114630199Y-128240682D01*
X114630200Y-128240682D01*
X114630201Y-128240682D01*
X114661552Y-128236554D01*
X114786962Y-128220044D01*
X114933041Y-128159536D01*
X115058482Y-128063282D01*
X115107628Y-127999232D01*
X115158052Y-127964577D01*
X115186170Y-127960500D01*
X136985030Y-127960500D01*
X137043221Y-127979407D01*
X137063570Y-127999231D01*
X137112718Y-128063282D01*
X137238159Y-128159536D01*
X137384238Y-128220044D01*
X137501809Y-128235522D01*
X137540999Y-128240682D01*
X137541000Y-128240682D01*
X137541001Y-128240682D01*
X137572352Y-128236554D01*
X137697762Y-128220044D01*
X137843841Y-128159536D01*
X137969282Y-128063282D01*
X138018428Y-127999232D01*
X138068852Y-127964577D01*
X138096970Y-127960500D01*
X142282851Y-127960500D01*
X142282853Y-127960500D01*
X142365639Y-127938318D01*
X142365641Y-127938316D01*
X142365643Y-127938316D01*
X142439857Y-127895468D01*
X142439857Y-127895467D01*
X142439862Y-127895465D01*
X143004859Y-127330466D01*
X143004862Y-127330465D01*
X143065465Y-127269862D01*
X143108318Y-127195638D01*
X143130501Y-127112853D01*
X143130501Y-127027147D01*
X143130501Y-127021085D01*
X143130500Y-127021067D01*
X143130500Y-120142664D01*
X143149407Y-120084473D01*
X143189745Y-120052678D01*
X143189664Y-120052525D01*
X143190522Y-120052066D01*
X143191629Y-120051194D01*
X143193941Y-120050235D01*
X143193954Y-120050232D01*
X143376450Y-119952685D01*
X143536410Y-119821410D01*
X143667685Y-119661450D01*
X143765232Y-119478954D01*
X143825300Y-119280934D01*
X143825301Y-119280929D01*
X143845583Y-119075000D01*
X143845583Y-119074996D01*
X143825301Y-118869070D01*
X143825300Y-118869065D01*
X143766401Y-118674901D01*
X143765232Y-118671046D01*
X143667685Y-118488550D01*
X143536410Y-118328590D01*
X143536404Y-118328585D01*
X143386179Y-118205299D01*
X144280000Y-118205299D01*
X144280000Y-118974999D01*
X144280001Y-118975000D01*
X144839157Y-118975000D01*
X144830000Y-119009174D01*
X144830000Y-119140826D01*
X144839157Y-119175000D01*
X144280001Y-119175000D01*
X144280000Y-119175001D01*
X144280000Y-119944700D01*
X144291603Y-120003036D01*
X144335806Y-120069189D01*
X144335810Y-120069193D01*
X144401963Y-120113396D01*
X144460299Y-120124999D01*
X144460303Y-120125000D01*
X145229999Y-120125000D01*
X145230000Y-120124999D01*
X145230000Y-119565842D01*
X145264174Y-119575000D01*
X145395826Y-119575000D01*
X145430000Y-119565842D01*
X145430000Y-120124999D01*
X145430001Y-120125000D01*
X146199697Y-120125000D01*
X146199700Y-120124999D01*
X146258036Y-120113396D01*
X146324189Y-120069193D01*
X146324193Y-120069189D01*
X146368396Y-120003036D01*
X146379999Y-119944700D01*
X146380000Y-119944697D01*
X146380000Y-119175001D01*
X146379999Y-119175000D01*
X145820843Y-119175000D01*
X145830000Y-119140826D01*
X145830000Y-119009174D01*
X145820843Y-118975000D01*
X146379999Y-118975000D01*
X146380000Y-118974999D01*
X146380000Y-118205302D01*
X146379999Y-118205299D01*
X146368396Y-118146963D01*
X146324193Y-118080810D01*
X146324189Y-118080806D01*
X146258036Y-118036603D01*
X146199700Y-118025000D01*
X145430001Y-118025000D01*
X145430000Y-118025001D01*
X145430000Y-118584157D01*
X145395826Y-118575000D01*
X145264174Y-118575000D01*
X145230000Y-118584157D01*
X145230000Y-118025001D01*
X145229999Y-118025000D01*
X144460299Y-118025000D01*
X144401963Y-118036603D01*
X144335810Y-118080806D01*
X144335806Y-118080810D01*
X144291603Y-118146963D01*
X144280000Y-118205299D01*
X143386179Y-118205299D01*
X143376452Y-118197316D01*
X143193954Y-118099768D01*
X142995934Y-118039699D01*
X142995929Y-118039698D01*
X142790003Y-118019417D01*
X142789997Y-118019417D01*
X142584070Y-118039698D01*
X142584065Y-118039699D01*
X142386045Y-118099768D01*
X142203547Y-118197316D01*
X142043595Y-118328585D01*
X142043585Y-118328595D01*
X141912316Y-118488547D01*
X141814768Y-118671045D01*
X141754699Y-118869065D01*
X141754698Y-118869070D01*
X141734417Y-119074996D01*
X141734417Y-119075000D01*
X141754698Y-119280929D01*
X141754699Y-119280934D01*
X141814768Y-119478954D01*
X141912316Y-119661452D01*
X142021380Y-119794347D01*
X142043590Y-119821410D01*
X142043595Y-119821414D01*
X142203547Y-119952683D01*
X142203548Y-119952683D01*
X142203550Y-119952685D01*
X142386046Y-120050232D01*
X142409237Y-120057266D01*
X142459433Y-120092248D01*
X142479481Y-120150056D01*
X142479500Y-120152003D01*
X142479500Y-126894165D01*
X142460593Y-126952356D01*
X142450504Y-126964169D01*
X142134169Y-127280504D01*
X142079652Y-127308281D01*
X142064165Y-127309500D01*
X138096970Y-127309500D01*
X138038779Y-127290593D01*
X138018428Y-127270767D01*
X138017731Y-127269859D01*
X137969282Y-127206718D01*
X137969277Y-127206714D01*
X137969276Y-127206713D01*
X137843838Y-127110462D01*
X137797972Y-127091464D01*
X137751446Y-127051728D01*
X137737162Y-126992233D01*
X137760577Y-126935705D01*
X137797972Y-126908536D01*
X137830502Y-126895061D01*
X137843841Y-126889536D01*
X137969282Y-126793282D01*
X138018428Y-126729232D01*
X138068852Y-126694577D01*
X138096970Y-126690500D01*
X139742851Y-126690500D01*
X139742853Y-126690500D01*
X139825639Y-126668318D01*
X139825641Y-126668316D01*
X139825643Y-126668316D01*
X139899857Y-126625468D01*
X139899857Y-126625467D01*
X139899862Y-126625465D01*
X140464859Y-126060466D01*
X140464862Y-126060465D01*
X140525465Y-125999862D01*
X140568318Y-125925638D01*
X140590501Y-125842853D01*
X140590501Y-125757147D01*
X140590501Y-125751085D01*
X140590500Y-125751067D01*
X140590500Y-120142664D01*
X140609407Y-120084473D01*
X140649745Y-120052678D01*
X140649664Y-120052525D01*
X140650522Y-120052066D01*
X140651629Y-120051194D01*
X140653941Y-120050235D01*
X140653954Y-120050232D01*
X140836450Y-119952685D01*
X140996410Y-119821410D01*
X141127685Y-119661450D01*
X141225232Y-119478954D01*
X141285300Y-119280934D01*
X141285301Y-119280929D01*
X141305583Y-119075000D01*
X141305583Y-119074996D01*
X141285301Y-118869070D01*
X141285300Y-118869065D01*
X141226401Y-118674901D01*
X141225232Y-118671046D01*
X141127685Y-118488550D01*
X140996410Y-118328590D01*
X140996404Y-118328585D01*
X140836452Y-118197316D01*
X140653954Y-118099768D01*
X140455934Y-118039699D01*
X140455929Y-118039698D01*
X140250003Y-118019417D01*
X140249997Y-118019417D01*
X140044070Y-118039698D01*
X140044065Y-118039699D01*
X139846045Y-118099768D01*
X139663547Y-118197316D01*
X139503595Y-118328585D01*
X139503585Y-118328595D01*
X139372316Y-118488547D01*
X139274768Y-118671045D01*
X139214699Y-118869065D01*
X139214698Y-118869070D01*
X139194417Y-119074996D01*
X139194417Y-119075000D01*
X139214698Y-119280929D01*
X139214699Y-119280934D01*
X139274768Y-119478954D01*
X139372316Y-119661452D01*
X139481380Y-119794347D01*
X139503590Y-119821410D01*
X139503595Y-119821414D01*
X139663547Y-119952683D01*
X139663548Y-119952683D01*
X139663550Y-119952685D01*
X139846046Y-120050232D01*
X139869237Y-120057266D01*
X139919433Y-120092248D01*
X139939481Y-120150056D01*
X139939500Y-120152003D01*
X139939500Y-125624165D01*
X139920593Y-125682356D01*
X139910504Y-125694169D01*
X139594169Y-126010504D01*
X139539652Y-126038281D01*
X139524165Y-126039500D01*
X138096970Y-126039500D01*
X138038779Y-126020593D01*
X138018428Y-126000767D01*
X138017731Y-125999859D01*
X137969282Y-125936718D01*
X137969277Y-125936714D01*
X137969276Y-125936713D01*
X137915897Y-125895754D01*
X137843841Y-125840464D01*
X137843839Y-125840463D01*
X137785271Y-125816203D01*
X137738745Y-125776466D01*
X137724462Y-125716971D01*
X137747877Y-125660443D01*
X137785270Y-125633275D01*
X137818441Y-125619536D01*
X137943882Y-125523282D01*
X138040136Y-125397841D01*
X138100644Y-125251762D01*
X138121282Y-125095000D01*
X138100644Y-124938238D01*
X138093206Y-124920280D01*
X138058036Y-124835372D01*
X138050500Y-124797487D01*
X138050500Y-120142664D01*
X138069407Y-120084473D01*
X138109745Y-120052678D01*
X138109664Y-120052525D01*
X138110522Y-120052066D01*
X138111629Y-120051194D01*
X138113941Y-120050235D01*
X138113954Y-120050232D01*
X138296450Y-119952685D01*
X138456410Y-119821410D01*
X138587685Y-119661450D01*
X138685232Y-119478954D01*
X138745300Y-119280934D01*
X138745301Y-119280929D01*
X138765583Y-119075000D01*
X138765583Y-119074996D01*
X138745301Y-118869070D01*
X138745300Y-118869065D01*
X138686401Y-118674901D01*
X138685232Y-118671046D01*
X138587685Y-118488550D01*
X138456410Y-118328590D01*
X138456404Y-118328585D01*
X138296452Y-118197316D01*
X138113954Y-118099768D01*
X137915934Y-118039699D01*
X137915929Y-118039698D01*
X137710003Y-118019417D01*
X137709997Y-118019417D01*
X137504070Y-118039698D01*
X137504065Y-118039699D01*
X137306045Y-118099768D01*
X137123547Y-118197316D01*
X136963595Y-118328585D01*
X136963585Y-118328595D01*
X136832316Y-118488547D01*
X136734768Y-118671045D01*
X136674699Y-118869065D01*
X136674698Y-118869070D01*
X136654417Y-119074996D01*
X136654417Y-119075000D01*
X136674698Y-119280929D01*
X136674699Y-119280934D01*
X136734768Y-119478954D01*
X136832316Y-119661452D01*
X136941380Y-119794347D01*
X136963590Y-119821410D01*
X136963595Y-119821414D01*
X137123547Y-119952683D01*
X137123548Y-119952683D01*
X137123550Y-119952685D01*
X137306046Y-120050232D01*
X137329237Y-120057266D01*
X137379433Y-120092248D01*
X137399481Y-120150056D01*
X137399500Y-120152003D01*
X137399500Y-124426963D01*
X137380593Y-124485154D01*
X137338386Y-124518427D01*
X137212760Y-124570463D01*
X137087323Y-124666713D01*
X137087314Y-124666722D01*
X137038172Y-124730767D01*
X136987748Y-124765423D01*
X136959630Y-124769500D01*
X115160770Y-124769500D01*
X115102579Y-124750593D01*
X115082228Y-124730767D01*
X115033085Y-124666722D01*
X115033082Y-124666718D01*
X115033077Y-124666714D01*
X115033076Y-124666713D01*
X114907638Y-124570462D01*
X114761566Y-124509957D01*
X114761558Y-124509955D01*
X114604801Y-124489318D01*
X114604799Y-124489318D01*
X114448041Y-124509955D01*
X114448033Y-124509957D01*
X114301961Y-124570462D01*
X114301960Y-124570462D01*
X114176523Y-124666713D01*
X114176513Y-124666723D01*
X114080262Y-124792160D01*
X114080262Y-124792161D01*
X114019757Y-124938233D01*
X114019755Y-124938241D01*
X113999118Y-125094999D01*
X111069500Y-125094999D01*
X111069500Y-121988900D01*
X111088407Y-121930709D01*
X111137907Y-121894745D01*
X111168500Y-121889900D01*
X113453546Y-121889900D01*
X113511737Y-121908807D01*
X113547701Y-121958307D01*
X113548267Y-121960109D01*
X113550768Y-121968354D01*
X113550769Y-121968356D01*
X113648316Y-122150852D01*
X113739052Y-122261414D01*
X113779590Y-122310810D01*
X113779595Y-122310814D01*
X113939547Y-122442083D01*
X113939548Y-122442083D01*
X113939550Y-122442085D01*
X114122046Y-122539632D01*
X114259997Y-122581478D01*
X114320065Y-122599700D01*
X114320070Y-122599701D01*
X114525997Y-122619983D01*
X114526000Y-122619983D01*
X114526003Y-122619983D01*
X114731929Y-122599701D01*
X114731934Y-122599700D01*
X114929954Y-122539632D01*
X115112450Y-122442085D01*
X115272410Y-122310810D01*
X115403685Y-122150850D01*
X115501232Y-121968354D01*
X115561300Y-121770334D01*
X115561301Y-121770329D01*
X115581583Y-121564403D01*
X115581583Y-121564396D01*
X115561301Y-121358470D01*
X115561300Y-121358465D01*
X115525030Y-121238900D01*
X115501232Y-121160446D01*
X115403685Y-120977950D01*
X115363141Y-120928547D01*
X115272414Y-120817995D01*
X115272410Y-120817990D01*
X115253951Y-120802841D01*
X115112452Y-120686716D01*
X114929954Y-120589168D01*
X114731934Y-120529099D01*
X114731929Y-120529098D01*
X114526003Y-120508817D01*
X114525997Y-120508817D01*
X114320070Y-120529098D01*
X114320065Y-120529099D01*
X114122045Y-120589168D01*
X113939547Y-120686716D01*
X113779595Y-120817985D01*
X113779585Y-120817995D01*
X113648316Y-120977947D01*
X113550769Y-121160443D01*
X113550768Y-121160445D01*
X113550768Y-121160446D01*
X113548282Y-121168641D01*
X113513297Y-121218836D01*
X113455488Y-121238881D01*
X113453546Y-121238900D01*
X111168500Y-121238900D01*
X111110309Y-121219993D01*
X111074345Y-121170493D01*
X111069500Y-121139900D01*
X111069500Y-119794348D01*
X111069500Y-119794347D01*
X111047318Y-119711562D01*
X111004465Y-119637338D01*
X111004462Y-119637335D01*
X110943863Y-119576735D01*
X110639062Y-119271935D01*
X110639057Y-119271931D01*
X110564842Y-119229083D01*
X110564844Y-119229083D01*
X110521214Y-119217393D01*
X110482053Y-119206900D01*
X110482051Y-119206900D01*
X108556770Y-119206900D01*
X108498579Y-119187993D01*
X108478228Y-119168167D01*
X108478094Y-119167993D01*
X108429082Y-119104118D01*
X108429077Y-119104114D01*
X108429076Y-119104113D01*
X108303638Y-119007862D01*
X108157566Y-118947357D01*
X108157558Y-118947355D01*
X108000801Y-118926718D01*
X108000799Y-118926718D01*
X107844041Y-118947355D01*
X107844033Y-118947357D01*
X107697961Y-119007862D01*
X107697960Y-119007862D01*
X107572523Y-119104113D01*
X107572513Y-119104123D01*
X107476262Y-119229560D01*
X107476262Y-119229561D01*
X107415757Y-119375633D01*
X107415755Y-119375641D01*
X107395118Y-119532399D01*
X107395118Y-119532400D01*
X107415755Y-119689158D01*
X107415757Y-119689166D01*
X107476262Y-119835238D01*
X107476262Y-119835239D01*
X107572513Y-119960676D01*
X107572518Y-119960682D01*
X107572522Y-119960685D01*
X107572523Y-119960686D01*
X107619794Y-119996958D01*
X107654450Y-120047382D01*
X107652849Y-120108546D01*
X107615602Y-120157088D01*
X107559527Y-120174500D01*
X107126853Y-120174500D01*
X107041147Y-120174500D01*
X106990478Y-120188076D01*
X106958356Y-120196683D01*
X106884142Y-120239531D01*
X106444931Y-120678742D01*
X106402083Y-120752957D01*
X106402081Y-120752961D01*
X106391261Y-120793339D01*
X106391262Y-120793340D01*
X106379900Y-120835744D01*
X106379900Y-123847318D01*
X106360993Y-123905509D01*
X106341168Y-123925859D01*
X106302521Y-123955514D01*
X106302518Y-123955516D01*
X106206262Y-124080960D01*
X106206262Y-124080961D01*
X106145757Y-124227033D01*
X106145755Y-124227041D01*
X106125118Y-124383799D01*
X106125118Y-124383800D01*
X106145755Y-124540558D01*
X106145757Y-124540566D01*
X106206262Y-124686638D01*
X106206262Y-124686639D01*
X106302513Y-124812076D01*
X106302518Y-124812082D01*
X106341168Y-124841739D01*
X106375823Y-124892162D01*
X106379900Y-124920280D01*
X106379900Y-126519365D01*
X106360993Y-126577556D01*
X106350904Y-126589369D01*
X106294769Y-126645504D01*
X106240252Y-126673281D01*
X106224765Y-126674500D01*
X105178570Y-126674500D01*
X105120379Y-126655593D01*
X105100028Y-126635767D01*
X105092125Y-126625468D01*
X105050882Y-126571718D01*
X105050877Y-126571714D01*
X105050876Y-126571713D01*
X104925438Y-126475462D01*
X104779366Y-126414957D01*
X104779358Y-126414955D01*
X104622601Y-126394318D01*
X104622599Y-126394318D01*
X104465841Y-126414955D01*
X104465833Y-126414957D01*
X104319761Y-126475462D01*
X104319760Y-126475462D01*
X104194323Y-126571713D01*
X104194313Y-126571723D01*
X104098062Y-126697160D01*
X104098062Y-126697161D01*
X104037557Y-126843233D01*
X104037555Y-126843241D01*
X104016918Y-126999999D01*
X100401500Y-126999999D01*
X100401500Y-121826348D01*
X100386491Y-121770334D01*
X100379318Y-121743562D01*
X100336465Y-121669338D01*
X100336462Y-121669335D01*
X100275863Y-121608735D01*
X99945662Y-121278535D01*
X99945657Y-121278531D01*
X99871442Y-121235683D01*
X99871444Y-121235683D01*
X99839321Y-121227076D01*
X99788653Y-121213500D01*
X99788651Y-121213500D01*
X93254734Y-121213500D01*
X93196543Y-121194593D01*
X93160579Y-121145093D01*
X93159997Y-121143238D01*
X93150232Y-121111046D01*
X93052685Y-120928550D01*
X93052468Y-120928286D01*
X92921414Y-120768595D01*
X92921410Y-120768590D01*
X92821646Y-120686716D01*
X92761452Y-120637316D01*
X92578954Y-120539768D01*
X92380934Y-120479699D01*
X92380929Y-120479698D01*
X92175003Y-120459417D01*
X92174997Y-120459417D01*
X91969070Y-120479698D01*
X91969065Y-120479699D01*
X91771045Y-120539768D01*
X91588547Y-120637316D01*
X91428595Y-120768585D01*
X91428585Y-120768595D01*
X91297316Y-120928547D01*
X91199768Y-121111045D01*
X91139699Y-121309065D01*
X91139698Y-121309070D01*
X91119417Y-121514996D01*
X89966800Y-121514996D01*
X89966800Y-118105299D01*
X91125000Y-118105299D01*
X91125000Y-118874999D01*
X91125001Y-118875000D01*
X91684157Y-118875000D01*
X91675000Y-118909174D01*
X91675000Y-119040826D01*
X91684157Y-119075000D01*
X91125001Y-119075000D01*
X91125000Y-119075001D01*
X91125000Y-119844700D01*
X91136603Y-119903036D01*
X91180806Y-119969189D01*
X91180810Y-119969193D01*
X91246963Y-120013396D01*
X91305299Y-120024999D01*
X91305303Y-120025000D01*
X92074999Y-120025000D01*
X92075000Y-120024999D01*
X92075000Y-119465842D01*
X92109174Y-119475000D01*
X92240826Y-119475000D01*
X92275000Y-119465842D01*
X92275000Y-120024999D01*
X92275001Y-120025000D01*
X93044697Y-120025000D01*
X93044700Y-120024999D01*
X93103036Y-120013396D01*
X93169189Y-119969193D01*
X93169193Y-119969189D01*
X93213396Y-119903036D01*
X93224999Y-119844700D01*
X93225000Y-119844697D01*
X93225000Y-119075001D01*
X93224999Y-119075000D01*
X92665843Y-119075000D01*
X92675000Y-119040826D01*
X92675000Y-118909174D01*
X92665843Y-118875000D01*
X93224999Y-118875000D01*
X93225000Y-118874999D01*
X93225000Y-118154699D01*
X113476000Y-118154699D01*
X113476000Y-118924399D01*
X113476001Y-118924400D01*
X114035157Y-118924400D01*
X114026000Y-118958574D01*
X114026000Y-119090226D01*
X114035157Y-119124400D01*
X113476001Y-119124400D01*
X113476000Y-119124401D01*
X113476000Y-119894100D01*
X113487603Y-119952436D01*
X113531806Y-120018589D01*
X113531810Y-120018593D01*
X113597963Y-120062796D01*
X113656299Y-120074399D01*
X113656303Y-120074400D01*
X114425999Y-120074400D01*
X114426000Y-120074399D01*
X114426000Y-119515242D01*
X114460174Y-119524400D01*
X114591826Y-119524400D01*
X114626000Y-119515242D01*
X114626000Y-120074399D01*
X114626001Y-120074400D01*
X115395697Y-120074400D01*
X115395700Y-120074399D01*
X115454036Y-120062796D01*
X115520189Y-120018593D01*
X115520193Y-120018589D01*
X115564396Y-119952436D01*
X115575999Y-119894100D01*
X115576000Y-119894097D01*
X115576000Y-119124401D01*
X115575999Y-119124400D01*
X115016843Y-119124400D01*
X115026000Y-119090226D01*
X115026000Y-118958574D01*
X115016843Y-118924400D01*
X115575999Y-118924400D01*
X115576000Y-118924399D01*
X115576000Y-118154702D01*
X115575999Y-118154699D01*
X115564396Y-118096363D01*
X115520193Y-118030210D01*
X115520189Y-118030206D01*
X115454036Y-117986003D01*
X115395700Y-117974400D01*
X114626001Y-117974400D01*
X114626000Y-117974401D01*
X114626000Y-118533557D01*
X114591826Y-118524400D01*
X114460174Y-118524400D01*
X114426000Y-118533557D01*
X114426000Y-117974401D01*
X114425999Y-117974400D01*
X113656299Y-117974400D01*
X113597963Y-117986003D01*
X113531810Y-118030206D01*
X113531806Y-118030210D01*
X113487603Y-118096363D01*
X113476000Y-118154699D01*
X93225000Y-118154699D01*
X93225000Y-118105302D01*
X93224999Y-118105299D01*
X93213396Y-118046963D01*
X93169193Y-117980810D01*
X93169189Y-117980806D01*
X93103036Y-117936603D01*
X93044700Y-117925000D01*
X92275001Y-117925000D01*
X92275000Y-117925001D01*
X92275000Y-118484157D01*
X92240826Y-118475000D01*
X92109174Y-118475000D01*
X92075000Y-118484157D01*
X92075000Y-117925001D01*
X92074999Y-117925000D01*
X91305299Y-117925000D01*
X91246963Y-117936603D01*
X91180810Y-117980806D01*
X91180806Y-117980810D01*
X91136603Y-118046963D01*
X91125000Y-118105299D01*
X89966800Y-118105299D01*
X89966800Y-115796000D01*
X89985707Y-115737809D01*
X90035207Y-115701845D01*
X90065800Y-115697000D01*
X149253000Y-115697000D01*
X149311191Y-115715907D01*
G37*
G04 #@! TD.AperFunction*
M02*
