%TF.GenerationSoftware,KiCad,Pcbnew,8.0.5*%
%TF.CreationDate,2025-06-10T11:51:30+02:00*%
%TF.ProjectId,SDR_PreAmp_Filter,5344525f-5072-4654-916d-705f46696c74,rev?*%
%TF.SameCoordinates,Original*%
%TF.FileFunction,Drillmap*%
%TF.FilePolarity,Positive*%
%FSLAX45Y45*%
G04 Gerber Fmt 4.5, Leading zero omitted, Abs format (unit mm)*
G04 Created by KiCad (PCBNEW 8.0.5) date 2025-06-10 11:51:30*
%MOMM*%
%LPD*%
G01*
G04 APERTURE LIST*
%ADD10C,0.100000*%
%ADD11C,0.200000*%
G04 APERTURE END LIST*
D10*
X8994140Y-11569700D02*
X14935200Y-11569700D01*
X14935200Y-14311700D01*
X8994140Y-14311700D01*
X8994140Y-11569700D01*
D11*
X9249917Y-14628184D02*
X9249917Y-14428184D01*
X9249917Y-14428184D02*
X9297536Y-14428184D01*
X9297536Y-14428184D02*
X9326107Y-14437708D01*
X9326107Y-14437708D02*
X9345155Y-14456755D01*
X9345155Y-14456755D02*
X9354679Y-14475803D01*
X9354679Y-14475803D02*
X9364203Y-14513898D01*
X9364203Y-14513898D02*
X9364203Y-14542469D01*
X9364203Y-14542469D02*
X9354679Y-14580565D01*
X9354679Y-14580565D02*
X9345155Y-14599612D01*
X9345155Y-14599612D02*
X9326107Y-14618660D01*
X9326107Y-14618660D02*
X9297536Y-14628184D01*
X9297536Y-14628184D02*
X9249917Y-14628184D01*
X9449917Y-14628184D02*
X9449917Y-14494850D01*
X9449917Y-14532946D02*
X9459441Y-14513898D01*
X9459441Y-14513898D02*
X9468964Y-14504374D01*
X9468964Y-14504374D02*
X9488012Y-14494850D01*
X9488012Y-14494850D02*
X9507060Y-14494850D01*
X9573726Y-14628184D02*
X9573726Y-14494850D01*
X9573726Y-14428184D02*
X9564203Y-14437708D01*
X9564203Y-14437708D02*
X9573726Y-14447231D01*
X9573726Y-14447231D02*
X9583250Y-14437708D01*
X9583250Y-14437708D02*
X9573726Y-14428184D01*
X9573726Y-14428184D02*
X9573726Y-14447231D01*
X9697536Y-14628184D02*
X9678488Y-14618660D01*
X9678488Y-14618660D02*
X9668964Y-14599612D01*
X9668964Y-14599612D02*
X9668964Y-14428184D01*
X9802298Y-14628184D02*
X9783250Y-14618660D01*
X9783250Y-14618660D02*
X9773726Y-14599612D01*
X9773726Y-14599612D02*
X9773726Y-14428184D01*
X10030869Y-14628184D02*
X10030869Y-14428184D01*
X10030869Y-14428184D02*
X10097536Y-14571041D01*
X10097536Y-14571041D02*
X10164203Y-14428184D01*
X10164203Y-14428184D02*
X10164203Y-14628184D01*
X10345155Y-14628184D02*
X10345155Y-14523422D01*
X10345155Y-14523422D02*
X10335631Y-14504374D01*
X10335631Y-14504374D02*
X10316584Y-14494850D01*
X10316584Y-14494850D02*
X10278488Y-14494850D01*
X10278488Y-14494850D02*
X10259441Y-14504374D01*
X10345155Y-14618660D02*
X10326107Y-14628184D01*
X10326107Y-14628184D02*
X10278488Y-14628184D01*
X10278488Y-14628184D02*
X10259441Y-14618660D01*
X10259441Y-14618660D02*
X10249917Y-14599612D01*
X10249917Y-14599612D02*
X10249917Y-14580565D01*
X10249917Y-14580565D02*
X10259441Y-14561517D01*
X10259441Y-14561517D02*
X10278488Y-14551993D01*
X10278488Y-14551993D02*
X10326107Y-14551993D01*
X10326107Y-14551993D02*
X10345155Y-14542469D01*
X10440393Y-14494850D02*
X10440393Y-14694850D01*
X10440393Y-14504374D02*
X10459441Y-14494850D01*
X10459441Y-14494850D02*
X10497536Y-14494850D01*
X10497536Y-14494850D02*
X10516584Y-14504374D01*
X10516584Y-14504374D02*
X10526107Y-14513898D01*
X10526107Y-14513898D02*
X10535631Y-14532946D01*
X10535631Y-14532946D02*
X10535631Y-14590088D01*
X10535631Y-14590088D02*
X10526107Y-14609136D01*
X10526107Y-14609136D02*
X10516584Y-14618660D01*
X10516584Y-14618660D02*
X10497536Y-14628184D01*
X10497536Y-14628184D02*
X10459441Y-14628184D01*
X10459441Y-14628184D02*
X10440393Y-14618660D01*
X10621345Y-14609136D02*
X10630869Y-14618660D01*
X10630869Y-14618660D02*
X10621345Y-14628184D01*
X10621345Y-14628184D02*
X10611822Y-14618660D01*
X10611822Y-14618660D02*
X10621345Y-14609136D01*
X10621345Y-14609136D02*
X10621345Y-14628184D01*
X10621345Y-14504374D02*
X10630869Y-14513898D01*
X10630869Y-14513898D02*
X10621345Y-14523422D01*
X10621345Y-14523422D02*
X10611822Y-14513898D01*
X10611822Y-14513898D02*
X10621345Y-14504374D01*
X10621345Y-14504374D02*
X10621345Y-14523422D01*
M02*
