%TF.GenerationSoftware,KiCad,Pcbnew,8.0.5*%
%TF.CreationDate,2025-06-10T09:40:08+02:00*%
%TF.ProjectId,SDR_PreAmp_Filter,5344525f-5072-4654-916d-705f46696c74,rev?*%
%TF.SameCoordinates,Original*%
%TF.FileFunction,Drillmap*%
%TF.FilePolarity,Positive*%
%FSLAX45Y45*%
G04 Gerber Fmt 4.5, Leading zero omitted, Abs format (unit mm)*
G04 Created by KiCad (PCBNEW 8.0.5) date 2025-06-10 09:40:08*
%MOMM*%
%LPD*%
G01*
G04 APERTURE LIST*
%ADD10C,0.100000*%
%ADD11C,0.200000*%
%ADD12C,0.320000*%
G04 APERTURE END LIST*
D10*
X8994140Y-11569700D02*
X14935200Y-11569700D01*
X14935200Y-14311700D01*
X8994140Y-14311700D01*
X8994140Y-11569700D01*
D11*
D10*
X9387272Y-12859990D02*
X9394772Y-12867490D01*
X9394772Y-12859990D02*
X9387272Y-12867490D01*
X9387492Y-12943990D02*
X9394992Y-12951490D01*
X9394992Y-12943990D02*
X9387492Y-12951490D01*
X9413665Y-12859990D02*
X9421165Y-12867490D01*
X9421165Y-12859990D02*
X9413665Y-12867490D01*
X9413912Y-12943990D02*
X9421412Y-12951490D01*
X9421412Y-12943990D02*
X9413912Y-12951490D01*
X9440058Y-12859990D02*
X9447558Y-12867490D01*
X9447558Y-12859990D02*
X9440058Y-12867490D01*
X9440332Y-12943990D02*
X9447832Y-12951490D01*
X9447832Y-12943990D02*
X9440332Y-12951490D01*
X9466451Y-12859990D02*
X9473951Y-12867490D01*
X9473951Y-12859990D02*
X9466451Y-12867490D01*
X9466753Y-12943990D02*
X9474253Y-12951490D01*
X9474253Y-12943990D02*
X9466753Y-12951490D01*
X9492843Y-12859990D02*
X9500343Y-12867490D01*
X9500343Y-12859990D02*
X9492843Y-12867490D01*
X9493173Y-12943990D02*
X9500673Y-12951490D01*
X9500673Y-12943990D02*
X9493173Y-12951490D01*
X9519236Y-12859990D02*
X9526736Y-12867490D01*
X9526736Y-12859990D02*
X9519236Y-12867490D01*
X9519593Y-12943990D02*
X9527093Y-12951490D01*
X9527093Y-12943990D02*
X9519593Y-12951490D01*
X9537325Y-12961722D02*
X9544825Y-12969222D01*
X9544825Y-12961722D02*
X9537325Y-12969222D01*
X9545568Y-12860875D02*
X9553068Y-12868375D01*
X9553068Y-12860875D02*
X9545568Y-12868375D01*
X9545568Y-12860875D02*
X9553068Y-12868375D01*
X9553068Y-12860875D02*
X9545568Y-12868375D01*
X9555057Y-12979454D02*
X9562557Y-12986954D01*
X9562557Y-12979454D02*
X9555057Y-12986954D01*
X9567479Y-12873082D02*
X9574979Y-12880582D01*
X9574979Y-12873082D02*
X9567479Y-12880582D01*
X9572790Y-12997186D02*
X9580290Y-13004686D01*
X9580290Y-12997186D02*
X9572790Y-13004686D01*
X9585487Y-12891090D02*
X9592987Y-12898590D01*
X9592987Y-12891090D02*
X9585487Y-12898590D01*
X9590522Y-13014919D02*
X9598022Y-13022419D01*
X9598022Y-13014919D02*
X9590522Y-13022419D01*
X9603495Y-12909098D02*
X9610995Y-12916598D01*
X9610995Y-12909098D02*
X9603495Y-12916598D01*
X9608254Y-13032651D02*
X9615754Y-13040151D01*
X9615754Y-13032651D02*
X9608254Y-13040151D01*
X9621502Y-12927105D02*
X9629002Y-12934605D01*
X9629002Y-12927105D02*
X9621502Y-12934605D01*
X9625986Y-13050383D02*
X9633486Y-13057883D01*
X9633486Y-13050383D02*
X9625986Y-13057883D01*
X9639510Y-12945113D02*
X9647010Y-12952613D01*
X9647010Y-12945113D02*
X9639510Y-12952613D01*
X9643718Y-13068115D02*
X9651218Y-13075615D01*
X9651218Y-13068115D02*
X9643718Y-13075615D01*
X9657518Y-12963120D02*
X9665018Y-12970620D01*
X9665018Y-12963120D02*
X9657518Y-12970620D01*
X9661451Y-13085847D02*
X9668951Y-13093347D01*
X9668951Y-13085847D02*
X9661451Y-13093347D01*
X9675525Y-12981128D02*
X9683025Y-12988628D01*
X9683025Y-12981128D02*
X9675525Y-12988628D01*
X9679183Y-13103580D02*
X9686683Y-13111080D01*
X9686683Y-13103580D02*
X9679183Y-13111080D01*
X9693533Y-12999136D02*
X9701033Y-13006636D01*
X9701033Y-12999136D02*
X9693533Y-13006636D01*
X9696915Y-13121312D02*
X9704415Y-13128812D01*
X9704415Y-13121312D02*
X9696915Y-13128812D01*
X9711540Y-13017143D02*
X9719040Y-13024643D01*
X9719040Y-13017143D02*
X9711540Y-13024643D01*
X9714647Y-13139044D02*
X9722147Y-13146544D01*
X9722147Y-13139044D02*
X9714647Y-13146544D01*
X9729548Y-13035151D02*
X9737048Y-13042651D01*
X9737048Y-13035151D02*
X9729548Y-13042651D01*
X9732379Y-13156776D02*
X9739879Y-13164276D01*
X9739879Y-13156776D02*
X9732379Y-13164276D01*
X9747556Y-13053159D02*
X9755056Y-13060659D01*
X9755056Y-13053159D02*
X9747556Y-13060659D01*
X9750112Y-13174508D02*
X9757612Y-13182008D01*
X9757612Y-13174508D02*
X9750112Y-13182008D01*
X9765563Y-13071166D02*
X9773063Y-13078666D01*
X9773063Y-13071166D02*
X9765563Y-13078666D01*
X9767844Y-13192241D02*
X9775344Y-13199741D01*
X9775344Y-13192241D02*
X9767844Y-13199741D01*
X9783571Y-13089174D02*
X9791071Y-13096674D01*
X9791071Y-13089174D02*
X9783571Y-13096674D01*
X9785576Y-13209973D02*
X9793076Y-13217473D01*
X9793076Y-13209973D02*
X9785576Y-13217473D01*
X9801578Y-13107181D02*
X9809078Y-13114681D01*
X9809078Y-13107181D02*
X9801578Y-13114681D01*
X9803308Y-13227705D02*
X9810808Y-13235205D01*
X9810808Y-13227705D02*
X9803308Y-13235205D01*
X9819586Y-13125189D02*
X9827086Y-13132689D01*
X9827086Y-13125189D02*
X9819586Y-13132689D01*
X9821040Y-13245437D02*
X9828540Y-13252937D01*
X9828540Y-13245437D02*
X9821040Y-13252937D01*
X9837594Y-13143197D02*
X9845094Y-13150697D01*
X9845094Y-13143197D02*
X9837594Y-13150697D01*
X9838773Y-13263169D02*
X9846273Y-13270669D01*
X9846273Y-13263169D02*
X9838773Y-13270669D01*
X9855601Y-13161204D02*
X9863101Y-13168704D01*
X9863101Y-13161204D02*
X9855601Y-13168704D01*
X9856505Y-13280902D02*
X9864005Y-13288402D01*
X9864005Y-13280902D02*
X9856505Y-13288402D01*
X9873609Y-13179212D02*
X9881109Y-13186712D01*
X9881109Y-13179212D02*
X9873609Y-13186712D01*
X9874237Y-13298634D02*
X9881737Y-13306134D01*
X9881737Y-13298634D02*
X9874237Y-13306134D01*
X9891617Y-13197219D02*
X9899117Y-13204719D01*
X9899117Y-13197219D02*
X9891617Y-13204719D01*
X9891969Y-13316366D02*
X9899469Y-13323866D01*
X9899469Y-13316366D02*
X9891969Y-13323866D01*
X9909624Y-13215227D02*
X9917124Y-13222727D01*
X9917124Y-13215227D02*
X9909624Y-13222727D01*
X9927632Y-13233235D02*
X9935132Y-13240735D01*
X9935132Y-13233235D02*
X9927632Y-13240735D01*
X9945639Y-13251242D02*
X9953139Y-13258742D01*
X9953139Y-13251242D02*
X9945639Y-13258742D01*
X9963647Y-13269250D02*
X9971147Y-13276750D01*
X9971147Y-13269250D02*
X9963647Y-13276750D01*
X10038750Y-13353250D02*
X10046250Y-13360750D01*
X10046250Y-13353250D02*
X10038750Y-13360750D01*
X10043750Y-13269250D02*
X10051250Y-13276750D01*
X10051250Y-13269250D02*
X10043750Y-13276750D01*
X10064340Y-13353250D02*
X10071840Y-13360750D01*
X10071840Y-13353250D02*
X10064340Y-13360750D01*
X10067610Y-13269250D02*
X10075110Y-13276750D01*
X10075110Y-13269250D02*
X10067610Y-13276750D01*
X10089931Y-13353250D02*
X10097431Y-13360750D01*
X10097431Y-13353250D02*
X10089931Y-13360750D01*
X10093600Y-13269250D02*
X10101100Y-13276750D01*
X10101100Y-13269250D02*
X10093600Y-13276750D01*
X10115521Y-13353250D02*
X10123021Y-13360750D01*
X10123021Y-13353250D02*
X10115521Y-13360750D01*
X10116250Y-13269250D02*
X10123750Y-13276750D01*
X10123750Y-13269250D02*
X10116250Y-13276750D01*
X10197563Y-13269250D02*
X10205063Y-13276750D01*
X10205063Y-13269250D02*
X10197563Y-13276750D01*
X10200321Y-13353250D02*
X10207821Y-13360750D01*
X10207821Y-13353250D02*
X10200321Y-13360750D01*
X10223554Y-13269250D02*
X10231054Y-13276750D01*
X10231054Y-13269250D02*
X10223554Y-13276750D01*
X10225911Y-13353250D02*
X10233411Y-13360750D01*
X10233411Y-13353250D02*
X10225911Y-13360750D01*
X10249545Y-13269250D02*
X10257045Y-13276750D01*
X10257045Y-13269250D02*
X10249545Y-13276750D01*
X10251501Y-13353250D02*
X10259001Y-13360750D01*
X10259001Y-13353250D02*
X10251501Y-13360750D01*
X10275535Y-13269250D02*
X10283035Y-13276750D01*
X10283035Y-13269250D02*
X10275535Y-13276750D01*
X10277092Y-13353250D02*
X10284592Y-13360750D01*
X10284592Y-13353250D02*
X10277092Y-13360750D01*
X10301526Y-13269250D02*
X10309026Y-13276750D01*
X10309026Y-13269250D02*
X10301526Y-13276750D01*
X10302682Y-13353250D02*
X10310182Y-13360750D01*
X10310182Y-13353250D02*
X10302682Y-13360750D01*
X10327517Y-13269250D02*
X10335017Y-13276750D01*
X10335017Y-13269250D02*
X10327517Y-13276750D01*
X10328272Y-13353250D02*
X10335772Y-13360750D01*
X10335772Y-13353250D02*
X10328272Y-13360750D01*
X10353507Y-13269250D02*
X10361007Y-13276750D01*
X10361007Y-13269250D02*
X10353507Y-13276750D01*
X10353863Y-13353250D02*
X10361363Y-13360750D01*
X10361363Y-13353250D02*
X10353863Y-13360750D01*
X10379453Y-13353250D02*
X10386953Y-13360750D01*
X10386953Y-13353250D02*
X10379453Y-13360750D01*
X10379498Y-13269250D02*
X10386998Y-13276750D01*
X10386998Y-13269250D02*
X10379498Y-13276750D01*
X10398696Y-13372493D02*
X10406196Y-13379993D01*
X10406196Y-13372493D02*
X10398696Y-13379993D01*
X10405428Y-13270135D02*
X10412928Y-13277635D01*
X10412928Y-13270135D02*
X10405428Y-13277635D01*
X10405428Y-13270135D02*
X10412928Y-13277635D01*
X10412928Y-13270135D02*
X10405428Y-13277635D01*
X10417938Y-13391735D02*
X10425438Y-13399235D01*
X10425438Y-13391735D02*
X10417938Y-13399235D01*
X10426250Y-13281250D02*
X10433750Y-13288750D01*
X10433750Y-13281250D02*
X10426250Y-13288750D01*
X10433750Y-13408750D02*
X10441250Y-13416250D01*
X10441250Y-13408750D02*
X10433750Y-13416250D01*
X10443324Y-13298327D02*
X10450824Y-13305827D01*
X10450824Y-13298327D02*
X10443324Y-13305827D01*
X10451364Y-13425158D02*
X10458864Y-13432658D01*
X10458864Y-13425158D02*
X10451364Y-13432658D01*
X10461571Y-13316574D02*
X10469071Y-13324074D01*
X10469071Y-13316574D02*
X10461571Y-13324074D01*
X10479817Y-13334820D02*
X10487317Y-13342320D01*
X10487317Y-13334820D02*
X10479817Y-13342320D01*
X10494632Y-13350838D02*
X10502132Y-13358338D01*
X10502132Y-13350838D02*
X10494632Y-13358338D01*
X10511250Y-13366250D02*
X10518750Y-13373750D01*
X10518750Y-13366250D02*
X10511250Y-13373750D01*
X10721850Y-13244917D02*
X10729350Y-13252417D01*
X10729350Y-13244917D02*
X10721850Y-13252417D01*
X10721850Y-13271583D02*
X10729350Y-13279083D01*
X10729350Y-13271583D02*
X10721850Y-13279083D01*
X10721850Y-13298250D02*
X10729350Y-13305750D01*
X10729350Y-13298250D02*
X10721850Y-13305750D01*
X10721850Y-13324917D02*
X10729350Y-13332417D01*
X10729350Y-13324917D02*
X10721850Y-13332417D01*
X10721850Y-13351583D02*
X10729350Y-13359083D01*
X10729350Y-13351583D02*
X10721850Y-13359083D01*
X10805850Y-13244917D02*
X10813350Y-13252417D01*
X10813350Y-13244917D02*
X10805850Y-13252417D01*
X10805850Y-13271583D02*
X10813350Y-13279083D01*
X10813350Y-13271583D02*
X10805850Y-13279083D01*
X10805850Y-13298250D02*
X10813350Y-13305750D01*
X10813350Y-13298250D02*
X10805850Y-13305750D01*
X10805850Y-13324917D02*
X10813350Y-13332417D01*
X10813350Y-13324917D02*
X10805850Y-13332417D01*
X10805850Y-13351583D02*
X10813350Y-13359083D01*
X10813350Y-13351583D02*
X10805850Y-13359083D01*
X14194922Y-12861750D02*
X14202422Y-12869250D01*
X14202422Y-12861750D02*
X14194922Y-12869250D01*
X14194922Y-12911750D02*
X14202422Y-12919250D01*
X14202422Y-12911750D02*
X14194922Y-12919250D01*
X14220840Y-12861750D02*
X14228340Y-12869250D01*
X14228340Y-12861750D02*
X14220840Y-12869250D01*
X14220840Y-12911750D02*
X14228340Y-12919250D01*
X14228340Y-12911750D02*
X14220840Y-12919250D01*
X14246758Y-12861750D02*
X14254258Y-12869250D01*
X14254258Y-12861750D02*
X14246758Y-12869250D01*
X14246758Y-12911750D02*
X14254258Y-12919250D01*
X14254258Y-12911750D02*
X14246758Y-12919250D01*
X14272676Y-12861750D02*
X14280176Y-12869250D01*
X14280176Y-12861750D02*
X14272676Y-12869250D01*
X14272676Y-12911750D02*
X14280176Y-12919250D01*
X14280176Y-12911750D02*
X14272676Y-12919250D01*
X14298594Y-12861750D02*
X14306094Y-12869250D01*
X14306094Y-12861750D02*
X14298594Y-12869250D01*
X14298594Y-12911750D02*
X14306094Y-12919250D01*
X14306094Y-12911750D02*
X14298594Y-12919250D01*
X14324512Y-12861750D02*
X14332012Y-12869250D01*
X14332012Y-12861750D02*
X14324512Y-12869250D01*
X14324512Y-12911750D02*
X14332012Y-12919250D01*
X14332012Y-12911750D02*
X14324512Y-12919250D01*
X14350430Y-12861750D02*
X14357930Y-12869250D01*
X14357930Y-12861750D02*
X14350430Y-12869250D01*
X14350430Y-12911750D02*
X14357930Y-12919250D01*
X14357930Y-12911750D02*
X14350430Y-12919250D01*
X14376348Y-12861750D02*
X14383848Y-12869250D01*
X14383848Y-12861750D02*
X14376348Y-12869250D01*
X14376348Y-12911750D02*
X14383848Y-12919250D01*
X14383848Y-12911750D02*
X14376348Y-12919250D01*
X14402266Y-12861750D02*
X14409766Y-12869250D01*
X14409766Y-12861750D02*
X14402266Y-12869250D01*
X14402266Y-12911750D02*
X14409766Y-12919250D01*
X14409766Y-12911750D02*
X14402266Y-12919250D01*
X14428184Y-12861750D02*
X14435684Y-12869250D01*
X14435684Y-12861750D02*
X14428184Y-12869250D01*
X14428184Y-12911750D02*
X14435684Y-12919250D01*
X14435684Y-12911750D02*
X14428184Y-12919250D01*
X14454102Y-12861750D02*
X14461602Y-12869250D01*
X14461602Y-12861750D02*
X14454102Y-12869250D01*
X14454102Y-12911750D02*
X14461602Y-12919250D01*
X14461602Y-12911750D02*
X14454102Y-12919250D01*
X14480020Y-12861750D02*
X14487520Y-12869250D01*
X14487520Y-12861750D02*
X14480020Y-12869250D01*
X14480020Y-12911750D02*
X14487520Y-12919250D01*
X14487520Y-12911750D02*
X14480020Y-12919250D01*
X14505938Y-12861750D02*
X14513438Y-12869250D01*
X14513438Y-12861750D02*
X14505938Y-12869250D01*
X14505938Y-12911750D02*
X14513438Y-12919250D01*
X14513438Y-12911750D02*
X14505938Y-12919250D01*
X14531856Y-12861750D02*
X14539356Y-12869250D01*
X14539356Y-12861750D02*
X14531856Y-12869250D01*
X14531856Y-12911750D02*
X14539356Y-12919250D01*
X14539356Y-12911750D02*
X14531856Y-12919250D01*
X20000Y0D02*
G75*
G02*
X-20000Y0I-20000J0D01*
G01*
X-20000Y0D02*
G75*
G02*
X20000Y0I20000J0D01*
G01*
X20000Y0D02*
G75*
G02*
X-20000Y0I-20000J0D01*
G01*
X-20000Y0D02*
G75*
G02*
X20000Y0I20000J0D01*
G01*
X20000Y0D02*
G75*
G02*
X-20000Y0I-20000J0D01*
G01*
X-20000Y0D02*
G75*
G02*
X20000Y0I20000J0D01*
G01*
X20000Y0D02*
G75*
G02*
X-20000Y0I-20000J0D01*
G01*
X-20000Y0D02*
G75*
G02*
X20000Y0I20000J0D01*
G01*
X20000Y0D02*
G75*
G02*
X-20000Y0I-20000J0D01*
G01*
X-20000Y0D02*
G75*
G02*
X20000Y0I20000J0D01*
G01*
X9842500Y-13475000D02*
G75*
G02*
X9802500Y-13475000I-20000J0D01*
G01*
X9802500Y-13475000D02*
G75*
G02*
X9842500Y-13475000I20000J0D01*
G01*
X10110000Y-12820000D02*
G75*
G02*
X10070000Y-12820000I-20000J0D01*
G01*
X10070000Y-12820000D02*
G75*
G02*
X10110000Y-12820000I20000J0D01*
G01*
X10462500Y-12907500D02*
G75*
G02*
X10422500Y-12907500I-20000J0D01*
G01*
X10422500Y-12907500D02*
G75*
G02*
X10462500Y-12907500I20000J0D01*
G01*
X10482260Y-12700000D02*
G75*
G02*
X10442260Y-12700000I-20000J0D01*
G01*
X10442260Y-12700000D02*
G75*
G02*
X10482260Y-12700000I20000J0D01*
G01*
X10530000Y-12270000D02*
G75*
G02*
X10490000Y-12270000I-20000J0D01*
G01*
X10490000Y-12270000D02*
G75*
G02*
X10530000Y-12270000I20000J0D01*
G01*
X10632500Y-13300000D02*
G75*
G02*
X10592500Y-13300000I-20000J0D01*
G01*
X10592500Y-13300000D02*
G75*
G02*
X10632500Y-13300000I20000J0D01*
G01*
X10693080Y-12438380D02*
G75*
G02*
X10653080Y-12438380I-20000J0D01*
G01*
X10653080Y-12438380D02*
G75*
G02*
X10693080Y-12438380I20000J0D01*
G01*
X10820080Y-11953240D02*
G75*
G02*
X10780080Y-11953240I-20000J0D01*
G01*
X10780080Y-11953240D02*
G75*
G02*
X10820080Y-11953240I20000J0D01*
G01*
X10932500Y-12645000D02*
G75*
G02*
X10892500Y-12645000I-20000J0D01*
G01*
X10892500Y-12645000D02*
G75*
G02*
X10932500Y-12645000I20000J0D01*
G01*
X10947080Y-12050000D02*
G75*
G02*
X10907080Y-12050000I-20000J0D01*
G01*
X10907080Y-12050000D02*
G75*
G02*
X10947080Y-12050000I20000J0D01*
G01*
X10965000Y-13300000D02*
G75*
G02*
X10925000Y-13300000I-20000J0D01*
G01*
X10925000Y-13300000D02*
G75*
G02*
X10965000Y-13300000I20000J0D01*
G01*
X11206160Y-13589000D02*
G75*
G02*
X11166160Y-13589000I-20000J0D01*
G01*
X11166160Y-13589000D02*
G75*
G02*
X11206160Y-13589000I20000J0D01*
G01*
X11480480Y-12509500D02*
G75*
G02*
X11440480Y-12509500I-20000J0D01*
G01*
X11440480Y-12509500D02*
G75*
G02*
X11480480Y-12509500I20000J0D01*
G01*
X11483020Y-12636500D02*
G75*
G02*
X11443020Y-12636500I-20000J0D01*
G01*
X11443020Y-12636500D02*
G75*
G02*
X11483020Y-12636500I20000J0D01*
G01*
X11483020Y-12763500D02*
G75*
G02*
X11443020Y-12763500I-20000J0D01*
G01*
X11443020Y-12763500D02*
G75*
G02*
X11483020Y-12763500I20000J0D01*
G01*
X11500800Y-13144500D02*
G75*
G02*
X11460800Y-13144500I-20000J0D01*
G01*
X11460800Y-13144500D02*
G75*
G02*
X11500800Y-13144500I20000J0D01*
G01*
X11620000Y-13025000D02*
G75*
G02*
X11580000Y-13025000I-20000J0D01*
G01*
X11580000Y-13025000D02*
G75*
G02*
X11620000Y-13025000I20000J0D01*
G01*
X11622500Y-12575000D02*
G75*
G02*
X11582500Y-12575000I-20000J0D01*
G01*
X11582500Y-12575000D02*
G75*
G02*
X11622500Y-12575000I20000J0D01*
G01*
X11622720Y-12697460D02*
G75*
G02*
X11582720Y-12697460I-20000J0D01*
G01*
X11582720Y-12697460D02*
G75*
G02*
X11622720Y-12697460I20000J0D01*
G01*
X12209460Y-12700000D02*
G75*
G02*
X12169460Y-12700000I-20000J0D01*
G01*
X12169460Y-12700000D02*
G75*
G02*
X12209460Y-12700000I20000J0D01*
G01*
X12212000Y-12192000D02*
G75*
G02*
X12172000Y-12192000I-20000J0D01*
G01*
X12172000Y-12192000D02*
G75*
G02*
X12212000Y-12192000I20000J0D01*
G01*
X12212000Y-13208000D02*
G75*
G02*
X12172000Y-13208000I-20000J0D01*
G01*
X12172000Y-13208000D02*
G75*
G02*
X12212000Y-13208000I20000J0D01*
G01*
X12212000Y-13713460D02*
G75*
G02*
X12172000Y-13713460I-20000J0D01*
G01*
X12172000Y-13713460D02*
G75*
G02*
X12212000Y-13713460I20000J0D01*
G01*
X13388020Y-13141960D02*
G75*
G02*
X13348020Y-13141960I-20000J0D01*
G01*
X13348020Y-13141960D02*
G75*
G02*
X13388020Y-13141960I20000J0D01*
G01*
X13507400Y-13589000D02*
G75*
G02*
X13467400Y-13589000I-20000J0D01*
G01*
X13467400Y-13589000D02*
G75*
G02*
X13507400Y-13589000I20000J0D01*
G01*
X13771560Y-12509500D02*
G75*
G02*
X13731560Y-12509500I-20000J0D01*
G01*
X13731560Y-12509500D02*
G75*
G02*
X13771560Y-12509500I20000J0D01*
G01*
X13774100Y-12636500D02*
G75*
G02*
X13734100Y-12636500I-20000J0D01*
G01*
X13734100Y-12636500D02*
G75*
G02*
X13774100Y-12636500I20000J0D01*
G01*
X13774100Y-12763500D02*
G75*
G02*
X13734100Y-12763500I-20000J0D01*
G01*
X13734100Y-12763500D02*
G75*
G02*
X13774100Y-12763500I20000J0D01*
G01*
X10007600Y-13099500D02*
X10007600Y-13184500D01*
X9965100Y-13142000D02*
X10050100Y-13142000D01*
X10007600Y-13419500D02*
X10007600Y-13504500D01*
X9965100Y-13462000D02*
X10050100Y-13462000D01*
X10327600Y-13099500D02*
X10327600Y-13184500D01*
X10285100Y-13142000D02*
X10370100Y-13142000D01*
X10327600Y-13419500D02*
X10327600Y-13504500D01*
X10285100Y-13462000D02*
X10370100Y-13462000D01*
X10547600Y-13099500D02*
X10547600Y-13184500D01*
X10505100Y-13142000D02*
X10590100Y-13142000D01*
X10547600Y-13419500D02*
X10547600Y-13504500D01*
X10505100Y-13462000D02*
X10590100Y-13462000D01*
X10767600Y-13099500D02*
X10767600Y-13184500D01*
X10725100Y-13142000D02*
X10810100Y-13142000D01*
X10767600Y-13419500D02*
X10767600Y-13504500D01*
X10725100Y-13462000D02*
X10810100Y-13462000D01*
X9252856Y-11932856D02*
X9252856Y-11862144D01*
X9182144Y-11862144D01*
X9182144Y-11932856D01*
X9252856Y-11932856D01*
X9252856Y-12186856D02*
X9252856Y-12116144D01*
X9182144Y-12116144D01*
X9182144Y-12186856D01*
X9252856Y-12186856D01*
X11487956Y-11937796D02*
X11487956Y-11867084D01*
X11417244Y-11867084D01*
X11417244Y-11937796D01*
X11487956Y-11937796D01*
X11487956Y-12191796D02*
X11487956Y-12121084D01*
X11417244Y-12121084D01*
X11417244Y-12191796D01*
X11487956Y-12191796D01*
X13806356Y-11942856D02*
X13806356Y-11872144D01*
X13735644Y-11872144D01*
X13735644Y-11942856D01*
X13806356Y-11942856D01*
X14060356Y-11942856D02*
X14060356Y-11872144D01*
X13989644Y-11872144D01*
X13989644Y-11942856D01*
X14060356Y-11942856D01*
X14314356Y-11942856D02*
X14314356Y-11872144D01*
X14243644Y-11872144D01*
X14243644Y-11942856D01*
X14314356Y-11942856D01*
X14568356Y-11942856D02*
X14568356Y-11872144D01*
X14497644Y-11872144D01*
X14497644Y-11942856D01*
X14568356Y-11942856D01*
D12*
X9334500Y-14130000D02*
X9494500Y-13970000D01*
X9334500Y-13810000D01*
X9174500Y-13970000D01*
X9334500Y-14130000D01*
X14605000Y-14130000D02*
X14765000Y-13970000D01*
X14605000Y-13810000D01*
X14445000Y-13970000D01*
X14605000Y-14130000D01*
D11*
X9249917Y-14628184D02*
X9249917Y-14428184D01*
X9249917Y-14428184D02*
X9297536Y-14428184D01*
X9297536Y-14428184D02*
X9326107Y-14437708D01*
X9326107Y-14437708D02*
X9345155Y-14456755D01*
X9345155Y-14456755D02*
X9354679Y-14475803D01*
X9354679Y-14475803D02*
X9364203Y-14513898D01*
X9364203Y-14513898D02*
X9364203Y-14542469D01*
X9364203Y-14542469D02*
X9354679Y-14580565D01*
X9354679Y-14580565D02*
X9345155Y-14599612D01*
X9345155Y-14599612D02*
X9326107Y-14618660D01*
X9326107Y-14618660D02*
X9297536Y-14628184D01*
X9297536Y-14628184D02*
X9249917Y-14628184D01*
X9449917Y-14628184D02*
X9449917Y-14494850D01*
X9449917Y-14532946D02*
X9459441Y-14513898D01*
X9459441Y-14513898D02*
X9468964Y-14504374D01*
X9468964Y-14504374D02*
X9488012Y-14494850D01*
X9488012Y-14494850D02*
X9507060Y-14494850D01*
X9573726Y-14628184D02*
X9573726Y-14494850D01*
X9573726Y-14428184D02*
X9564203Y-14437708D01*
X9564203Y-14437708D02*
X9573726Y-14447231D01*
X9573726Y-14447231D02*
X9583250Y-14437708D01*
X9583250Y-14437708D02*
X9573726Y-14428184D01*
X9573726Y-14428184D02*
X9573726Y-14447231D01*
X9697536Y-14628184D02*
X9678488Y-14618660D01*
X9678488Y-14618660D02*
X9668964Y-14599612D01*
X9668964Y-14599612D02*
X9668964Y-14428184D01*
X9802298Y-14628184D02*
X9783250Y-14618660D01*
X9783250Y-14618660D02*
X9773726Y-14599612D01*
X9773726Y-14599612D02*
X9773726Y-14428184D01*
X10030869Y-14628184D02*
X10030869Y-14428184D01*
X10030869Y-14428184D02*
X10097536Y-14571041D01*
X10097536Y-14571041D02*
X10164203Y-14428184D01*
X10164203Y-14428184D02*
X10164203Y-14628184D01*
X10345155Y-14628184D02*
X10345155Y-14523422D01*
X10345155Y-14523422D02*
X10335631Y-14504374D01*
X10335631Y-14504374D02*
X10316584Y-14494850D01*
X10316584Y-14494850D02*
X10278488Y-14494850D01*
X10278488Y-14494850D02*
X10259441Y-14504374D01*
X10345155Y-14618660D02*
X10326107Y-14628184D01*
X10326107Y-14628184D02*
X10278488Y-14628184D01*
X10278488Y-14628184D02*
X10259441Y-14618660D01*
X10259441Y-14618660D02*
X10249917Y-14599612D01*
X10249917Y-14599612D02*
X10249917Y-14580565D01*
X10249917Y-14580565D02*
X10259441Y-14561517D01*
X10259441Y-14561517D02*
X10278488Y-14551993D01*
X10278488Y-14551993D02*
X10326107Y-14551993D01*
X10326107Y-14551993D02*
X10345155Y-14542469D01*
X10440393Y-14494850D02*
X10440393Y-14694850D01*
X10440393Y-14504374D02*
X10459441Y-14494850D01*
X10459441Y-14494850D02*
X10497536Y-14494850D01*
X10497536Y-14494850D02*
X10516584Y-14504374D01*
X10516584Y-14504374D02*
X10526107Y-14513898D01*
X10526107Y-14513898D02*
X10535631Y-14532946D01*
X10535631Y-14532946D02*
X10535631Y-14590088D01*
X10535631Y-14590088D02*
X10526107Y-14609136D01*
X10526107Y-14609136D02*
X10516584Y-14618660D01*
X10516584Y-14618660D02*
X10497536Y-14628184D01*
X10497536Y-14628184D02*
X10459441Y-14628184D01*
X10459441Y-14628184D02*
X10440393Y-14618660D01*
X10621345Y-14609136D02*
X10630869Y-14618660D01*
X10630869Y-14618660D02*
X10621345Y-14628184D01*
X10621345Y-14628184D02*
X10611822Y-14618660D01*
X10611822Y-14618660D02*
X10621345Y-14609136D01*
X10621345Y-14609136D02*
X10621345Y-14628184D01*
X10621345Y-14504374D02*
X10630869Y-14513898D01*
X10630869Y-14513898D02*
X10621345Y-14523422D01*
X10621345Y-14523422D02*
X10611822Y-14513898D01*
X10611822Y-14513898D02*
X10621345Y-14504374D01*
X10621345Y-14504374D02*
X10621345Y-14523422D01*
D10*
X8981640Y-14952950D02*
X8989140Y-14960450D01*
X8989140Y-14952950D02*
X8981640Y-14960450D01*
D11*
X9288012Y-14848184D02*
X9307060Y-14848184D01*
X9307060Y-14848184D02*
X9326107Y-14857708D01*
X9326107Y-14857708D02*
X9335631Y-14867231D01*
X9335631Y-14867231D02*
X9345155Y-14886279D01*
X9345155Y-14886279D02*
X9354679Y-14924374D01*
X9354679Y-14924374D02*
X9354679Y-14971993D01*
X9354679Y-14971993D02*
X9345155Y-15010088D01*
X9345155Y-15010088D02*
X9335631Y-15029136D01*
X9335631Y-15029136D02*
X9326107Y-15038660D01*
X9326107Y-15038660D02*
X9307060Y-15048184D01*
X9307060Y-15048184D02*
X9288012Y-15048184D01*
X9288012Y-15048184D02*
X9268964Y-15038660D01*
X9268964Y-15038660D02*
X9259441Y-15029136D01*
X9259441Y-15029136D02*
X9249917Y-15010088D01*
X9249917Y-15010088D02*
X9240393Y-14971993D01*
X9240393Y-14971993D02*
X9240393Y-14924374D01*
X9240393Y-14924374D02*
X9249917Y-14886279D01*
X9249917Y-14886279D02*
X9259441Y-14867231D01*
X9259441Y-14867231D02*
X9268964Y-14857708D01*
X9268964Y-14857708D02*
X9288012Y-14848184D01*
X9440393Y-15029136D02*
X9449917Y-15038660D01*
X9449917Y-15038660D02*
X9440393Y-15048184D01*
X9440393Y-15048184D02*
X9430869Y-15038660D01*
X9430869Y-15038660D02*
X9440393Y-15029136D01*
X9440393Y-15029136D02*
X9440393Y-15048184D01*
X9573726Y-14848184D02*
X9592774Y-14848184D01*
X9592774Y-14848184D02*
X9611822Y-14857708D01*
X9611822Y-14857708D02*
X9621345Y-14867231D01*
X9621345Y-14867231D02*
X9630869Y-14886279D01*
X9630869Y-14886279D02*
X9640393Y-14924374D01*
X9640393Y-14924374D02*
X9640393Y-14971993D01*
X9640393Y-14971993D02*
X9630869Y-15010088D01*
X9630869Y-15010088D02*
X9621345Y-15029136D01*
X9621345Y-15029136D02*
X9611822Y-15038660D01*
X9611822Y-15038660D02*
X9592774Y-15048184D01*
X9592774Y-15048184D02*
X9573726Y-15048184D01*
X9573726Y-15048184D02*
X9554679Y-15038660D01*
X9554679Y-15038660D02*
X9545155Y-15029136D01*
X9545155Y-15029136D02*
X9535631Y-15010088D01*
X9535631Y-15010088D02*
X9526107Y-14971993D01*
X9526107Y-14971993D02*
X9526107Y-14924374D01*
X9526107Y-14924374D02*
X9535631Y-14886279D01*
X9535631Y-14886279D02*
X9545155Y-14867231D01*
X9545155Y-14867231D02*
X9554679Y-14857708D01*
X9554679Y-14857708D02*
X9573726Y-14848184D01*
X9707060Y-14848184D02*
X9840393Y-14848184D01*
X9840393Y-14848184D02*
X9754679Y-15048184D01*
X10011822Y-14848184D02*
X9916584Y-14848184D01*
X9916584Y-14848184D02*
X9907060Y-14943422D01*
X9907060Y-14943422D02*
X9916584Y-14933898D01*
X9916584Y-14933898D02*
X9935631Y-14924374D01*
X9935631Y-14924374D02*
X9983250Y-14924374D01*
X9983250Y-14924374D02*
X10002298Y-14933898D01*
X10002298Y-14933898D02*
X10011822Y-14943422D01*
X10011822Y-14943422D02*
X10021345Y-14962469D01*
X10021345Y-14962469D02*
X10021345Y-15010088D01*
X10021345Y-15010088D02*
X10011822Y-15029136D01*
X10011822Y-15029136D02*
X10002298Y-15038660D01*
X10002298Y-15038660D02*
X9983250Y-15048184D01*
X9983250Y-15048184D02*
X9935631Y-15048184D01*
X9935631Y-15048184D02*
X9916584Y-15038660D01*
X9916584Y-15038660D02*
X9907060Y-15029136D01*
X10107060Y-15048184D02*
X10107060Y-14914850D01*
X10107060Y-14933898D02*
X10116584Y-14924374D01*
X10116584Y-14924374D02*
X10135631Y-14914850D01*
X10135631Y-14914850D02*
X10164203Y-14914850D01*
X10164203Y-14914850D02*
X10183250Y-14924374D01*
X10183250Y-14924374D02*
X10192774Y-14943422D01*
X10192774Y-14943422D02*
X10192774Y-15048184D01*
X10192774Y-14943422D02*
X10202298Y-14924374D01*
X10202298Y-14924374D02*
X10221345Y-14914850D01*
X10221345Y-14914850D02*
X10249917Y-14914850D01*
X10249917Y-14914850D02*
X10268965Y-14924374D01*
X10268965Y-14924374D02*
X10278488Y-14943422D01*
X10278488Y-14943422D02*
X10278488Y-15048184D01*
X10373726Y-15048184D02*
X10373726Y-14914850D01*
X10373726Y-14933898D02*
X10383250Y-14924374D01*
X10383250Y-14924374D02*
X10402298Y-14914850D01*
X10402298Y-14914850D02*
X10430869Y-14914850D01*
X10430869Y-14914850D02*
X10449917Y-14924374D01*
X10449917Y-14924374D02*
X10459441Y-14943422D01*
X10459441Y-14943422D02*
X10459441Y-15048184D01*
X10459441Y-14943422D02*
X10468965Y-14924374D01*
X10468965Y-14924374D02*
X10488012Y-14914850D01*
X10488012Y-14914850D02*
X10516584Y-14914850D01*
X10516584Y-14914850D02*
X10535631Y-14924374D01*
X10535631Y-14924374D02*
X10545155Y-14943422D01*
X10545155Y-14943422D02*
X10545155Y-15048184D01*
X10935631Y-14838660D02*
X10764203Y-15095803D01*
X11192774Y-14848184D02*
X11211822Y-14848184D01*
X11211822Y-14848184D02*
X11230869Y-14857708D01*
X11230869Y-14857708D02*
X11240393Y-14867231D01*
X11240393Y-14867231D02*
X11249917Y-14886279D01*
X11249917Y-14886279D02*
X11259441Y-14924374D01*
X11259441Y-14924374D02*
X11259441Y-14971993D01*
X11259441Y-14971993D02*
X11249917Y-15010088D01*
X11249917Y-15010088D02*
X11240393Y-15029136D01*
X11240393Y-15029136D02*
X11230869Y-15038660D01*
X11230869Y-15038660D02*
X11211822Y-15048184D01*
X11211822Y-15048184D02*
X11192774Y-15048184D01*
X11192774Y-15048184D02*
X11173727Y-15038660D01*
X11173727Y-15038660D02*
X11164203Y-15029136D01*
X11164203Y-15029136D02*
X11154679Y-15010088D01*
X11154679Y-15010088D02*
X11145155Y-14971993D01*
X11145155Y-14971993D02*
X11145155Y-14924374D01*
X11145155Y-14924374D02*
X11154679Y-14886279D01*
X11154679Y-14886279D02*
X11164203Y-14867231D01*
X11164203Y-14867231D02*
X11173727Y-14857708D01*
X11173727Y-14857708D02*
X11192774Y-14848184D01*
X11345155Y-15029136D02*
X11354679Y-15038660D01*
X11354679Y-15038660D02*
X11345155Y-15048184D01*
X11345155Y-15048184D02*
X11335631Y-15038660D01*
X11335631Y-15038660D02*
X11345155Y-15029136D01*
X11345155Y-15029136D02*
X11345155Y-15048184D01*
X11478488Y-14848184D02*
X11497536Y-14848184D01*
X11497536Y-14848184D02*
X11516584Y-14857708D01*
X11516584Y-14857708D02*
X11526107Y-14867231D01*
X11526107Y-14867231D02*
X11535631Y-14886279D01*
X11535631Y-14886279D02*
X11545155Y-14924374D01*
X11545155Y-14924374D02*
X11545155Y-14971993D01*
X11545155Y-14971993D02*
X11535631Y-15010088D01*
X11535631Y-15010088D02*
X11526107Y-15029136D01*
X11526107Y-15029136D02*
X11516584Y-15038660D01*
X11516584Y-15038660D02*
X11497536Y-15048184D01*
X11497536Y-15048184D02*
X11478488Y-15048184D01*
X11478488Y-15048184D02*
X11459441Y-15038660D01*
X11459441Y-15038660D02*
X11449917Y-15029136D01*
X11449917Y-15029136D02*
X11440393Y-15010088D01*
X11440393Y-15010088D02*
X11430869Y-14971993D01*
X11430869Y-14971993D02*
X11430869Y-14924374D01*
X11430869Y-14924374D02*
X11440393Y-14886279D01*
X11440393Y-14886279D02*
X11449917Y-14867231D01*
X11449917Y-14867231D02*
X11459441Y-14857708D01*
X11459441Y-14857708D02*
X11478488Y-14848184D01*
X11668965Y-14848184D02*
X11688012Y-14848184D01*
X11688012Y-14848184D02*
X11707060Y-14857708D01*
X11707060Y-14857708D02*
X11716584Y-14867231D01*
X11716584Y-14867231D02*
X11726107Y-14886279D01*
X11726107Y-14886279D02*
X11735631Y-14924374D01*
X11735631Y-14924374D02*
X11735631Y-14971993D01*
X11735631Y-14971993D02*
X11726107Y-15010088D01*
X11726107Y-15010088D02*
X11716584Y-15029136D01*
X11716584Y-15029136D02*
X11707060Y-15038660D01*
X11707060Y-15038660D02*
X11688012Y-15048184D01*
X11688012Y-15048184D02*
X11668965Y-15048184D01*
X11668965Y-15048184D02*
X11649917Y-15038660D01*
X11649917Y-15038660D02*
X11640393Y-15029136D01*
X11640393Y-15029136D02*
X11630869Y-15010088D01*
X11630869Y-15010088D02*
X11621346Y-14971993D01*
X11621346Y-14971993D02*
X11621346Y-14924374D01*
X11621346Y-14924374D02*
X11630869Y-14886279D01*
X11630869Y-14886279D02*
X11640393Y-14867231D01*
X11640393Y-14867231D02*
X11649917Y-14857708D01*
X11649917Y-14857708D02*
X11668965Y-14848184D01*
X11802298Y-14848184D02*
X11926107Y-14848184D01*
X11926107Y-14848184D02*
X11859441Y-14924374D01*
X11859441Y-14924374D02*
X11888012Y-14924374D01*
X11888012Y-14924374D02*
X11907060Y-14933898D01*
X11907060Y-14933898D02*
X11916584Y-14943422D01*
X11916584Y-14943422D02*
X11926107Y-14962469D01*
X11926107Y-14962469D02*
X11926107Y-15010088D01*
X11926107Y-15010088D02*
X11916584Y-15029136D01*
X11916584Y-15029136D02*
X11907060Y-15038660D01*
X11907060Y-15038660D02*
X11888012Y-15048184D01*
X11888012Y-15048184D02*
X11830869Y-15048184D01*
X11830869Y-15048184D02*
X11811822Y-15038660D01*
X11811822Y-15038660D02*
X11802298Y-15029136D01*
X12049917Y-14848184D02*
X12068965Y-14848184D01*
X12068965Y-14848184D02*
X12088012Y-14857708D01*
X12088012Y-14857708D02*
X12097536Y-14867231D01*
X12097536Y-14867231D02*
X12107060Y-14886279D01*
X12107060Y-14886279D02*
X12116584Y-14924374D01*
X12116584Y-14924374D02*
X12116584Y-14971993D01*
X12116584Y-14971993D02*
X12107060Y-15010088D01*
X12107060Y-15010088D02*
X12097536Y-15029136D01*
X12097536Y-15029136D02*
X12088012Y-15038660D01*
X12088012Y-15038660D02*
X12068965Y-15048184D01*
X12068965Y-15048184D02*
X12049917Y-15048184D01*
X12049917Y-15048184D02*
X12030869Y-15038660D01*
X12030869Y-15038660D02*
X12021346Y-15029136D01*
X12021346Y-15029136D02*
X12011822Y-15010088D01*
X12011822Y-15010088D02*
X12002298Y-14971993D01*
X12002298Y-14971993D02*
X12002298Y-14924374D01*
X12002298Y-14924374D02*
X12011822Y-14886279D01*
X12011822Y-14886279D02*
X12021346Y-14867231D01*
X12021346Y-14867231D02*
X12030869Y-14857708D01*
X12030869Y-14857708D02*
X12049917Y-14848184D01*
X12192774Y-14848184D02*
X12192774Y-14886279D01*
X12268965Y-14848184D02*
X12268965Y-14886279D01*
X12564203Y-15124374D02*
X12554679Y-15114850D01*
X12554679Y-15114850D02*
X12535631Y-15086279D01*
X12535631Y-15086279D02*
X12526108Y-15067231D01*
X12526108Y-15067231D02*
X12516584Y-15038660D01*
X12516584Y-15038660D02*
X12507060Y-14991041D01*
X12507060Y-14991041D02*
X12507060Y-14952946D01*
X12507060Y-14952946D02*
X12516584Y-14905327D01*
X12516584Y-14905327D02*
X12526108Y-14876755D01*
X12526108Y-14876755D02*
X12535631Y-14857708D01*
X12535631Y-14857708D02*
X12554679Y-14829136D01*
X12554679Y-14829136D02*
X12564203Y-14819612D01*
X12745155Y-15048184D02*
X12630869Y-15048184D01*
X12688012Y-15048184D02*
X12688012Y-14848184D01*
X12688012Y-14848184D02*
X12668965Y-14876755D01*
X12668965Y-14876755D02*
X12649917Y-14895803D01*
X12649917Y-14895803D02*
X12630869Y-14905327D01*
X12811822Y-14848184D02*
X12935631Y-14848184D01*
X12935631Y-14848184D02*
X12868965Y-14924374D01*
X12868965Y-14924374D02*
X12897536Y-14924374D01*
X12897536Y-14924374D02*
X12916584Y-14933898D01*
X12916584Y-14933898D02*
X12926108Y-14943422D01*
X12926108Y-14943422D02*
X12935631Y-14962469D01*
X12935631Y-14962469D02*
X12935631Y-15010088D01*
X12935631Y-15010088D02*
X12926108Y-15029136D01*
X12926108Y-15029136D02*
X12916584Y-15038660D01*
X12916584Y-15038660D02*
X12897536Y-15048184D01*
X12897536Y-15048184D02*
X12840393Y-15048184D01*
X12840393Y-15048184D02*
X12821346Y-15038660D01*
X12821346Y-15038660D02*
X12811822Y-15029136D01*
X13011822Y-14867231D02*
X13021346Y-14857708D01*
X13021346Y-14857708D02*
X13040393Y-14848184D01*
X13040393Y-14848184D02*
X13088012Y-14848184D01*
X13088012Y-14848184D02*
X13107060Y-14857708D01*
X13107060Y-14857708D02*
X13116584Y-14867231D01*
X13116584Y-14867231D02*
X13126108Y-14886279D01*
X13126108Y-14886279D02*
X13126108Y-14905327D01*
X13126108Y-14905327D02*
X13116584Y-14933898D01*
X13116584Y-14933898D02*
X13002298Y-15048184D01*
X13002298Y-15048184D02*
X13126108Y-15048184D01*
X13364203Y-15048184D02*
X13364203Y-14848184D01*
X13449917Y-15048184D02*
X13449917Y-14943422D01*
X13449917Y-14943422D02*
X13440393Y-14924374D01*
X13440393Y-14924374D02*
X13421346Y-14914850D01*
X13421346Y-14914850D02*
X13392774Y-14914850D01*
X13392774Y-14914850D02*
X13373727Y-14924374D01*
X13373727Y-14924374D02*
X13364203Y-14933898D01*
X13573727Y-15048184D02*
X13554679Y-15038660D01*
X13554679Y-15038660D02*
X13545155Y-15029136D01*
X13545155Y-15029136D02*
X13535631Y-15010088D01*
X13535631Y-15010088D02*
X13535631Y-14952946D01*
X13535631Y-14952946D02*
X13545155Y-14933898D01*
X13545155Y-14933898D02*
X13554679Y-14924374D01*
X13554679Y-14924374D02*
X13573727Y-14914850D01*
X13573727Y-14914850D02*
X13602298Y-14914850D01*
X13602298Y-14914850D02*
X13621346Y-14924374D01*
X13621346Y-14924374D02*
X13630870Y-14933898D01*
X13630870Y-14933898D02*
X13640393Y-14952946D01*
X13640393Y-14952946D02*
X13640393Y-15010088D01*
X13640393Y-15010088D02*
X13630870Y-15029136D01*
X13630870Y-15029136D02*
X13621346Y-15038660D01*
X13621346Y-15038660D02*
X13602298Y-15048184D01*
X13602298Y-15048184D02*
X13573727Y-15048184D01*
X13754679Y-15048184D02*
X13735631Y-15038660D01*
X13735631Y-15038660D02*
X13726108Y-15019612D01*
X13726108Y-15019612D02*
X13726108Y-14848184D01*
X13907060Y-15038660D02*
X13888012Y-15048184D01*
X13888012Y-15048184D02*
X13849917Y-15048184D01*
X13849917Y-15048184D02*
X13830870Y-15038660D01*
X13830870Y-15038660D02*
X13821346Y-15019612D01*
X13821346Y-15019612D02*
X13821346Y-14943422D01*
X13821346Y-14943422D02*
X13830870Y-14924374D01*
X13830870Y-14924374D02*
X13849917Y-14914850D01*
X13849917Y-14914850D02*
X13888012Y-14914850D01*
X13888012Y-14914850D02*
X13907060Y-14924374D01*
X13907060Y-14924374D02*
X13916584Y-14943422D01*
X13916584Y-14943422D02*
X13916584Y-14962469D01*
X13916584Y-14962469D02*
X13821346Y-14981517D01*
X13992774Y-15038660D02*
X14011822Y-15048184D01*
X14011822Y-15048184D02*
X14049917Y-15048184D01*
X14049917Y-15048184D02*
X14068965Y-15038660D01*
X14068965Y-15038660D02*
X14078489Y-15019612D01*
X14078489Y-15019612D02*
X14078489Y-15010088D01*
X14078489Y-15010088D02*
X14068965Y-14991041D01*
X14068965Y-14991041D02*
X14049917Y-14981517D01*
X14049917Y-14981517D02*
X14021346Y-14981517D01*
X14021346Y-14981517D02*
X14002298Y-14971993D01*
X14002298Y-14971993D02*
X13992774Y-14952946D01*
X13992774Y-14952946D02*
X13992774Y-14943422D01*
X13992774Y-14943422D02*
X14002298Y-14924374D01*
X14002298Y-14924374D02*
X14021346Y-14914850D01*
X14021346Y-14914850D02*
X14049917Y-14914850D01*
X14049917Y-14914850D02*
X14068965Y-14924374D01*
X14145155Y-15124374D02*
X14154679Y-15114850D01*
X14154679Y-15114850D02*
X14173727Y-15086279D01*
X14173727Y-15086279D02*
X14183251Y-15067231D01*
X14183251Y-15067231D02*
X14192774Y-15038660D01*
X14192774Y-15038660D02*
X14202298Y-14991041D01*
X14202298Y-14991041D02*
X14202298Y-14952946D01*
X14202298Y-14952946D02*
X14192774Y-14905327D01*
X14192774Y-14905327D02*
X14183251Y-14876755D01*
X14183251Y-14876755D02*
X14173727Y-14857708D01*
X14173727Y-14857708D02*
X14154679Y-14829136D01*
X14154679Y-14829136D02*
X14145155Y-14819612D01*
D10*
X8989140Y-15220700D02*
G75*
G02*
X8949140Y-15220700I-20000J0D01*
G01*
X8949140Y-15220700D02*
G75*
G02*
X8989140Y-15220700I20000J0D01*
G01*
D11*
X9288012Y-15112184D02*
X9307060Y-15112184D01*
X9307060Y-15112184D02*
X9326107Y-15121708D01*
X9326107Y-15121708D02*
X9335631Y-15131231D01*
X9335631Y-15131231D02*
X9345155Y-15150279D01*
X9345155Y-15150279D02*
X9354679Y-15188374D01*
X9354679Y-15188374D02*
X9354679Y-15235993D01*
X9354679Y-15235993D02*
X9345155Y-15274088D01*
X9345155Y-15274088D02*
X9335631Y-15293136D01*
X9335631Y-15293136D02*
X9326107Y-15302660D01*
X9326107Y-15302660D02*
X9307060Y-15312184D01*
X9307060Y-15312184D02*
X9288012Y-15312184D01*
X9288012Y-15312184D02*
X9268964Y-15302660D01*
X9268964Y-15302660D02*
X9259441Y-15293136D01*
X9259441Y-15293136D02*
X9249917Y-15274088D01*
X9249917Y-15274088D02*
X9240393Y-15235993D01*
X9240393Y-15235993D02*
X9240393Y-15188374D01*
X9240393Y-15188374D02*
X9249917Y-15150279D01*
X9249917Y-15150279D02*
X9259441Y-15131231D01*
X9259441Y-15131231D02*
X9268964Y-15121708D01*
X9268964Y-15121708D02*
X9288012Y-15112184D01*
X9440393Y-15293136D02*
X9449917Y-15302660D01*
X9449917Y-15302660D02*
X9440393Y-15312184D01*
X9440393Y-15312184D02*
X9430869Y-15302660D01*
X9430869Y-15302660D02*
X9440393Y-15293136D01*
X9440393Y-15293136D02*
X9440393Y-15312184D01*
X9621345Y-15178850D02*
X9621345Y-15312184D01*
X9573726Y-15102660D02*
X9526107Y-15245517D01*
X9526107Y-15245517D02*
X9649917Y-15245517D01*
X9764203Y-15112184D02*
X9783250Y-15112184D01*
X9783250Y-15112184D02*
X9802298Y-15121708D01*
X9802298Y-15121708D02*
X9811822Y-15131231D01*
X9811822Y-15131231D02*
X9821345Y-15150279D01*
X9821345Y-15150279D02*
X9830869Y-15188374D01*
X9830869Y-15188374D02*
X9830869Y-15235993D01*
X9830869Y-15235993D02*
X9821345Y-15274088D01*
X9821345Y-15274088D02*
X9811822Y-15293136D01*
X9811822Y-15293136D02*
X9802298Y-15302660D01*
X9802298Y-15302660D02*
X9783250Y-15312184D01*
X9783250Y-15312184D02*
X9764203Y-15312184D01*
X9764203Y-15312184D02*
X9745155Y-15302660D01*
X9745155Y-15302660D02*
X9735631Y-15293136D01*
X9735631Y-15293136D02*
X9726107Y-15274088D01*
X9726107Y-15274088D02*
X9716584Y-15235993D01*
X9716584Y-15235993D02*
X9716584Y-15188374D01*
X9716584Y-15188374D02*
X9726107Y-15150279D01*
X9726107Y-15150279D02*
X9735631Y-15131231D01*
X9735631Y-15131231D02*
X9745155Y-15121708D01*
X9745155Y-15121708D02*
X9764203Y-15112184D01*
X9954679Y-15112184D02*
X9973726Y-15112184D01*
X9973726Y-15112184D02*
X9992774Y-15121708D01*
X9992774Y-15121708D02*
X10002298Y-15131231D01*
X10002298Y-15131231D02*
X10011822Y-15150279D01*
X10011822Y-15150279D02*
X10021345Y-15188374D01*
X10021345Y-15188374D02*
X10021345Y-15235993D01*
X10021345Y-15235993D02*
X10011822Y-15274088D01*
X10011822Y-15274088D02*
X10002298Y-15293136D01*
X10002298Y-15293136D02*
X9992774Y-15302660D01*
X9992774Y-15302660D02*
X9973726Y-15312184D01*
X9973726Y-15312184D02*
X9954679Y-15312184D01*
X9954679Y-15312184D02*
X9935631Y-15302660D01*
X9935631Y-15302660D02*
X9926107Y-15293136D01*
X9926107Y-15293136D02*
X9916584Y-15274088D01*
X9916584Y-15274088D02*
X9907060Y-15235993D01*
X9907060Y-15235993D02*
X9907060Y-15188374D01*
X9907060Y-15188374D02*
X9916584Y-15150279D01*
X9916584Y-15150279D02*
X9926107Y-15131231D01*
X9926107Y-15131231D02*
X9935631Y-15121708D01*
X9935631Y-15121708D02*
X9954679Y-15112184D01*
X10107060Y-15312184D02*
X10107060Y-15178850D01*
X10107060Y-15197898D02*
X10116584Y-15188374D01*
X10116584Y-15188374D02*
X10135631Y-15178850D01*
X10135631Y-15178850D02*
X10164203Y-15178850D01*
X10164203Y-15178850D02*
X10183250Y-15188374D01*
X10183250Y-15188374D02*
X10192774Y-15207422D01*
X10192774Y-15207422D02*
X10192774Y-15312184D01*
X10192774Y-15207422D02*
X10202298Y-15188374D01*
X10202298Y-15188374D02*
X10221345Y-15178850D01*
X10221345Y-15178850D02*
X10249917Y-15178850D01*
X10249917Y-15178850D02*
X10268965Y-15188374D01*
X10268965Y-15188374D02*
X10278488Y-15207422D01*
X10278488Y-15207422D02*
X10278488Y-15312184D01*
X10373726Y-15312184D02*
X10373726Y-15178850D01*
X10373726Y-15197898D02*
X10383250Y-15188374D01*
X10383250Y-15188374D02*
X10402298Y-15178850D01*
X10402298Y-15178850D02*
X10430869Y-15178850D01*
X10430869Y-15178850D02*
X10449917Y-15188374D01*
X10449917Y-15188374D02*
X10459441Y-15207422D01*
X10459441Y-15207422D02*
X10459441Y-15312184D01*
X10459441Y-15207422D02*
X10468965Y-15188374D01*
X10468965Y-15188374D02*
X10488012Y-15178850D01*
X10488012Y-15178850D02*
X10516584Y-15178850D01*
X10516584Y-15178850D02*
X10535631Y-15188374D01*
X10535631Y-15188374D02*
X10545155Y-15207422D01*
X10545155Y-15207422D02*
X10545155Y-15312184D01*
X10935631Y-15102660D02*
X10764203Y-15359803D01*
X11192774Y-15112184D02*
X11211822Y-15112184D01*
X11211822Y-15112184D02*
X11230869Y-15121708D01*
X11230869Y-15121708D02*
X11240393Y-15131231D01*
X11240393Y-15131231D02*
X11249917Y-15150279D01*
X11249917Y-15150279D02*
X11259441Y-15188374D01*
X11259441Y-15188374D02*
X11259441Y-15235993D01*
X11259441Y-15235993D02*
X11249917Y-15274088D01*
X11249917Y-15274088D02*
X11240393Y-15293136D01*
X11240393Y-15293136D02*
X11230869Y-15302660D01*
X11230869Y-15302660D02*
X11211822Y-15312184D01*
X11211822Y-15312184D02*
X11192774Y-15312184D01*
X11192774Y-15312184D02*
X11173727Y-15302660D01*
X11173727Y-15302660D02*
X11164203Y-15293136D01*
X11164203Y-15293136D02*
X11154679Y-15274088D01*
X11154679Y-15274088D02*
X11145155Y-15235993D01*
X11145155Y-15235993D02*
X11145155Y-15188374D01*
X11145155Y-15188374D02*
X11154679Y-15150279D01*
X11154679Y-15150279D02*
X11164203Y-15131231D01*
X11164203Y-15131231D02*
X11173727Y-15121708D01*
X11173727Y-15121708D02*
X11192774Y-15112184D01*
X11345155Y-15293136D02*
X11354679Y-15302660D01*
X11354679Y-15302660D02*
X11345155Y-15312184D01*
X11345155Y-15312184D02*
X11335631Y-15302660D01*
X11335631Y-15302660D02*
X11345155Y-15293136D01*
X11345155Y-15293136D02*
X11345155Y-15312184D01*
X11478488Y-15112184D02*
X11497536Y-15112184D01*
X11497536Y-15112184D02*
X11516584Y-15121708D01*
X11516584Y-15121708D02*
X11526107Y-15131231D01*
X11526107Y-15131231D02*
X11535631Y-15150279D01*
X11535631Y-15150279D02*
X11545155Y-15188374D01*
X11545155Y-15188374D02*
X11545155Y-15235993D01*
X11545155Y-15235993D02*
X11535631Y-15274088D01*
X11535631Y-15274088D02*
X11526107Y-15293136D01*
X11526107Y-15293136D02*
X11516584Y-15302660D01*
X11516584Y-15302660D02*
X11497536Y-15312184D01*
X11497536Y-15312184D02*
X11478488Y-15312184D01*
X11478488Y-15312184D02*
X11459441Y-15302660D01*
X11459441Y-15302660D02*
X11449917Y-15293136D01*
X11449917Y-15293136D02*
X11440393Y-15274088D01*
X11440393Y-15274088D02*
X11430869Y-15235993D01*
X11430869Y-15235993D02*
X11430869Y-15188374D01*
X11430869Y-15188374D02*
X11440393Y-15150279D01*
X11440393Y-15150279D02*
X11449917Y-15131231D01*
X11449917Y-15131231D02*
X11459441Y-15121708D01*
X11459441Y-15121708D02*
X11478488Y-15112184D01*
X11735631Y-15312184D02*
X11621346Y-15312184D01*
X11678488Y-15312184D02*
X11678488Y-15112184D01*
X11678488Y-15112184D02*
X11659441Y-15140755D01*
X11659441Y-15140755D02*
X11640393Y-15159803D01*
X11640393Y-15159803D02*
X11621346Y-15169327D01*
X11916584Y-15112184D02*
X11821346Y-15112184D01*
X11821346Y-15112184D02*
X11811822Y-15207422D01*
X11811822Y-15207422D02*
X11821346Y-15197898D01*
X11821346Y-15197898D02*
X11840393Y-15188374D01*
X11840393Y-15188374D02*
X11888012Y-15188374D01*
X11888012Y-15188374D02*
X11907060Y-15197898D01*
X11907060Y-15197898D02*
X11916584Y-15207422D01*
X11916584Y-15207422D02*
X11926107Y-15226469D01*
X11926107Y-15226469D02*
X11926107Y-15274088D01*
X11926107Y-15274088D02*
X11916584Y-15293136D01*
X11916584Y-15293136D02*
X11907060Y-15302660D01*
X11907060Y-15302660D02*
X11888012Y-15312184D01*
X11888012Y-15312184D02*
X11840393Y-15312184D01*
X11840393Y-15312184D02*
X11821346Y-15302660D01*
X11821346Y-15302660D02*
X11811822Y-15293136D01*
X11992774Y-15112184D02*
X12126107Y-15112184D01*
X12126107Y-15112184D02*
X12040393Y-15312184D01*
X12192774Y-15112184D02*
X12192774Y-15150279D01*
X12268965Y-15112184D02*
X12268965Y-15150279D01*
X12564203Y-15388374D02*
X12554679Y-15378850D01*
X12554679Y-15378850D02*
X12535631Y-15350279D01*
X12535631Y-15350279D02*
X12526108Y-15331231D01*
X12526108Y-15331231D02*
X12516584Y-15302660D01*
X12516584Y-15302660D02*
X12507060Y-15255041D01*
X12507060Y-15255041D02*
X12507060Y-15216946D01*
X12507060Y-15216946D02*
X12516584Y-15169327D01*
X12516584Y-15169327D02*
X12526108Y-15140755D01*
X12526108Y-15140755D02*
X12535631Y-15121708D01*
X12535631Y-15121708D02*
X12554679Y-15093136D01*
X12554679Y-15093136D02*
X12564203Y-15083612D01*
X12621346Y-15112184D02*
X12745155Y-15112184D01*
X12745155Y-15112184D02*
X12678488Y-15188374D01*
X12678488Y-15188374D02*
X12707060Y-15188374D01*
X12707060Y-15188374D02*
X12726108Y-15197898D01*
X12726108Y-15197898D02*
X12735631Y-15207422D01*
X12735631Y-15207422D02*
X12745155Y-15226469D01*
X12745155Y-15226469D02*
X12745155Y-15274088D01*
X12745155Y-15274088D02*
X12735631Y-15293136D01*
X12735631Y-15293136D02*
X12726108Y-15302660D01*
X12726108Y-15302660D02*
X12707060Y-15312184D01*
X12707060Y-15312184D02*
X12649917Y-15312184D01*
X12649917Y-15312184D02*
X12630869Y-15302660D01*
X12630869Y-15302660D02*
X12621346Y-15293136D01*
X12811822Y-15112184D02*
X12935631Y-15112184D01*
X12935631Y-15112184D02*
X12868965Y-15188374D01*
X12868965Y-15188374D02*
X12897536Y-15188374D01*
X12897536Y-15188374D02*
X12916584Y-15197898D01*
X12916584Y-15197898D02*
X12926108Y-15207422D01*
X12926108Y-15207422D02*
X12935631Y-15226469D01*
X12935631Y-15226469D02*
X12935631Y-15274088D01*
X12935631Y-15274088D02*
X12926108Y-15293136D01*
X12926108Y-15293136D02*
X12916584Y-15302660D01*
X12916584Y-15302660D02*
X12897536Y-15312184D01*
X12897536Y-15312184D02*
X12840393Y-15312184D01*
X12840393Y-15312184D02*
X12821346Y-15302660D01*
X12821346Y-15302660D02*
X12811822Y-15293136D01*
X13173727Y-15312184D02*
X13173727Y-15112184D01*
X13259441Y-15312184D02*
X13259441Y-15207422D01*
X13259441Y-15207422D02*
X13249917Y-15188374D01*
X13249917Y-15188374D02*
X13230870Y-15178850D01*
X13230870Y-15178850D02*
X13202298Y-15178850D01*
X13202298Y-15178850D02*
X13183250Y-15188374D01*
X13183250Y-15188374D02*
X13173727Y-15197898D01*
X13383250Y-15312184D02*
X13364203Y-15302660D01*
X13364203Y-15302660D02*
X13354679Y-15293136D01*
X13354679Y-15293136D02*
X13345155Y-15274088D01*
X13345155Y-15274088D02*
X13345155Y-15216946D01*
X13345155Y-15216946D02*
X13354679Y-15197898D01*
X13354679Y-15197898D02*
X13364203Y-15188374D01*
X13364203Y-15188374D02*
X13383250Y-15178850D01*
X13383250Y-15178850D02*
X13411822Y-15178850D01*
X13411822Y-15178850D02*
X13430870Y-15188374D01*
X13430870Y-15188374D02*
X13440393Y-15197898D01*
X13440393Y-15197898D02*
X13449917Y-15216946D01*
X13449917Y-15216946D02*
X13449917Y-15274088D01*
X13449917Y-15274088D02*
X13440393Y-15293136D01*
X13440393Y-15293136D02*
X13430870Y-15302660D01*
X13430870Y-15302660D02*
X13411822Y-15312184D01*
X13411822Y-15312184D02*
X13383250Y-15312184D01*
X13564203Y-15312184D02*
X13545155Y-15302660D01*
X13545155Y-15302660D02*
X13535631Y-15283612D01*
X13535631Y-15283612D02*
X13535631Y-15112184D01*
X13716584Y-15302660D02*
X13697536Y-15312184D01*
X13697536Y-15312184D02*
X13659441Y-15312184D01*
X13659441Y-15312184D02*
X13640393Y-15302660D01*
X13640393Y-15302660D02*
X13630870Y-15283612D01*
X13630870Y-15283612D02*
X13630870Y-15207422D01*
X13630870Y-15207422D02*
X13640393Y-15188374D01*
X13640393Y-15188374D02*
X13659441Y-15178850D01*
X13659441Y-15178850D02*
X13697536Y-15178850D01*
X13697536Y-15178850D02*
X13716584Y-15188374D01*
X13716584Y-15188374D02*
X13726108Y-15207422D01*
X13726108Y-15207422D02*
X13726108Y-15226469D01*
X13726108Y-15226469D02*
X13630870Y-15245517D01*
X13802298Y-15302660D02*
X13821346Y-15312184D01*
X13821346Y-15312184D02*
X13859441Y-15312184D01*
X13859441Y-15312184D02*
X13878489Y-15302660D01*
X13878489Y-15302660D02*
X13888012Y-15283612D01*
X13888012Y-15283612D02*
X13888012Y-15274088D01*
X13888012Y-15274088D02*
X13878489Y-15255041D01*
X13878489Y-15255041D02*
X13859441Y-15245517D01*
X13859441Y-15245517D02*
X13830870Y-15245517D01*
X13830870Y-15245517D02*
X13811822Y-15235993D01*
X13811822Y-15235993D02*
X13802298Y-15216946D01*
X13802298Y-15216946D02*
X13802298Y-15207422D01*
X13802298Y-15207422D02*
X13811822Y-15188374D01*
X13811822Y-15188374D02*
X13830870Y-15178850D01*
X13830870Y-15178850D02*
X13859441Y-15178850D01*
X13859441Y-15178850D02*
X13878489Y-15188374D01*
X13954679Y-15388374D02*
X13964203Y-15378850D01*
X13964203Y-15378850D02*
X13983251Y-15350279D01*
X13983251Y-15350279D02*
X13992774Y-15331231D01*
X13992774Y-15331231D02*
X14002298Y-15302660D01*
X14002298Y-15302660D02*
X14011822Y-15255041D01*
X14011822Y-15255041D02*
X14011822Y-15216946D01*
X14011822Y-15216946D02*
X14002298Y-15169327D01*
X14002298Y-15169327D02*
X13992774Y-15140755D01*
X13992774Y-15140755D02*
X13983251Y-15121708D01*
X13983251Y-15121708D02*
X13964203Y-15093136D01*
X13964203Y-15093136D02*
X13954679Y-15083612D01*
D10*
X8946640Y-15442200D02*
X8946640Y-15527200D01*
X8904140Y-15484700D02*
X8989140Y-15484700D01*
D11*
X9288012Y-15376184D02*
X9307060Y-15376184D01*
X9307060Y-15376184D02*
X9326107Y-15385708D01*
X9326107Y-15385708D02*
X9335631Y-15395231D01*
X9335631Y-15395231D02*
X9345155Y-15414279D01*
X9345155Y-15414279D02*
X9354679Y-15452374D01*
X9354679Y-15452374D02*
X9354679Y-15499993D01*
X9354679Y-15499993D02*
X9345155Y-15538088D01*
X9345155Y-15538088D02*
X9335631Y-15557136D01*
X9335631Y-15557136D02*
X9326107Y-15566660D01*
X9326107Y-15566660D02*
X9307060Y-15576184D01*
X9307060Y-15576184D02*
X9288012Y-15576184D01*
X9288012Y-15576184D02*
X9268964Y-15566660D01*
X9268964Y-15566660D02*
X9259441Y-15557136D01*
X9259441Y-15557136D02*
X9249917Y-15538088D01*
X9249917Y-15538088D02*
X9240393Y-15499993D01*
X9240393Y-15499993D02*
X9240393Y-15452374D01*
X9240393Y-15452374D02*
X9249917Y-15414279D01*
X9249917Y-15414279D02*
X9259441Y-15395231D01*
X9259441Y-15395231D02*
X9268964Y-15385708D01*
X9268964Y-15385708D02*
X9288012Y-15376184D01*
X9440393Y-15557136D02*
X9449917Y-15566660D01*
X9449917Y-15566660D02*
X9440393Y-15576184D01*
X9440393Y-15576184D02*
X9430869Y-15566660D01*
X9430869Y-15566660D02*
X9440393Y-15557136D01*
X9440393Y-15557136D02*
X9440393Y-15576184D01*
X9564203Y-15461898D02*
X9545155Y-15452374D01*
X9545155Y-15452374D02*
X9535631Y-15442850D01*
X9535631Y-15442850D02*
X9526107Y-15423803D01*
X9526107Y-15423803D02*
X9526107Y-15414279D01*
X9526107Y-15414279D02*
X9535631Y-15395231D01*
X9535631Y-15395231D02*
X9545155Y-15385708D01*
X9545155Y-15385708D02*
X9564203Y-15376184D01*
X9564203Y-15376184D02*
X9602298Y-15376184D01*
X9602298Y-15376184D02*
X9621345Y-15385708D01*
X9621345Y-15385708D02*
X9630869Y-15395231D01*
X9630869Y-15395231D02*
X9640393Y-15414279D01*
X9640393Y-15414279D02*
X9640393Y-15423803D01*
X9640393Y-15423803D02*
X9630869Y-15442850D01*
X9630869Y-15442850D02*
X9621345Y-15452374D01*
X9621345Y-15452374D02*
X9602298Y-15461898D01*
X9602298Y-15461898D02*
X9564203Y-15461898D01*
X9564203Y-15461898D02*
X9545155Y-15471422D01*
X9545155Y-15471422D02*
X9535631Y-15480946D01*
X9535631Y-15480946D02*
X9526107Y-15499993D01*
X9526107Y-15499993D02*
X9526107Y-15538088D01*
X9526107Y-15538088D02*
X9535631Y-15557136D01*
X9535631Y-15557136D02*
X9545155Y-15566660D01*
X9545155Y-15566660D02*
X9564203Y-15576184D01*
X9564203Y-15576184D02*
X9602298Y-15576184D01*
X9602298Y-15576184D02*
X9621345Y-15566660D01*
X9621345Y-15566660D02*
X9630869Y-15557136D01*
X9630869Y-15557136D02*
X9640393Y-15538088D01*
X9640393Y-15538088D02*
X9640393Y-15499993D01*
X9640393Y-15499993D02*
X9630869Y-15480946D01*
X9630869Y-15480946D02*
X9621345Y-15471422D01*
X9621345Y-15471422D02*
X9602298Y-15461898D01*
X9821345Y-15376184D02*
X9726107Y-15376184D01*
X9726107Y-15376184D02*
X9716584Y-15471422D01*
X9716584Y-15471422D02*
X9726107Y-15461898D01*
X9726107Y-15461898D02*
X9745155Y-15452374D01*
X9745155Y-15452374D02*
X9792774Y-15452374D01*
X9792774Y-15452374D02*
X9811822Y-15461898D01*
X9811822Y-15461898D02*
X9821345Y-15471422D01*
X9821345Y-15471422D02*
X9830869Y-15490469D01*
X9830869Y-15490469D02*
X9830869Y-15538088D01*
X9830869Y-15538088D02*
X9821345Y-15557136D01*
X9821345Y-15557136D02*
X9811822Y-15566660D01*
X9811822Y-15566660D02*
X9792774Y-15576184D01*
X9792774Y-15576184D02*
X9745155Y-15576184D01*
X9745155Y-15576184D02*
X9726107Y-15566660D01*
X9726107Y-15566660D02*
X9716584Y-15557136D01*
X9954679Y-15376184D02*
X9973726Y-15376184D01*
X9973726Y-15376184D02*
X9992774Y-15385708D01*
X9992774Y-15385708D02*
X10002298Y-15395231D01*
X10002298Y-15395231D02*
X10011822Y-15414279D01*
X10011822Y-15414279D02*
X10021345Y-15452374D01*
X10021345Y-15452374D02*
X10021345Y-15499993D01*
X10021345Y-15499993D02*
X10011822Y-15538088D01*
X10011822Y-15538088D02*
X10002298Y-15557136D01*
X10002298Y-15557136D02*
X9992774Y-15566660D01*
X9992774Y-15566660D02*
X9973726Y-15576184D01*
X9973726Y-15576184D02*
X9954679Y-15576184D01*
X9954679Y-15576184D02*
X9935631Y-15566660D01*
X9935631Y-15566660D02*
X9926107Y-15557136D01*
X9926107Y-15557136D02*
X9916584Y-15538088D01*
X9916584Y-15538088D02*
X9907060Y-15499993D01*
X9907060Y-15499993D02*
X9907060Y-15452374D01*
X9907060Y-15452374D02*
X9916584Y-15414279D01*
X9916584Y-15414279D02*
X9926107Y-15395231D01*
X9926107Y-15395231D02*
X9935631Y-15385708D01*
X9935631Y-15385708D02*
X9954679Y-15376184D01*
X10107060Y-15576184D02*
X10107060Y-15442850D01*
X10107060Y-15461898D02*
X10116584Y-15452374D01*
X10116584Y-15452374D02*
X10135631Y-15442850D01*
X10135631Y-15442850D02*
X10164203Y-15442850D01*
X10164203Y-15442850D02*
X10183250Y-15452374D01*
X10183250Y-15452374D02*
X10192774Y-15471422D01*
X10192774Y-15471422D02*
X10192774Y-15576184D01*
X10192774Y-15471422D02*
X10202298Y-15452374D01*
X10202298Y-15452374D02*
X10221345Y-15442850D01*
X10221345Y-15442850D02*
X10249917Y-15442850D01*
X10249917Y-15442850D02*
X10268965Y-15452374D01*
X10268965Y-15452374D02*
X10278488Y-15471422D01*
X10278488Y-15471422D02*
X10278488Y-15576184D01*
X10373726Y-15576184D02*
X10373726Y-15442850D01*
X10373726Y-15461898D02*
X10383250Y-15452374D01*
X10383250Y-15452374D02*
X10402298Y-15442850D01*
X10402298Y-15442850D02*
X10430869Y-15442850D01*
X10430869Y-15442850D02*
X10449917Y-15452374D01*
X10449917Y-15452374D02*
X10459441Y-15471422D01*
X10459441Y-15471422D02*
X10459441Y-15576184D01*
X10459441Y-15471422D02*
X10468965Y-15452374D01*
X10468965Y-15452374D02*
X10488012Y-15442850D01*
X10488012Y-15442850D02*
X10516584Y-15442850D01*
X10516584Y-15442850D02*
X10535631Y-15452374D01*
X10535631Y-15452374D02*
X10545155Y-15471422D01*
X10545155Y-15471422D02*
X10545155Y-15576184D01*
X10935631Y-15366660D02*
X10764203Y-15623803D01*
X11192774Y-15376184D02*
X11211822Y-15376184D01*
X11211822Y-15376184D02*
X11230869Y-15385708D01*
X11230869Y-15385708D02*
X11240393Y-15395231D01*
X11240393Y-15395231D02*
X11249917Y-15414279D01*
X11249917Y-15414279D02*
X11259441Y-15452374D01*
X11259441Y-15452374D02*
X11259441Y-15499993D01*
X11259441Y-15499993D02*
X11249917Y-15538088D01*
X11249917Y-15538088D02*
X11240393Y-15557136D01*
X11240393Y-15557136D02*
X11230869Y-15566660D01*
X11230869Y-15566660D02*
X11211822Y-15576184D01*
X11211822Y-15576184D02*
X11192774Y-15576184D01*
X11192774Y-15576184D02*
X11173727Y-15566660D01*
X11173727Y-15566660D02*
X11164203Y-15557136D01*
X11164203Y-15557136D02*
X11154679Y-15538088D01*
X11154679Y-15538088D02*
X11145155Y-15499993D01*
X11145155Y-15499993D02*
X11145155Y-15452374D01*
X11145155Y-15452374D02*
X11154679Y-15414279D01*
X11154679Y-15414279D02*
X11164203Y-15395231D01*
X11164203Y-15395231D02*
X11173727Y-15385708D01*
X11173727Y-15385708D02*
X11192774Y-15376184D01*
X11345155Y-15557136D02*
X11354679Y-15566660D01*
X11354679Y-15566660D02*
X11345155Y-15576184D01*
X11345155Y-15576184D02*
X11335631Y-15566660D01*
X11335631Y-15566660D02*
X11345155Y-15557136D01*
X11345155Y-15557136D02*
X11345155Y-15576184D01*
X11478488Y-15376184D02*
X11497536Y-15376184D01*
X11497536Y-15376184D02*
X11516584Y-15385708D01*
X11516584Y-15385708D02*
X11526107Y-15395231D01*
X11526107Y-15395231D02*
X11535631Y-15414279D01*
X11535631Y-15414279D02*
X11545155Y-15452374D01*
X11545155Y-15452374D02*
X11545155Y-15499993D01*
X11545155Y-15499993D02*
X11535631Y-15538088D01*
X11535631Y-15538088D02*
X11526107Y-15557136D01*
X11526107Y-15557136D02*
X11516584Y-15566660D01*
X11516584Y-15566660D02*
X11497536Y-15576184D01*
X11497536Y-15576184D02*
X11478488Y-15576184D01*
X11478488Y-15576184D02*
X11459441Y-15566660D01*
X11459441Y-15566660D02*
X11449917Y-15557136D01*
X11449917Y-15557136D02*
X11440393Y-15538088D01*
X11440393Y-15538088D02*
X11430869Y-15499993D01*
X11430869Y-15499993D02*
X11430869Y-15452374D01*
X11430869Y-15452374D02*
X11440393Y-15414279D01*
X11440393Y-15414279D02*
X11449917Y-15395231D01*
X11449917Y-15395231D02*
X11459441Y-15385708D01*
X11459441Y-15385708D02*
X11478488Y-15376184D01*
X11611822Y-15376184D02*
X11735631Y-15376184D01*
X11735631Y-15376184D02*
X11668965Y-15452374D01*
X11668965Y-15452374D02*
X11697536Y-15452374D01*
X11697536Y-15452374D02*
X11716584Y-15461898D01*
X11716584Y-15461898D02*
X11726107Y-15471422D01*
X11726107Y-15471422D02*
X11735631Y-15490469D01*
X11735631Y-15490469D02*
X11735631Y-15538088D01*
X11735631Y-15538088D02*
X11726107Y-15557136D01*
X11726107Y-15557136D02*
X11716584Y-15566660D01*
X11716584Y-15566660D02*
X11697536Y-15576184D01*
X11697536Y-15576184D02*
X11640393Y-15576184D01*
X11640393Y-15576184D02*
X11621346Y-15566660D01*
X11621346Y-15566660D02*
X11611822Y-15557136D01*
X11802298Y-15376184D02*
X11926107Y-15376184D01*
X11926107Y-15376184D02*
X11859441Y-15452374D01*
X11859441Y-15452374D02*
X11888012Y-15452374D01*
X11888012Y-15452374D02*
X11907060Y-15461898D01*
X11907060Y-15461898D02*
X11916584Y-15471422D01*
X11916584Y-15471422D02*
X11926107Y-15490469D01*
X11926107Y-15490469D02*
X11926107Y-15538088D01*
X11926107Y-15538088D02*
X11916584Y-15557136D01*
X11916584Y-15557136D02*
X11907060Y-15566660D01*
X11907060Y-15566660D02*
X11888012Y-15576184D01*
X11888012Y-15576184D02*
X11830869Y-15576184D01*
X11830869Y-15576184D02*
X11811822Y-15566660D01*
X11811822Y-15566660D02*
X11802298Y-15557136D01*
X12107060Y-15376184D02*
X12011822Y-15376184D01*
X12011822Y-15376184D02*
X12002298Y-15471422D01*
X12002298Y-15471422D02*
X12011822Y-15461898D01*
X12011822Y-15461898D02*
X12030869Y-15452374D01*
X12030869Y-15452374D02*
X12078488Y-15452374D01*
X12078488Y-15452374D02*
X12097536Y-15461898D01*
X12097536Y-15461898D02*
X12107060Y-15471422D01*
X12107060Y-15471422D02*
X12116584Y-15490469D01*
X12116584Y-15490469D02*
X12116584Y-15538088D01*
X12116584Y-15538088D02*
X12107060Y-15557136D01*
X12107060Y-15557136D02*
X12097536Y-15566660D01*
X12097536Y-15566660D02*
X12078488Y-15576184D01*
X12078488Y-15576184D02*
X12030869Y-15576184D01*
X12030869Y-15576184D02*
X12011822Y-15566660D01*
X12011822Y-15566660D02*
X12002298Y-15557136D01*
X12192774Y-15376184D02*
X12192774Y-15414279D01*
X12268965Y-15376184D02*
X12268965Y-15414279D01*
X12564203Y-15652374D02*
X12554679Y-15642850D01*
X12554679Y-15642850D02*
X12535631Y-15614279D01*
X12535631Y-15614279D02*
X12526108Y-15595231D01*
X12526108Y-15595231D02*
X12516584Y-15566660D01*
X12516584Y-15566660D02*
X12507060Y-15519041D01*
X12507060Y-15519041D02*
X12507060Y-15480946D01*
X12507060Y-15480946D02*
X12516584Y-15433327D01*
X12516584Y-15433327D02*
X12526108Y-15404755D01*
X12526108Y-15404755D02*
X12535631Y-15385708D01*
X12535631Y-15385708D02*
X12554679Y-15357136D01*
X12554679Y-15357136D02*
X12564203Y-15347612D01*
X12668965Y-15461898D02*
X12649917Y-15452374D01*
X12649917Y-15452374D02*
X12640393Y-15442850D01*
X12640393Y-15442850D02*
X12630869Y-15423803D01*
X12630869Y-15423803D02*
X12630869Y-15414279D01*
X12630869Y-15414279D02*
X12640393Y-15395231D01*
X12640393Y-15395231D02*
X12649917Y-15385708D01*
X12649917Y-15385708D02*
X12668965Y-15376184D01*
X12668965Y-15376184D02*
X12707060Y-15376184D01*
X12707060Y-15376184D02*
X12726108Y-15385708D01*
X12726108Y-15385708D02*
X12735631Y-15395231D01*
X12735631Y-15395231D02*
X12745155Y-15414279D01*
X12745155Y-15414279D02*
X12745155Y-15423803D01*
X12745155Y-15423803D02*
X12735631Y-15442850D01*
X12735631Y-15442850D02*
X12726108Y-15452374D01*
X12726108Y-15452374D02*
X12707060Y-15461898D01*
X12707060Y-15461898D02*
X12668965Y-15461898D01*
X12668965Y-15461898D02*
X12649917Y-15471422D01*
X12649917Y-15471422D02*
X12640393Y-15480946D01*
X12640393Y-15480946D02*
X12630869Y-15499993D01*
X12630869Y-15499993D02*
X12630869Y-15538088D01*
X12630869Y-15538088D02*
X12640393Y-15557136D01*
X12640393Y-15557136D02*
X12649917Y-15566660D01*
X12649917Y-15566660D02*
X12668965Y-15576184D01*
X12668965Y-15576184D02*
X12707060Y-15576184D01*
X12707060Y-15576184D02*
X12726108Y-15566660D01*
X12726108Y-15566660D02*
X12735631Y-15557136D01*
X12735631Y-15557136D02*
X12745155Y-15538088D01*
X12745155Y-15538088D02*
X12745155Y-15499993D01*
X12745155Y-15499993D02*
X12735631Y-15480946D01*
X12735631Y-15480946D02*
X12726108Y-15471422D01*
X12726108Y-15471422D02*
X12707060Y-15461898D01*
X12983250Y-15576184D02*
X12983250Y-15376184D01*
X13068965Y-15576184D02*
X13068965Y-15471422D01*
X13068965Y-15471422D02*
X13059441Y-15452374D01*
X13059441Y-15452374D02*
X13040393Y-15442850D01*
X13040393Y-15442850D02*
X13011822Y-15442850D01*
X13011822Y-15442850D02*
X12992774Y-15452374D01*
X12992774Y-15452374D02*
X12983250Y-15461898D01*
X13192774Y-15576184D02*
X13173727Y-15566660D01*
X13173727Y-15566660D02*
X13164203Y-15557136D01*
X13164203Y-15557136D02*
X13154679Y-15538088D01*
X13154679Y-15538088D02*
X13154679Y-15480946D01*
X13154679Y-15480946D02*
X13164203Y-15461898D01*
X13164203Y-15461898D02*
X13173727Y-15452374D01*
X13173727Y-15452374D02*
X13192774Y-15442850D01*
X13192774Y-15442850D02*
X13221346Y-15442850D01*
X13221346Y-15442850D02*
X13240393Y-15452374D01*
X13240393Y-15452374D02*
X13249917Y-15461898D01*
X13249917Y-15461898D02*
X13259441Y-15480946D01*
X13259441Y-15480946D02*
X13259441Y-15538088D01*
X13259441Y-15538088D02*
X13249917Y-15557136D01*
X13249917Y-15557136D02*
X13240393Y-15566660D01*
X13240393Y-15566660D02*
X13221346Y-15576184D01*
X13221346Y-15576184D02*
X13192774Y-15576184D01*
X13373727Y-15576184D02*
X13354679Y-15566660D01*
X13354679Y-15566660D02*
X13345155Y-15547612D01*
X13345155Y-15547612D02*
X13345155Y-15376184D01*
X13526108Y-15566660D02*
X13507060Y-15576184D01*
X13507060Y-15576184D02*
X13468965Y-15576184D01*
X13468965Y-15576184D02*
X13449917Y-15566660D01*
X13449917Y-15566660D02*
X13440393Y-15547612D01*
X13440393Y-15547612D02*
X13440393Y-15471422D01*
X13440393Y-15471422D02*
X13449917Y-15452374D01*
X13449917Y-15452374D02*
X13468965Y-15442850D01*
X13468965Y-15442850D02*
X13507060Y-15442850D01*
X13507060Y-15442850D02*
X13526108Y-15452374D01*
X13526108Y-15452374D02*
X13535631Y-15471422D01*
X13535631Y-15471422D02*
X13535631Y-15490469D01*
X13535631Y-15490469D02*
X13440393Y-15509517D01*
X13611822Y-15566660D02*
X13630870Y-15576184D01*
X13630870Y-15576184D02*
X13668965Y-15576184D01*
X13668965Y-15576184D02*
X13688012Y-15566660D01*
X13688012Y-15566660D02*
X13697536Y-15547612D01*
X13697536Y-15547612D02*
X13697536Y-15538088D01*
X13697536Y-15538088D02*
X13688012Y-15519041D01*
X13688012Y-15519041D02*
X13668965Y-15509517D01*
X13668965Y-15509517D02*
X13640393Y-15509517D01*
X13640393Y-15509517D02*
X13621346Y-15499993D01*
X13621346Y-15499993D02*
X13611822Y-15480946D01*
X13611822Y-15480946D02*
X13611822Y-15471422D01*
X13611822Y-15471422D02*
X13621346Y-15452374D01*
X13621346Y-15452374D02*
X13640393Y-15442850D01*
X13640393Y-15442850D02*
X13668965Y-15442850D01*
X13668965Y-15442850D02*
X13688012Y-15452374D01*
X13764203Y-15652374D02*
X13773727Y-15642850D01*
X13773727Y-15642850D02*
X13792774Y-15614279D01*
X13792774Y-15614279D02*
X13802298Y-15595231D01*
X13802298Y-15595231D02*
X13811822Y-15566660D01*
X13811822Y-15566660D02*
X13821346Y-15519041D01*
X13821346Y-15519041D02*
X13821346Y-15480946D01*
X13821346Y-15480946D02*
X13811822Y-15433327D01*
X13811822Y-15433327D02*
X13802298Y-15404755D01*
X13802298Y-15404755D02*
X13792774Y-15385708D01*
X13792774Y-15385708D02*
X13773727Y-15357136D01*
X13773727Y-15357136D02*
X13764203Y-15347612D01*
D10*
X8974496Y-15784056D02*
X8974496Y-15713344D01*
X8903784Y-15713344D01*
X8903784Y-15784056D01*
X8974496Y-15784056D01*
D11*
X9354679Y-15840184D02*
X9240393Y-15840184D01*
X9297536Y-15840184D02*
X9297536Y-15640184D01*
X9297536Y-15640184D02*
X9278488Y-15668755D01*
X9278488Y-15668755D02*
X9259441Y-15687803D01*
X9259441Y-15687803D02*
X9240393Y-15697327D01*
X9440393Y-15821136D02*
X9449917Y-15830660D01*
X9449917Y-15830660D02*
X9440393Y-15840184D01*
X9440393Y-15840184D02*
X9430869Y-15830660D01*
X9430869Y-15830660D02*
X9440393Y-15821136D01*
X9440393Y-15821136D02*
X9440393Y-15840184D01*
X9573726Y-15640184D02*
X9592774Y-15640184D01*
X9592774Y-15640184D02*
X9611822Y-15649708D01*
X9611822Y-15649708D02*
X9621345Y-15659231D01*
X9621345Y-15659231D02*
X9630869Y-15678279D01*
X9630869Y-15678279D02*
X9640393Y-15716374D01*
X9640393Y-15716374D02*
X9640393Y-15763993D01*
X9640393Y-15763993D02*
X9630869Y-15802088D01*
X9630869Y-15802088D02*
X9621345Y-15821136D01*
X9621345Y-15821136D02*
X9611822Y-15830660D01*
X9611822Y-15830660D02*
X9592774Y-15840184D01*
X9592774Y-15840184D02*
X9573726Y-15840184D01*
X9573726Y-15840184D02*
X9554679Y-15830660D01*
X9554679Y-15830660D02*
X9545155Y-15821136D01*
X9545155Y-15821136D02*
X9535631Y-15802088D01*
X9535631Y-15802088D02*
X9526107Y-15763993D01*
X9526107Y-15763993D02*
X9526107Y-15716374D01*
X9526107Y-15716374D02*
X9535631Y-15678279D01*
X9535631Y-15678279D02*
X9545155Y-15659231D01*
X9545155Y-15659231D02*
X9554679Y-15649708D01*
X9554679Y-15649708D02*
X9573726Y-15640184D01*
X9764203Y-15640184D02*
X9783250Y-15640184D01*
X9783250Y-15640184D02*
X9802298Y-15649708D01*
X9802298Y-15649708D02*
X9811822Y-15659231D01*
X9811822Y-15659231D02*
X9821345Y-15678279D01*
X9821345Y-15678279D02*
X9830869Y-15716374D01*
X9830869Y-15716374D02*
X9830869Y-15763993D01*
X9830869Y-15763993D02*
X9821345Y-15802088D01*
X9821345Y-15802088D02*
X9811822Y-15821136D01*
X9811822Y-15821136D02*
X9802298Y-15830660D01*
X9802298Y-15830660D02*
X9783250Y-15840184D01*
X9783250Y-15840184D02*
X9764203Y-15840184D01*
X9764203Y-15840184D02*
X9745155Y-15830660D01*
X9745155Y-15830660D02*
X9735631Y-15821136D01*
X9735631Y-15821136D02*
X9726107Y-15802088D01*
X9726107Y-15802088D02*
X9716584Y-15763993D01*
X9716584Y-15763993D02*
X9716584Y-15716374D01*
X9716584Y-15716374D02*
X9726107Y-15678279D01*
X9726107Y-15678279D02*
X9735631Y-15659231D01*
X9735631Y-15659231D02*
X9745155Y-15649708D01*
X9745155Y-15649708D02*
X9764203Y-15640184D01*
X9954679Y-15640184D02*
X9973726Y-15640184D01*
X9973726Y-15640184D02*
X9992774Y-15649708D01*
X9992774Y-15649708D02*
X10002298Y-15659231D01*
X10002298Y-15659231D02*
X10011822Y-15678279D01*
X10011822Y-15678279D02*
X10021345Y-15716374D01*
X10021345Y-15716374D02*
X10021345Y-15763993D01*
X10021345Y-15763993D02*
X10011822Y-15802088D01*
X10011822Y-15802088D02*
X10002298Y-15821136D01*
X10002298Y-15821136D02*
X9992774Y-15830660D01*
X9992774Y-15830660D02*
X9973726Y-15840184D01*
X9973726Y-15840184D02*
X9954679Y-15840184D01*
X9954679Y-15840184D02*
X9935631Y-15830660D01*
X9935631Y-15830660D02*
X9926107Y-15821136D01*
X9926107Y-15821136D02*
X9916584Y-15802088D01*
X9916584Y-15802088D02*
X9907060Y-15763993D01*
X9907060Y-15763993D02*
X9907060Y-15716374D01*
X9907060Y-15716374D02*
X9916584Y-15678279D01*
X9916584Y-15678279D02*
X9926107Y-15659231D01*
X9926107Y-15659231D02*
X9935631Y-15649708D01*
X9935631Y-15649708D02*
X9954679Y-15640184D01*
X10107060Y-15840184D02*
X10107060Y-15706850D01*
X10107060Y-15725898D02*
X10116584Y-15716374D01*
X10116584Y-15716374D02*
X10135631Y-15706850D01*
X10135631Y-15706850D02*
X10164203Y-15706850D01*
X10164203Y-15706850D02*
X10183250Y-15716374D01*
X10183250Y-15716374D02*
X10192774Y-15735422D01*
X10192774Y-15735422D02*
X10192774Y-15840184D01*
X10192774Y-15735422D02*
X10202298Y-15716374D01*
X10202298Y-15716374D02*
X10221345Y-15706850D01*
X10221345Y-15706850D02*
X10249917Y-15706850D01*
X10249917Y-15706850D02*
X10268965Y-15716374D01*
X10268965Y-15716374D02*
X10278488Y-15735422D01*
X10278488Y-15735422D02*
X10278488Y-15840184D01*
X10373726Y-15840184D02*
X10373726Y-15706850D01*
X10373726Y-15725898D02*
X10383250Y-15716374D01*
X10383250Y-15716374D02*
X10402298Y-15706850D01*
X10402298Y-15706850D02*
X10430869Y-15706850D01*
X10430869Y-15706850D02*
X10449917Y-15716374D01*
X10449917Y-15716374D02*
X10459441Y-15735422D01*
X10459441Y-15735422D02*
X10459441Y-15840184D01*
X10459441Y-15735422D02*
X10468965Y-15716374D01*
X10468965Y-15716374D02*
X10488012Y-15706850D01*
X10488012Y-15706850D02*
X10516584Y-15706850D01*
X10516584Y-15706850D02*
X10535631Y-15716374D01*
X10535631Y-15716374D02*
X10545155Y-15735422D01*
X10545155Y-15735422D02*
X10545155Y-15840184D01*
X10935631Y-15630660D02*
X10764203Y-15887803D01*
X11192774Y-15640184D02*
X11211822Y-15640184D01*
X11211822Y-15640184D02*
X11230869Y-15649708D01*
X11230869Y-15649708D02*
X11240393Y-15659231D01*
X11240393Y-15659231D02*
X11249917Y-15678279D01*
X11249917Y-15678279D02*
X11259441Y-15716374D01*
X11259441Y-15716374D02*
X11259441Y-15763993D01*
X11259441Y-15763993D02*
X11249917Y-15802088D01*
X11249917Y-15802088D02*
X11240393Y-15821136D01*
X11240393Y-15821136D02*
X11230869Y-15830660D01*
X11230869Y-15830660D02*
X11211822Y-15840184D01*
X11211822Y-15840184D02*
X11192774Y-15840184D01*
X11192774Y-15840184D02*
X11173727Y-15830660D01*
X11173727Y-15830660D02*
X11164203Y-15821136D01*
X11164203Y-15821136D02*
X11154679Y-15802088D01*
X11154679Y-15802088D02*
X11145155Y-15763993D01*
X11145155Y-15763993D02*
X11145155Y-15716374D01*
X11145155Y-15716374D02*
X11154679Y-15678279D01*
X11154679Y-15678279D02*
X11164203Y-15659231D01*
X11164203Y-15659231D02*
X11173727Y-15649708D01*
X11173727Y-15649708D02*
X11192774Y-15640184D01*
X11345155Y-15821136D02*
X11354679Y-15830660D01*
X11354679Y-15830660D02*
X11345155Y-15840184D01*
X11345155Y-15840184D02*
X11335631Y-15830660D01*
X11335631Y-15830660D02*
X11345155Y-15821136D01*
X11345155Y-15821136D02*
X11345155Y-15840184D01*
X11478488Y-15640184D02*
X11497536Y-15640184D01*
X11497536Y-15640184D02*
X11516584Y-15649708D01*
X11516584Y-15649708D02*
X11526107Y-15659231D01*
X11526107Y-15659231D02*
X11535631Y-15678279D01*
X11535631Y-15678279D02*
X11545155Y-15716374D01*
X11545155Y-15716374D02*
X11545155Y-15763993D01*
X11545155Y-15763993D02*
X11535631Y-15802088D01*
X11535631Y-15802088D02*
X11526107Y-15821136D01*
X11526107Y-15821136D02*
X11516584Y-15830660D01*
X11516584Y-15830660D02*
X11497536Y-15840184D01*
X11497536Y-15840184D02*
X11478488Y-15840184D01*
X11478488Y-15840184D02*
X11459441Y-15830660D01*
X11459441Y-15830660D02*
X11449917Y-15821136D01*
X11449917Y-15821136D02*
X11440393Y-15802088D01*
X11440393Y-15802088D02*
X11430869Y-15763993D01*
X11430869Y-15763993D02*
X11430869Y-15716374D01*
X11430869Y-15716374D02*
X11440393Y-15678279D01*
X11440393Y-15678279D02*
X11449917Y-15659231D01*
X11449917Y-15659231D02*
X11459441Y-15649708D01*
X11459441Y-15649708D02*
X11478488Y-15640184D01*
X11611822Y-15640184D02*
X11735631Y-15640184D01*
X11735631Y-15640184D02*
X11668965Y-15716374D01*
X11668965Y-15716374D02*
X11697536Y-15716374D01*
X11697536Y-15716374D02*
X11716584Y-15725898D01*
X11716584Y-15725898D02*
X11726107Y-15735422D01*
X11726107Y-15735422D02*
X11735631Y-15754469D01*
X11735631Y-15754469D02*
X11735631Y-15802088D01*
X11735631Y-15802088D02*
X11726107Y-15821136D01*
X11726107Y-15821136D02*
X11716584Y-15830660D01*
X11716584Y-15830660D02*
X11697536Y-15840184D01*
X11697536Y-15840184D02*
X11640393Y-15840184D01*
X11640393Y-15840184D02*
X11621346Y-15830660D01*
X11621346Y-15830660D02*
X11611822Y-15821136D01*
X11830869Y-15840184D02*
X11868965Y-15840184D01*
X11868965Y-15840184D02*
X11888012Y-15830660D01*
X11888012Y-15830660D02*
X11897536Y-15821136D01*
X11897536Y-15821136D02*
X11916584Y-15792565D01*
X11916584Y-15792565D02*
X11926107Y-15754469D01*
X11926107Y-15754469D02*
X11926107Y-15678279D01*
X11926107Y-15678279D02*
X11916584Y-15659231D01*
X11916584Y-15659231D02*
X11907060Y-15649708D01*
X11907060Y-15649708D02*
X11888012Y-15640184D01*
X11888012Y-15640184D02*
X11849917Y-15640184D01*
X11849917Y-15640184D02*
X11830869Y-15649708D01*
X11830869Y-15649708D02*
X11821346Y-15659231D01*
X11821346Y-15659231D02*
X11811822Y-15678279D01*
X11811822Y-15678279D02*
X11811822Y-15725898D01*
X11811822Y-15725898D02*
X11821346Y-15744946D01*
X11821346Y-15744946D02*
X11830869Y-15754469D01*
X11830869Y-15754469D02*
X11849917Y-15763993D01*
X11849917Y-15763993D02*
X11888012Y-15763993D01*
X11888012Y-15763993D02*
X11907060Y-15754469D01*
X11907060Y-15754469D02*
X11916584Y-15744946D01*
X11916584Y-15744946D02*
X11926107Y-15725898D01*
X12097536Y-15706850D02*
X12097536Y-15840184D01*
X12049917Y-15630660D02*
X12002298Y-15773517D01*
X12002298Y-15773517D02*
X12126107Y-15773517D01*
X12192774Y-15640184D02*
X12192774Y-15678279D01*
X12268965Y-15640184D02*
X12268965Y-15678279D01*
X12564203Y-15916374D02*
X12554679Y-15906850D01*
X12554679Y-15906850D02*
X12535631Y-15878279D01*
X12535631Y-15878279D02*
X12526108Y-15859231D01*
X12526108Y-15859231D02*
X12516584Y-15830660D01*
X12516584Y-15830660D02*
X12507060Y-15783041D01*
X12507060Y-15783041D02*
X12507060Y-15744946D01*
X12507060Y-15744946D02*
X12516584Y-15697327D01*
X12516584Y-15697327D02*
X12526108Y-15668755D01*
X12526108Y-15668755D02*
X12535631Y-15649708D01*
X12535631Y-15649708D02*
X12554679Y-15621136D01*
X12554679Y-15621136D02*
X12564203Y-15611612D01*
X12668965Y-15725898D02*
X12649917Y-15716374D01*
X12649917Y-15716374D02*
X12640393Y-15706850D01*
X12640393Y-15706850D02*
X12630869Y-15687803D01*
X12630869Y-15687803D02*
X12630869Y-15678279D01*
X12630869Y-15678279D02*
X12640393Y-15659231D01*
X12640393Y-15659231D02*
X12649917Y-15649708D01*
X12649917Y-15649708D02*
X12668965Y-15640184D01*
X12668965Y-15640184D02*
X12707060Y-15640184D01*
X12707060Y-15640184D02*
X12726108Y-15649708D01*
X12726108Y-15649708D02*
X12735631Y-15659231D01*
X12735631Y-15659231D02*
X12745155Y-15678279D01*
X12745155Y-15678279D02*
X12745155Y-15687803D01*
X12745155Y-15687803D02*
X12735631Y-15706850D01*
X12735631Y-15706850D02*
X12726108Y-15716374D01*
X12726108Y-15716374D02*
X12707060Y-15725898D01*
X12707060Y-15725898D02*
X12668965Y-15725898D01*
X12668965Y-15725898D02*
X12649917Y-15735422D01*
X12649917Y-15735422D02*
X12640393Y-15744946D01*
X12640393Y-15744946D02*
X12630869Y-15763993D01*
X12630869Y-15763993D02*
X12630869Y-15802088D01*
X12630869Y-15802088D02*
X12640393Y-15821136D01*
X12640393Y-15821136D02*
X12649917Y-15830660D01*
X12649917Y-15830660D02*
X12668965Y-15840184D01*
X12668965Y-15840184D02*
X12707060Y-15840184D01*
X12707060Y-15840184D02*
X12726108Y-15830660D01*
X12726108Y-15830660D02*
X12735631Y-15821136D01*
X12735631Y-15821136D02*
X12745155Y-15802088D01*
X12745155Y-15802088D02*
X12745155Y-15763993D01*
X12745155Y-15763993D02*
X12735631Y-15744946D01*
X12735631Y-15744946D02*
X12726108Y-15735422D01*
X12726108Y-15735422D02*
X12707060Y-15725898D01*
X12983250Y-15840184D02*
X12983250Y-15640184D01*
X13068965Y-15840184D02*
X13068965Y-15735422D01*
X13068965Y-15735422D02*
X13059441Y-15716374D01*
X13059441Y-15716374D02*
X13040393Y-15706850D01*
X13040393Y-15706850D02*
X13011822Y-15706850D01*
X13011822Y-15706850D02*
X12992774Y-15716374D01*
X12992774Y-15716374D02*
X12983250Y-15725898D01*
X13192774Y-15840184D02*
X13173727Y-15830660D01*
X13173727Y-15830660D02*
X13164203Y-15821136D01*
X13164203Y-15821136D02*
X13154679Y-15802088D01*
X13154679Y-15802088D02*
X13154679Y-15744946D01*
X13154679Y-15744946D02*
X13164203Y-15725898D01*
X13164203Y-15725898D02*
X13173727Y-15716374D01*
X13173727Y-15716374D02*
X13192774Y-15706850D01*
X13192774Y-15706850D02*
X13221346Y-15706850D01*
X13221346Y-15706850D02*
X13240393Y-15716374D01*
X13240393Y-15716374D02*
X13249917Y-15725898D01*
X13249917Y-15725898D02*
X13259441Y-15744946D01*
X13259441Y-15744946D02*
X13259441Y-15802088D01*
X13259441Y-15802088D02*
X13249917Y-15821136D01*
X13249917Y-15821136D02*
X13240393Y-15830660D01*
X13240393Y-15830660D02*
X13221346Y-15840184D01*
X13221346Y-15840184D02*
X13192774Y-15840184D01*
X13373727Y-15840184D02*
X13354679Y-15830660D01*
X13354679Y-15830660D02*
X13345155Y-15811612D01*
X13345155Y-15811612D02*
X13345155Y-15640184D01*
X13526108Y-15830660D02*
X13507060Y-15840184D01*
X13507060Y-15840184D02*
X13468965Y-15840184D01*
X13468965Y-15840184D02*
X13449917Y-15830660D01*
X13449917Y-15830660D02*
X13440393Y-15811612D01*
X13440393Y-15811612D02*
X13440393Y-15735422D01*
X13440393Y-15735422D02*
X13449917Y-15716374D01*
X13449917Y-15716374D02*
X13468965Y-15706850D01*
X13468965Y-15706850D02*
X13507060Y-15706850D01*
X13507060Y-15706850D02*
X13526108Y-15716374D01*
X13526108Y-15716374D02*
X13535631Y-15735422D01*
X13535631Y-15735422D02*
X13535631Y-15754469D01*
X13535631Y-15754469D02*
X13440393Y-15773517D01*
X13611822Y-15830660D02*
X13630870Y-15840184D01*
X13630870Y-15840184D02*
X13668965Y-15840184D01*
X13668965Y-15840184D02*
X13688012Y-15830660D01*
X13688012Y-15830660D02*
X13697536Y-15811612D01*
X13697536Y-15811612D02*
X13697536Y-15802088D01*
X13697536Y-15802088D02*
X13688012Y-15783041D01*
X13688012Y-15783041D02*
X13668965Y-15773517D01*
X13668965Y-15773517D02*
X13640393Y-15773517D01*
X13640393Y-15773517D02*
X13621346Y-15763993D01*
X13621346Y-15763993D02*
X13611822Y-15744946D01*
X13611822Y-15744946D02*
X13611822Y-15735422D01*
X13611822Y-15735422D02*
X13621346Y-15716374D01*
X13621346Y-15716374D02*
X13640393Y-15706850D01*
X13640393Y-15706850D02*
X13668965Y-15706850D01*
X13668965Y-15706850D02*
X13688012Y-15716374D01*
X13764203Y-15916374D02*
X13773727Y-15906850D01*
X13773727Y-15906850D02*
X13792774Y-15878279D01*
X13792774Y-15878279D02*
X13802298Y-15859231D01*
X13802298Y-15859231D02*
X13811822Y-15830660D01*
X13811822Y-15830660D02*
X13821346Y-15783041D01*
X13821346Y-15783041D02*
X13821346Y-15744946D01*
X13821346Y-15744946D02*
X13811822Y-15697327D01*
X13811822Y-15697327D02*
X13802298Y-15668755D01*
X13802298Y-15668755D02*
X13792774Y-15649708D01*
X13792774Y-15649708D02*
X13773727Y-15621136D01*
X13773727Y-15621136D02*
X13764203Y-15611612D01*
X8889140Y-16112700D02*
X8989140Y-16012700D01*
X8889140Y-15912700D01*
X8789140Y-16012700D01*
X8889140Y-16112700D01*
X9230869Y-15904184D02*
X9354679Y-15904184D01*
X9354679Y-15904184D02*
X9288012Y-15980374D01*
X9288012Y-15980374D02*
X9316584Y-15980374D01*
X9316584Y-15980374D02*
X9335631Y-15989898D01*
X9335631Y-15989898D02*
X9345155Y-15999422D01*
X9345155Y-15999422D02*
X9354679Y-16018469D01*
X9354679Y-16018469D02*
X9354679Y-16066088D01*
X9354679Y-16066088D02*
X9345155Y-16085136D01*
X9345155Y-16085136D02*
X9335631Y-16094660D01*
X9335631Y-16094660D02*
X9316584Y-16104184D01*
X9316584Y-16104184D02*
X9259441Y-16104184D01*
X9259441Y-16104184D02*
X9240393Y-16094660D01*
X9240393Y-16094660D02*
X9230869Y-16085136D01*
X9440393Y-16085136D02*
X9449917Y-16094660D01*
X9449917Y-16094660D02*
X9440393Y-16104184D01*
X9440393Y-16104184D02*
X9430869Y-16094660D01*
X9430869Y-16094660D02*
X9440393Y-16085136D01*
X9440393Y-16085136D02*
X9440393Y-16104184D01*
X9526107Y-15923231D02*
X9535631Y-15913708D01*
X9535631Y-15913708D02*
X9554679Y-15904184D01*
X9554679Y-15904184D02*
X9602298Y-15904184D01*
X9602298Y-15904184D02*
X9621345Y-15913708D01*
X9621345Y-15913708D02*
X9630869Y-15923231D01*
X9630869Y-15923231D02*
X9640393Y-15942279D01*
X9640393Y-15942279D02*
X9640393Y-15961327D01*
X9640393Y-15961327D02*
X9630869Y-15989898D01*
X9630869Y-15989898D02*
X9516584Y-16104184D01*
X9516584Y-16104184D02*
X9640393Y-16104184D01*
X9764203Y-15904184D02*
X9783250Y-15904184D01*
X9783250Y-15904184D02*
X9802298Y-15913708D01*
X9802298Y-15913708D02*
X9811822Y-15923231D01*
X9811822Y-15923231D02*
X9821345Y-15942279D01*
X9821345Y-15942279D02*
X9830869Y-15980374D01*
X9830869Y-15980374D02*
X9830869Y-16027993D01*
X9830869Y-16027993D02*
X9821345Y-16066088D01*
X9821345Y-16066088D02*
X9811822Y-16085136D01*
X9811822Y-16085136D02*
X9802298Y-16094660D01*
X9802298Y-16094660D02*
X9783250Y-16104184D01*
X9783250Y-16104184D02*
X9764203Y-16104184D01*
X9764203Y-16104184D02*
X9745155Y-16094660D01*
X9745155Y-16094660D02*
X9735631Y-16085136D01*
X9735631Y-16085136D02*
X9726107Y-16066088D01*
X9726107Y-16066088D02*
X9716584Y-16027993D01*
X9716584Y-16027993D02*
X9716584Y-15980374D01*
X9716584Y-15980374D02*
X9726107Y-15942279D01*
X9726107Y-15942279D02*
X9735631Y-15923231D01*
X9735631Y-15923231D02*
X9745155Y-15913708D01*
X9745155Y-15913708D02*
X9764203Y-15904184D01*
X9954679Y-15904184D02*
X9973726Y-15904184D01*
X9973726Y-15904184D02*
X9992774Y-15913708D01*
X9992774Y-15913708D02*
X10002298Y-15923231D01*
X10002298Y-15923231D02*
X10011822Y-15942279D01*
X10011822Y-15942279D02*
X10021345Y-15980374D01*
X10021345Y-15980374D02*
X10021345Y-16027993D01*
X10021345Y-16027993D02*
X10011822Y-16066088D01*
X10011822Y-16066088D02*
X10002298Y-16085136D01*
X10002298Y-16085136D02*
X9992774Y-16094660D01*
X9992774Y-16094660D02*
X9973726Y-16104184D01*
X9973726Y-16104184D02*
X9954679Y-16104184D01*
X9954679Y-16104184D02*
X9935631Y-16094660D01*
X9935631Y-16094660D02*
X9926107Y-16085136D01*
X9926107Y-16085136D02*
X9916584Y-16066088D01*
X9916584Y-16066088D02*
X9907060Y-16027993D01*
X9907060Y-16027993D02*
X9907060Y-15980374D01*
X9907060Y-15980374D02*
X9916584Y-15942279D01*
X9916584Y-15942279D02*
X9926107Y-15923231D01*
X9926107Y-15923231D02*
X9935631Y-15913708D01*
X9935631Y-15913708D02*
X9954679Y-15904184D01*
X10107060Y-16104184D02*
X10107060Y-15970850D01*
X10107060Y-15989898D02*
X10116584Y-15980374D01*
X10116584Y-15980374D02*
X10135631Y-15970850D01*
X10135631Y-15970850D02*
X10164203Y-15970850D01*
X10164203Y-15970850D02*
X10183250Y-15980374D01*
X10183250Y-15980374D02*
X10192774Y-15999422D01*
X10192774Y-15999422D02*
X10192774Y-16104184D01*
X10192774Y-15999422D02*
X10202298Y-15980374D01*
X10202298Y-15980374D02*
X10221345Y-15970850D01*
X10221345Y-15970850D02*
X10249917Y-15970850D01*
X10249917Y-15970850D02*
X10268965Y-15980374D01*
X10268965Y-15980374D02*
X10278488Y-15999422D01*
X10278488Y-15999422D02*
X10278488Y-16104184D01*
X10373726Y-16104184D02*
X10373726Y-15970850D01*
X10373726Y-15989898D02*
X10383250Y-15980374D01*
X10383250Y-15980374D02*
X10402298Y-15970850D01*
X10402298Y-15970850D02*
X10430869Y-15970850D01*
X10430869Y-15970850D02*
X10449917Y-15980374D01*
X10449917Y-15980374D02*
X10459441Y-15999422D01*
X10459441Y-15999422D02*
X10459441Y-16104184D01*
X10459441Y-15999422D02*
X10468965Y-15980374D01*
X10468965Y-15980374D02*
X10488012Y-15970850D01*
X10488012Y-15970850D02*
X10516584Y-15970850D01*
X10516584Y-15970850D02*
X10535631Y-15980374D01*
X10535631Y-15980374D02*
X10545155Y-15999422D01*
X10545155Y-15999422D02*
X10545155Y-16104184D01*
X10935631Y-15894660D02*
X10764203Y-16151803D01*
X11192774Y-15904184D02*
X11211822Y-15904184D01*
X11211822Y-15904184D02*
X11230869Y-15913708D01*
X11230869Y-15913708D02*
X11240393Y-15923231D01*
X11240393Y-15923231D02*
X11249917Y-15942279D01*
X11249917Y-15942279D02*
X11259441Y-15980374D01*
X11259441Y-15980374D02*
X11259441Y-16027993D01*
X11259441Y-16027993D02*
X11249917Y-16066088D01*
X11249917Y-16066088D02*
X11240393Y-16085136D01*
X11240393Y-16085136D02*
X11230869Y-16094660D01*
X11230869Y-16094660D02*
X11211822Y-16104184D01*
X11211822Y-16104184D02*
X11192774Y-16104184D01*
X11192774Y-16104184D02*
X11173727Y-16094660D01*
X11173727Y-16094660D02*
X11164203Y-16085136D01*
X11164203Y-16085136D02*
X11154679Y-16066088D01*
X11154679Y-16066088D02*
X11145155Y-16027993D01*
X11145155Y-16027993D02*
X11145155Y-15980374D01*
X11145155Y-15980374D02*
X11154679Y-15942279D01*
X11154679Y-15942279D02*
X11164203Y-15923231D01*
X11164203Y-15923231D02*
X11173727Y-15913708D01*
X11173727Y-15913708D02*
X11192774Y-15904184D01*
X11345155Y-16085136D02*
X11354679Y-16094660D01*
X11354679Y-16094660D02*
X11345155Y-16104184D01*
X11345155Y-16104184D02*
X11335631Y-16094660D01*
X11335631Y-16094660D02*
X11345155Y-16085136D01*
X11345155Y-16085136D02*
X11345155Y-16104184D01*
X11545155Y-16104184D02*
X11430869Y-16104184D01*
X11488012Y-16104184D02*
X11488012Y-15904184D01*
X11488012Y-15904184D02*
X11468965Y-15932755D01*
X11468965Y-15932755D02*
X11449917Y-15951803D01*
X11449917Y-15951803D02*
X11430869Y-15961327D01*
X11621346Y-15923231D02*
X11630869Y-15913708D01*
X11630869Y-15913708D02*
X11649917Y-15904184D01*
X11649917Y-15904184D02*
X11697536Y-15904184D01*
X11697536Y-15904184D02*
X11716584Y-15913708D01*
X11716584Y-15913708D02*
X11726107Y-15923231D01*
X11726107Y-15923231D02*
X11735631Y-15942279D01*
X11735631Y-15942279D02*
X11735631Y-15961327D01*
X11735631Y-15961327D02*
X11726107Y-15989898D01*
X11726107Y-15989898D02*
X11611822Y-16104184D01*
X11611822Y-16104184D02*
X11735631Y-16104184D01*
X11907060Y-15904184D02*
X11868965Y-15904184D01*
X11868965Y-15904184D02*
X11849917Y-15913708D01*
X11849917Y-15913708D02*
X11840393Y-15923231D01*
X11840393Y-15923231D02*
X11821346Y-15951803D01*
X11821346Y-15951803D02*
X11811822Y-15989898D01*
X11811822Y-15989898D02*
X11811822Y-16066088D01*
X11811822Y-16066088D02*
X11821346Y-16085136D01*
X11821346Y-16085136D02*
X11830869Y-16094660D01*
X11830869Y-16094660D02*
X11849917Y-16104184D01*
X11849917Y-16104184D02*
X11888012Y-16104184D01*
X11888012Y-16104184D02*
X11907060Y-16094660D01*
X11907060Y-16094660D02*
X11916584Y-16085136D01*
X11916584Y-16085136D02*
X11926107Y-16066088D01*
X11926107Y-16066088D02*
X11926107Y-16018469D01*
X11926107Y-16018469D02*
X11916584Y-15999422D01*
X11916584Y-15999422D02*
X11907060Y-15989898D01*
X11907060Y-15989898D02*
X11888012Y-15980374D01*
X11888012Y-15980374D02*
X11849917Y-15980374D01*
X11849917Y-15980374D02*
X11830869Y-15989898D01*
X11830869Y-15989898D02*
X11821346Y-15999422D01*
X11821346Y-15999422D02*
X11811822Y-16018469D01*
X12049917Y-15904184D02*
X12068965Y-15904184D01*
X12068965Y-15904184D02*
X12088012Y-15913708D01*
X12088012Y-15913708D02*
X12097536Y-15923231D01*
X12097536Y-15923231D02*
X12107060Y-15942279D01*
X12107060Y-15942279D02*
X12116584Y-15980374D01*
X12116584Y-15980374D02*
X12116584Y-16027993D01*
X12116584Y-16027993D02*
X12107060Y-16066088D01*
X12107060Y-16066088D02*
X12097536Y-16085136D01*
X12097536Y-16085136D02*
X12088012Y-16094660D01*
X12088012Y-16094660D02*
X12068965Y-16104184D01*
X12068965Y-16104184D02*
X12049917Y-16104184D01*
X12049917Y-16104184D02*
X12030869Y-16094660D01*
X12030869Y-16094660D02*
X12021346Y-16085136D01*
X12021346Y-16085136D02*
X12011822Y-16066088D01*
X12011822Y-16066088D02*
X12002298Y-16027993D01*
X12002298Y-16027993D02*
X12002298Y-15980374D01*
X12002298Y-15980374D02*
X12011822Y-15942279D01*
X12011822Y-15942279D02*
X12021346Y-15923231D01*
X12021346Y-15923231D02*
X12030869Y-15913708D01*
X12030869Y-15913708D02*
X12049917Y-15904184D01*
X12192774Y-15904184D02*
X12192774Y-15942279D01*
X12268965Y-15904184D02*
X12268965Y-15942279D01*
X12564203Y-16180374D02*
X12554679Y-16170850D01*
X12554679Y-16170850D02*
X12535631Y-16142279D01*
X12535631Y-16142279D02*
X12526108Y-16123231D01*
X12526108Y-16123231D02*
X12516584Y-16094660D01*
X12516584Y-16094660D02*
X12507060Y-16047041D01*
X12507060Y-16047041D02*
X12507060Y-16008946D01*
X12507060Y-16008946D02*
X12516584Y-15961327D01*
X12516584Y-15961327D02*
X12526108Y-15932755D01*
X12526108Y-15932755D02*
X12535631Y-15913708D01*
X12535631Y-15913708D02*
X12554679Y-15885136D01*
X12554679Y-15885136D02*
X12564203Y-15875612D01*
X12630869Y-15923231D02*
X12640393Y-15913708D01*
X12640393Y-15913708D02*
X12659441Y-15904184D01*
X12659441Y-15904184D02*
X12707060Y-15904184D01*
X12707060Y-15904184D02*
X12726108Y-15913708D01*
X12726108Y-15913708D02*
X12735631Y-15923231D01*
X12735631Y-15923231D02*
X12745155Y-15942279D01*
X12745155Y-15942279D02*
X12745155Y-15961327D01*
X12745155Y-15961327D02*
X12735631Y-15989898D01*
X12735631Y-15989898D02*
X12621346Y-16104184D01*
X12621346Y-16104184D02*
X12745155Y-16104184D01*
X12983250Y-16104184D02*
X12983250Y-15904184D01*
X13068965Y-16104184D02*
X13068965Y-15999422D01*
X13068965Y-15999422D02*
X13059441Y-15980374D01*
X13059441Y-15980374D02*
X13040393Y-15970850D01*
X13040393Y-15970850D02*
X13011822Y-15970850D01*
X13011822Y-15970850D02*
X12992774Y-15980374D01*
X12992774Y-15980374D02*
X12983250Y-15989898D01*
X13192774Y-16104184D02*
X13173727Y-16094660D01*
X13173727Y-16094660D02*
X13164203Y-16085136D01*
X13164203Y-16085136D02*
X13154679Y-16066088D01*
X13154679Y-16066088D02*
X13154679Y-16008946D01*
X13154679Y-16008946D02*
X13164203Y-15989898D01*
X13164203Y-15989898D02*
X13173727Y-15980374D01*
X13173727Y-15980374D02*
X13192774Y-15970850D01*
X13192774Y-15970850D02*
X13221346Y-15970850D01*
X13221346Y-15970850D02*
X13240393Y-15980374D01*
X13240393Y-15980374D02*
X13249917Y-15989898D01*
X13249917Y-15989898D02*
X13259441Y-16008946D01*
X13259441Y-16008946D02*
X13259441Y-16066088D01*
X13259441Y-16066088D02*
X13249917Y-16085136D01*
X13249917Y-16085136D02*
X13240393Y-16094660D01*
X13240393Y-16094660D02*
X13221346Y-16104184D01*
X13221346Y-16104184D02*
X13192774Y-16104184D01*
X13373727Y-16104184D02*
X13354679Y-16094660D01*
X13354679Y-16094660D02*
X13345155Y-16075612D01*
X13345155Y-16075612D02*
X13345155Y-15904184D01*
X13526108Y-16094660D02*
X13507060Y-16104184D01*
X13507060Y-16104184D02*
X13468965Y-16104184D01*
X13468965Y-16104184D02*
X13449917Y-16094660D01*
X13449917Y-16094660D02*
X13440393Y-16075612D01*
X13440393Y-16075612D02*
X13440393Y-15999422D01*
X13440393Y-15999422D02*
X13449917Y-15980374D01*
X13449917Y-15980374D02*
X13468965Y-15970850D01*
X13468965Y-15970850D02*
X13507060Y-15970850D01*
X13507060Y-15970850D02*
X13526108Y-15980374D01*
X13526108Y-15980374D02*
X13535631Y-15999422D01*
X13535631Y-15999422D02*
X13535631Y-16018469D01*
X13535631Y-16018469D02*
X13440393Y-16037517D01*
X13611822Y-16094660D02*
X13630870Y-16104184D01*
X13630870Y-16104184D02*
X13668965Y-16104184D01*
X13668965Y-16104184D02*
X13688012Y-16094660D01*
X13688012Y-16094660D02*
X13697536Y-16075612D01*
X13697536Y-16075612D02*
X13697536Y-16066088D01*
X13697536Y-16066088D02*
X13688012Y-16047041D01*
X13688012Y-16047041D02*
X13668965Y-16037517D01*
X13668965Y-16037517D02*
X13640393Y-16037517D01*
X13640393Y-16037517D02*
X13621346Y-16027993D01*
X13621346Y-16027993D02*
X13611822Y-16008946D01*
X13611822Y-16008946D02*
X13611822Y-15999422D01*
X13611822Y-15999422D02*
X13621346Y-15980374D01*
X13621346Y-15980374D02*
X13640393Y-15970850D01*
X13640393Y-15970850D02*
X13668965Y-15970850D01*
X13668965Y-15970850D02*
X13688012Y-15980374D01*
X13764203Y-16180374D02*
X13773727Y-16170850D01*
X13773727Y-16170850D02*
X13792774Y-16142279D01*
X13792774Y-16142279D02*
X13802298Y-16123231D01*
X13802298Y-16123231D02*
X13811822Y-16094660D01*
X13811822Y-16094660D02*
X13821346Y-16047041D01*
X13821346Y-16047041D02*
X13821346Y-16008946D01*
X13821346Y-16008946D02*
X13811822Y-15961327D01*
X13811822Y-15961327D02*
X13802298Y-15932755D01*
X13802298Y-15932755D02*
X13792774Y-15913708D01*
X13792774Y-15913708D02*
X13773727Y-15885136D01*
X13773727Y-15885136D02*
X13764203Y-15875612D01*
M02*
